<?xml version="1.0" standalone="no"?>
<!DOCTYPE svg PUBLIC "-//W3C//DTD SVG 1.1//EN" "http://www.w3.org/Graphics/SVG/1.1/DTD/svg11.dtd" >
<svg xmlns="http://www.w3.org/2000/svg" xmlns:xlink="http://www.w3.org/1999/xlink" version="1.1">
<metadata>
Created by FontForge 20170731 at Thu Oct 14 16:36:17 2010
 By Aleksey,,,
Generated in 2010 by FontLab Studio. Copyright info pending.
</metadata>
<defs>
<font id="AnoBold-Regular" horiz-adv-x="590" >
  <font-face 
    font-family="Ano Bold"
    font-weight="400"
    font-stretch="normal"
    units-per-em="1000"
    panose-1="0 0 0 0 0 0 0 0 0 0"
    ascent="800"
    descent="-200"
    x-height="450"
    cap-height="750"
    bbox="-51 -280 1283 989"
    underline-thickness="20"
    underline-position="-173"
    unicode-range="U+0020-2212"
  />
<missing-glyph horiz-adv-x="200" 
 />
    <glyph glyph-name=".notdef" horiz-adv-x="200" 
 />
    <glyph glyph-name=".null" horiz-adv-x="0" 
 />
    <glyph glyph-name="nonmarkingreturn" horiz-adv-x="333" 
 />
    <glyph glyph-name="space" unicode=" " horiz-adv-x="200" 
 />
    <glyph glyph-name="exclam" unicode="!" horiz-adv-x="292" 
d="M206 750v-493h-120v493h120zM206 172v-172h-120v172h120z" />
    <glyph glyph-name="quotedbl" unicode="&#x22;" horiz-adv-x="460" 
d="M390 750v-250h-120v250h120zM190 750v-250h-120v250h120z" />
    <glyph glyph-name="numbersign" unicode="#" horiz-adv-x="698" 
d="M535 522h124l-23 -104h-123l-18 -86h123l-22 -104h-124l-48 -228h-120l48 228h-75l-48 -228h-120l48 228h-117l22 104h118l18 86h-117l22 104h117l48 228h120l-48 -228h75l48 228h120zM375 332l18 86h-75l-18 -86h75z" />
    <glyph glyph-name="dollar" unicode="$" horiz-adv-x="638" 
d="M579 218q0 -88 -55 -149.5t-139 -81.5v-127h-120v125q-67 14 -121.5 60t-83.5 125l99 41q24 -65 67 -96.5t92 -31.5q58 0 101 38t43 93q0 75 -96 100l-118 31q-80 21 -123.5 77.5t-43.5 126.5q0 87 52.5 143.5t131.5 72.5v125h120v-127q67 -16 117.5 -63t69.5 -122
l-97 -38q-18 62 -61.5 94t-93.5 32q-51 0 -87 -31t-36 -83q0 -35 21.5 -63t60.5 -38l131 -34q82 -21 125.5 -75t43.5 -124z" />
    <glyph glyph-name="percent" unicode="%" horiz-adv-x="902" 
d="M863 173q0 -79 -56.5 -136t-136.5 -57t-136.5 56.5t-56.5 136.5t56.5 136.5t136.5 56.5t136.5 -56.5t56.5 -136.5zM617 770l92 -52l-426 -738l-92 52zM426 576q0 -80 -57 -136.5t-136 -56.5q-80 0 -136.5 56.5t-56.5 136.5t56.5 136.5t136.5 56.5t136.5 -56.5
t56.5 -136.5zM768 173q0 41 -29 72t-69 31t-69 -31t-29 -72t29 -72t69 -31t69 31t29 72zM331 576q0 41 -29 72t-69 31t-69 -31t-29 -72t29 -72t69 -31t69 31t29 72z" />
    <glyph glyph-name="ampersand" unicode="&#x26;" horiz-adv-x="602" 
d="M572 341v-105h-55v-32q0 -93 -71.5 -158.5t-172.5 -65.5q-100 0 -171.5 65.5t-71.5 158.5q0 57 29 106t79 79q-91 62 -91 169q0 88 66.5 150t159.5 62q82 0 144 -50t80 -131l-97 -40q-16 59 -50.5 87.5t-76.5 28.5q-45 0 -77.5 -33t-32.5 -81q0 -47 32.5 -80t77.5 -33h30
v-105h-30q-53 0 -90 -35.5t-37 -87.5t37 -88.5t90 -36.5t90.5 36.5t37.5 88.5v26h-55v105h226z" />
    <glyph glyph-name="quotesingle" unicode="'" horiz-adv-x="260" 
d="M190 750v-250h-120v250h120z" />
    <glyph glyph-name="parenleft" unicode="(" horiz-adv-x="414" 
d="M365 31l-39 -93q-70 9 -124.5 50.5t-86.5 103.5t-48.5 134t-16.5 149t16.5 149t48.5 134t86.5 103.5t124.5 50.5l39 -93q-93 -17 -144 -115t-51 -229t51 -229t144 -115z" />
    <glyph glyph-name="parenright" unicode=")" horiz-adv-x="414" 
d="M365 375q0 -77 -16.5 -149t-48.5 -134t-86.5 -103.5t-124.5 -50.5l-39 93q93 17 144 115t51 229t-51 229t-144 115l39 93q70 -9 124.5 -50.5t86.5 -103.5t48.5 -134t16.5 -149z" />
    <glyph glyph-name="asterisk" unicode="*" horiz-adv-x="524" 
d="M467 644l37 -114l-150 -46l95 -125l-97 -71l-90 129l-90 -129l-97 71l95 126l-150 45l37 114l145 -50v156h120v-156z" />
    <glyph glyph-name="plus" unicode="+" horiz-adv-x="630" 
d="M590 427v-105h-215v-222h-120v222h-215v105h215v223h120v-223h215z" />
    <glyph glyph-name="comma" unicode="," horiz-adv-x="313" 
d="M211 201l102 -69l-211 -291l-102 69z" />
    <glyph glyph-name="hyphen" unicode="-" horiz-adv-x="395" 
d="M355 327v-105h-315v105h315z" />
    <glyph glyph-name="period" unicode="." horiz-adv-x="260" 
d="M190 172v-172h-120v172h120z" />
    <glyph glyph-name="slash" unicode="/" horiz-adv-x="503" 
d="M395 821l109 -51l-395 -846l-109 51z" />
    <glyph glyph-name="zero" unicode="0" 
d="M540 525v-300q0 -101 -72 -173t-173 -72t-173 72t-72 173v300q0 101 72 173t173 72t173 -72t72 -173zM420 225v300q0 58 -36.5 99t-88.5 41t-88.5 -41t-36.5 -99v-300q0 -58 36.5 -99t88.5 -41t88.5 41t36.5 99z" />
    <glyph glyph-name="one" unicode="1" horiz-adv-x="462" 
d="M397 750v-750h-120v584l-136 -137l-76 73l212 230h120z" />
    <glyph glyph-name="two" unicode="2" horiz-adv-x="551" 
d="M507 549q0 -90 -62 -162l-241 -282h292v-105h-450v105l303 354q37 41 37 98q0 51 -31 80t-76 29q-47 0 -86.5 -32t-51.5 -90l-96 39q17 90 82.5 138.5t148.5 48.5q94 0 162.5 -59t68.5 -162z" />
    <glyph glyph-name="three" unicode="3" horiz-adv-x="571" 
d="M527 204q0 -93 -72 -158.5t-172 -65.5q-86 0 -152 50.5t-86 133.5l102 41q16 -60 52 -90t84 -30q53 0 90.5 36.5t37.5 88.5t-37.5 87.5t-90.5 35.5h-109v105h109q46 0 78.5 33t32.5 80q0 48 -32.5 81t-78.5 33q-42 0 -76 -28.5t-50 -87.5l-97 40q18 81 80 131t143 50
q93 0 160 -62t67 -150q0 -52 -24.5 -96t-67.5 -73q50 -31 79.5 -79.5t29.5 -105.5z" />
    <glyph glyph-name="four" unicode="4" horiz-adv-x="620" 
d="M581 245v-105h-101v-140h-120v140h-320v92l320 518h120v-505h101zM169 245h191v310z" />
    <glyph glyph-name="five" unicode="5" horiz-adv-x="591" 
d="M546 232q0 -112 -77 -181.5t-179 -69.5q-81 0 -147.5 48t-97.5 142l97 40q19 -63 59.5 -94.5t87.5 -31.5q57 0 99.5 41t42.5 106q0 61 -41 104t-99 43q-52 0 -87.5 -9t-105.5 -36l36 416h365v-105h-261l-15 -167q32 6 68 6q106 0 180.5 -74t74.5 -178z" />
    <glyph glyph-name="six" unicode="6" horiz-adv-x="610" 
d="M560 232q0 -104 -74.5 -178t-180.5 -74t-180.5 74t-74.5 178q0 69 34 125l229 393h134l-156 -266h14q106 0 180.5 -74t74.5 -178zM445 232q0 61 -41.5 104t-98.5 43t-98.5 -43t-41.5 -104t41.5 -104t98.5 -43t98.5 43t41.5 104z" />
    <glyph glyph-name="seven" unicode="7" horiz-adv-x="497" 
d="M468 750v-105l-313 -645h-125l313 645h-312v105h437z" />
    <glyph glyph-name="eight" unicode="8" horiz-adv-x="587" 
d="M537 204q0 -94 -71.5 -159t-171.5 -65t-172 65t-72 159q0 56 29 105t77 80q-89 63 -89 169q0 88 67 150t160 62t159.5 -62t66.5 -150q0 -106 -89 -169q48 -31 77 -80t29 -105zM404 551q0 47 -32.5 80.5t-77.5 33.5q-46 0 -78.5 -33.5t-32.5 -80.5t32.5 -80t78.5 -33
q45 0 77.5 33.5t32.5 79.5zM422 210q0 51 -37.5 88t-90.5 37q-54 0 -91.5 -37t-37.5 -88q0 -52 37.5 -88.5t91.5 -36.5q53 0 90.5 36.5t37.5 88.5z" />
    <glyph glyph-name="nine" unicode="9" 
d="M540 529q0 -67 -32 -120l-240 -409h-135l169 288h-10q-100 0 -171 70.5t-71 170.5t72 170.5t173 70.5t173 -70.5t72 -170.5zM424 529q0 56 -38 95.5t-91 39.5t-91 -39.5t-38 -95.5q0 -57 38 -96t91 -39q54 0 91.5 39t37.5 96z" />
    <glyph glyph-name="colon" unicode=":" horiz-adv-x="260" 
d="M190 450v-172h-120v172h120zM190 172v-172h-120v172h120z" />
    <glyph glyph-name="semicolon" unicode=";" horiz-adv-x="313" 
d="M270 450v-172h-120v172h120zM211 201l102 -69l-211 -291l-102 69z" />
    <glyph glyph-name="less" unicode="&#x3c;" horiz-adv-x="451" 
d="M184 369l233 -233l-74 -74l-308 307l308 308l74 -74z" />
    <glyph glyph-name="equal" unicode="=" horiz-adv-x="630" 
d="M590 527v-105h-550v105h550zM590 327v-105h-550v105h550z" />
    <glyph glyph-name="greater" unicode="&#x3e;" horiz-adv-x="451" 
d="M109 677l308 -308l-308 -307l-74 74l233 233l-233 234z" />
    <glyph glyph-name="question" unicode="?" horiz-adv-x="611" 
d="M561 547q0 -71 -44 -127t-127 -75q-85 -19 -94 -88h-118q7 154 184 194q39 9 60.5 37t21.5 63q0 47 -35 81t-99 34q-54 0 -100 -32t-64 -94l-97 38q23 94 96.5 143t163.5 49q118 0 185 -67t67 -156zM296 172v-172h-120v172h120z" />
    <glyph glyph-name="at" unicode="@" horiz-adv-x="890" 
d="M840 375q0 -51 -13 -97t-48.5 -82.5t-88.5 -38.5l48 -48q-129 -129 -293 -129q-163 0 -279 116t-116 279t116 279t279 116t279 -116t116 -279zM726 375q0 111 -72 194v-265q0 -16 9.5 -28.5t21.5 -12.5q41 0 41 112zM540 375q0 46 -31.5 79.5t-73.5 33.5t-73.5 -33
t-31.5 -80t31.5 -80t73.5 -33t73.5 33.5t31.5 79.5zM540 577h107q-83 88 -202 88q-116 0 -198.5 -84.5t-82.5 -205.5t82.5 -205.5t198.5 -84.5q106 0 193 80q-47 17 -71 54q-56 -61 -138 -61q-87 0 -150 64t-63 153t63 153t150 64q61 0 111 -36v21z" />
    <glyph glyph-name="A" unicode="A" horiz-adv-x="717" 
d="M420 750l297 -750h-130l-75 194h-308l-75 -194h-129l297 750h123zM244 298h228l-114 294z" />
    <glyph glyph-name="B" unicode="B" horiz-adv-x="639" 
d="M585 209q0 -87 -62 -148t-150 -61h-303v750h284q88 0 150 -61t62 -148q0 -93 -85 -157q104 -59 104 -175zM445 536q0 47 -28 78t-73 31h-154v-218h154q45 0 73 31t28 78zM465 214q0 47 -28.5 77.5t-72.5 30.5h-174v-217h174q44 0 72.5 31t28.5 78z" />
    <glyph glyph-name="C" unicode="C" horiz-adv-x="850" 
d="M805 526l-108 -45q-30 82 -100 133t-156 51q-114 0 -194.5 -85t-80.5 -205t80.5 -205t194.5 -85q86 0 156 51t100 133l108 -45q-45 -109 -144 -176.5t-221 -67.5q-164 0 -279.5 116t-115.5 279t115.5 279t279.5 116q122 0 221 -67.5t144 -176.5z" />
    <glyph glyph-name="D" unicode="D" horiz-adv-x="770" 
d="M710 375q0 -155 -110 -265t-265 -110h-265v750h265q155 0 265 -110t110 -265zM590 375q0 112 -79 191t-191 79h-130v-540h130q112 0 191 79t79 191z" />
    <glyph glyph-name="E" unicode="E" horiz-adv-x="565" 
d="M505 105v-105h-435v750h435v-105h-315v-218h286v-105h-286v-217h315z" />
    <glyph glyph-name="F" unicode="F" horiz-adv-x="565" 
d="M505 750v-105h-315v-218h286v-105h-286v-322h-120v750h435z" />
    <glyph glyph-name="G" unicode="G" horiz-adv-x="890" 
d="M840 375q0 -163 -116 -279t-279 -116t-279 116t-116 279t116 279t279 116q164 0 280 -116l-80 -79q-82 90 -199 90q-114 0 -194.5 -85t-80.5 -205t80.5 -205t194.5 -85q100 0 176.5 67.5t94.5 169.5h-272v105h391q4 -23 4 -52z" />
    <glyph glyph-name="H" unicode="H" horiz-adv-x="710" 
d="M640 750v-750h-120v322h-330v-322h-120v750h120v-323h330v323h120z" />
    <glyph glyph-name="I" unicode="I" horiz-adv-x="260" 
d="M190 750v-750h-120v750h120z" />
    <glyph glyph-name="J" unicode="J" horiz-adv-x="584" 
d="M514 750v-541q0 -95 -70 -162t-166 -67q-89 0 -153.5 54t-77.5 147l97 39q27 -135 134 -135q48 0 82 36.5t34 87.5v541h120z" />
    <glyph glyph-name="K" unicode="K" horiz-adv-x="641" 
d="M450 750h157l-324 -376l322 -374h-157l-258 300v-300h-120v750h120v-302z" />
    <glyph glyph-name="L" unicode="L" horiz-adv-x="580" 
d="M525 105v-105h-455v750h120v-645h335z" />
    <glyph glyph-name="M" unicode="M" horiz-adv-x="850" 
d="M780 750v-750h-120v527l-186 -290h-98l-186 290v-527h-120v750h120l235 -366l237 366h118z" />
    <glyph glyph-name="N" unicode="N" horiz-adv-x="725" 
d="M655 750v-750h-120l-345 540v-540h-120v750h120l345 -541v541h120z" />
    <glyph glyph-name="O" unicode="O" horiz-adv-x="890" 
d="M840 375q0 -163 -116 -279t-279 -116t-279 116t-116 279t116 279t279 116t279 -116t116 -279zM721 375q0 120 -80.5 205t-194.5 85t-194.5 -85t-80.5 -205t80.5 -205t194.5 -85t194.5 85t80.5 205z" />
    <glyph glyph-name="P" unicode="P" horiz-adv-x="616" 
d="M566 536q0 -88 -63 -151t-151 -63h-162v-322h-120v750h282q88 0 151 -63t63 -151zM446 536q0 46 -27.5 77.5t-71.5 31.5h-157v-218h157q44 0 71.5 31.5t27.5 77.5z" />
    <glyph glyph-name="Q" unicode="Q" horiz-adv-x="890" 
d="M741 114l99 -114h-148l-36 41q-95 -61 -211 -61q-163 0 -279 116t-116 279t116 279t279 116t279 -116t116 -279q0 -151 -99 -261zM721 375q0 120 -80.5 205t-194.5 85t-194.5 -85t-80.5 -205t80.5 -205t194.5 -85q75 0 139 39l-152 176h147l86 -99q55 75 55 174z" />
    <glyph glyph-name="R" unicode="R" horiz-adv-x="650" 
d="M337 322l289 -322h-152l-284 317v-317h-120v750h282q88 0 151 -63t63 -151t-63 -151t-151 -63h-15zM446 536q0 46 -27.5 77.5t-71.5 31.5h-157v-218h157q44 0 71.5 31.5t27.5 77.5z" />
    <glyph glyph-name="S" unicode="S" horiz-adv-x="641" 
d="M591 217q0 -94 -71 -165.5t-192 -71.5q-90 0 -168 48t-110 141l101 42q20 -62 68 -94.5t105 -32.5q62 0 106.5 34.5t44.5 92.5q0 36 -24.5 64.5t-72.5 38.5l-133 30q-80 18 -126 75.5t-46 128.5q0 103 74 162.5t175 59.5q91 0 164.5 -49.5t97.5 -142.5l-97 -38
q-18 62 -64.5 94t-101.5 32t-93.5 -31t-38.5 -84q0 -35 21.5 -63t60.5 -37l151 -34q82 -18 125.5 -73.5t43.5 -126.5z" />
    <glyph glyph-name="T" unicode="T" horiz-adv-x="602" 
d="M582 750v-105h-221v-645h-120v645h-221v105h562z" />
    <glyph glyph-name="U" unicode="U" horiz-adv-x="760" 
d="M690 750v-475q0 -122 -91 -208.5t-219 -86.5t-219 86.5t-91 208.5v475h120v-475q0 -79 56 -134.5t134 -55.5t134 55.5t56 134.5v475h120z" />
    <glyph glyph-name="V" unicode="V" horiz-adv-x="725" 
d="M595 750h130l-301 -750h-123l-301 750h129l233 -594z" />
    <glyph glyph-name="W" unicode="W" horiz-adv-x="997" 
d="M869 750h128l-223 -750h-119l-157 545l-157 -545h-119l-222 750h128l154 -542l157 542h118l157 -543z" />
    <glyph glyph-name="X" unicode="X" horiz-adv-x="727" 
d="M436 375l291 -375h-144l-220 282l-219 -282h-144l291 375l-291 375h144l219 -282l220 282h144z" />
    <glyph glyph-name="Y" unicode="Y" horiz-adv-x="717" 
d="M573 750h144l-299 -391v-359h-120v360l-298 390h144l214 -281z" />
    <glyph glyph-name="Z" unicode="Z" horiz-adv-x="631" 
d="M591 105v-105h-551v105l393 540h-393v105h551v-105l-393 -540h393z" />
    <glyph glyph-name="bracketleft" unicode="[" horiz-adv-x="375" 
d="M315 -15v-105h-255v870h255v-105h-135v-660h135z" />
    <glyph glyph-name="backslash" unicode="\" horiz-adv-x="503" 
d="M109 821l395 -846l-109 -51l-395 846z" />
    <glyph glyph-name="bracketright" unicode="]" horiz-adv-x="375" 
d="M315 750v-870h-255v105h135v660h-135v105h255z" />
    <glyph glyph-name="underscore" unicode="_" horiz-adv-x="455" 
d="M435 -60v-105h-415v105h415z" />
    <glyph glyph-name="grave" unicode="`" 
d="M194 800l254 -144l-52 -82l-254 144z" />
    <glyph glyph-name="a" unicode="a" horiz-adv-x="610" 
d="M540 450v-450h-120v24q-55 -43 -128 -43q-95 0 -168.5 67t-73.5 177t73.5 177t168.5 67q73 0 128 -43v24h120zM420 225q0 58 -36.5 99t-88.5 41t-88.5 -41t-36.5 -99t36.5 -99t88.5 -41t88.5 41t36.5 99z" />
    <glyph glyph-name="b" unicode="b" horiz-adv-x="610" 
d="M560 225q0 -110 -73.5 -177t-168.5 -67q-73 0 -128 43v-24h-120v750h120v-324q55 43 128 43q95 0 168.5 -67t73.5 -177zM440 225q0 58 -36.5 99t-88.5 41t-88.5 -41t-36.5 -99t36.5 -99t88.5 -41t88.5 41t36.5 99z" />
    <glyph glyph-name="c" unicode="c" horiz-adv-x="547" 
d="M502 347l-101 -58q-16 35 -45.5 55.5t-65.5 20.5q-52 0 -88.5 -41t-36.5 -99t36.5 -99t88.5 -41q35 0 65 21t46 55l101 -59q-32 -56 -88.5 -89t-123.5 -33q-101 0 -173 72t-72 173t72 173t173 72q67 0 123.5 -33.5t88.5 -89.5z" />
    <glyph glyph-name="d" unicode="d" horiz-adv-x="620" 
d="M550 750v-750h-120v24q-55 -43 -128 -43q-95 0 -168.5 67t-73.5 177t73.5 177t168.5 67q73 0 128 -43v324h120zM430 225q0 58 -36.5 99t-88.5 41t-88.5 -41t-36.5 -99t36.5 -99t88.5 -41t88.5 41t36.5 99z" />
    <glyph glyph-name="e" unicode="e" 
d="M540 225q0 -24 -5 -51h-356q14 -40 45.5 -64.5t70.5 -24.5q36 0 66 21t45 56l101 -60q-32 -56 -88.5 -89t-123.5 -33q-101 0 -173 72t-72 173t72 173t173 72t173 -72t72 -173zM180 279h230q-15 38 -46 62t-69 24q-39 0 -70 -23.5t-45 -62.5z" />
    <glyph glyph-name="f" unicode="f" horiz-adv-x="348" 
d="M318 450v-105h-93v-345h-120v345h-75v105h75v182q0 59 42.5 98.5t105.5 39.5q32 0 65 -9v-106q-31 9 -49 9q-44 0 -44 -39v-175h93z" />
    <glyph glyph-name="g" unicode="g" horiz-adv-x="620" 
d="M550 450v-495q0 -100 -71.5 -167.5t-173.5 -67.5q-67 0 -123.5 33t-88.5 89l101 59q16 -34 46 -55t65 -21q53 0 89 36.5t36 93.5v69q-55 -43 -128 -43q-95 0 -168.5 67t-73.5 177t73.5 177t168.5 67q73 0 128 -43v24h120zM430 225q0 58 -36.5 99t-88.5 41t-88.5 -41
t-36.5 -99t36.5 -99t88.5 -41t88.5 41t36.5 99z" />
    <glyph glyph-name="h" unicode="h" horiz-adv-x="570" 
d="M500 284v-284h-120v279q0 36 -25 59.5t-65 23.5q-42 0 -71 -28t-29 -66v-268h-120v750h120v-323q40 43 113 43q78 0 137.5 -52.5t59.5 -133.5z" />
    <glyph glyph-name="i" unicode="i" horiz-adv-x="260" 
d="M190 750v-130h-120v130h120zM190 450v-450h-120v450h120z" />
    <glyph glyph-name="j" unicode="j" horiz-adv-x="258" 
d="M188 750v-130h-120v130h120zM188 450v-592q0 -60 -42.5 -99t-105.5 -39q-32 0 -65 9v106q32 -9 49 -9q44 0 44 39v585h120z" />
    <glyph glyph-name="k" unicode="k" horiz-adv-x="504" 
d="M290 225l189 -225h-152l-137 164v-164h-120v750h120v-464l137 164h152z" />
    <glyph glyph-name="l" unicode="l" horiz-adv-x="260" 
d="M190 750v-750h-120v750h120z" />
    <glyph glyph-name="m" unicode="m" horiz-adv-x="774" 
d="M704 304v-304h-120v297q0 33 -19.5 50.5t-46.5 17.5q-28 0 -49.5 -18.5t-21.5 -50.5v-296h-120v301q0 31 -19 47.5t-45 16.5q-29 0 -51 -18.5t-22 -50.5v-296h-120v450h120v-23q40 43 99 43q62 0 108 -46q50 47 124 47q73 0 128 -45.5t55 -121.5z" />
    <glyph glyph-name="n" unicode="n" horiz-adv-x="570" 
d="M500 284v-284h-120v279q0 36 -25 59.5t-65 23.5q-42 0 -71 -28t-29 -66v-268h-120v450h120v-23q40 43 113 43q78 0 137.5 -52.5t59.5 -133.5z" />
    <glyph glyph-name="o" unicode="o" 
d="M540 225q0 -101 -72 -173t-173 -72t-173 72t-72 173t72 173t173 72t173 -72t72 -173zM420 225q0 58 -36.5 99t-88.5 41t-88.5 -41t-36.5 -99t36.5 -99t88.5 -41t88.5 41t36.5 99z" />
    <glyph glyph-name="p" unicode="p" horiz-adv-x="610" 
d="M560 225q0 -110 -73.5 -177t-168.5 -67q-73 0 -128 43v-294h-120v720h120v-24q55 43 128 43q95 0 168.5 -67t73.5 -177zM440 225q0 58 -36.5 99t-88.5 41t-88.5 -41t-36.5 -99t36.5 -99t88.5 -41t88.5 41t36.5 99z" />
    <glyph glyph-name="q" unicode="q" horiz-adv-x="610" 
d="M540 450v-720h-120v294q-55 -43 -128 -43q-95 0 -168.5 67t-73.5 177t73.5 177t168.5 67q73 0 128 -43v24h120zM420 225q0 58 -36.5 99t-88.5 41t-88.5 -41t-36.5 -99t36.5 -99t88.5 -41t88.5 41t36.5 99z" />
    <glyph glyph-name="r" unicode="r" horiz-adv-x="378" 
d="M333 465v-107q-33 10 -63 10q-46 0 -75.5 -29t-29.5 -70v-269h-120v450h120v-23q39 43 109 43q26 0 59 -5z" />
    <glyph glyph-name="s" unicode="s" horiz-adv-x="473" 
d="M433 349l-96 -42q-12 31 -39.5 48t-58.5 17q-27 0 -46 -13.5t-19 -36.5q0 -27 37 -36l88 -19q61 -14 97.5 -43.5t36.5 -92.5q0 -71 -56 -111.5t-133 -40.5q-69 0 -126.5 35t-77.5 99l96 35q15 -34 44.5 -51.5t62.5 -17.5q31 0 52.5 14.5t21.5 39.5q0 24 -37 33l-88 19
q-59 13 -95.5 43.5t-36.5 94.5q0 70 52.5 108.5t126.5 38.5q65 0 120 -31.5t74 -89.5z" />
    <glyph glyph-name="t" unicode="t" horiz-adv-x="340" 
d="M310 450v-105h-80v-345h-120v345h-80v105h80v300h120v-300h80z" />
    <glyph glyph-name="u" unicode="u" horiz-adv-x="570" 
d="M500 450v-450h-120v23q-40 -43 -113 -43q-77 0 -137 54.5t-60 136.5v279h120v-279q0 -36 25 -59.5t65 -23.5q42 0 71 28t29 66v268h120z" />
    <glyph glyph-name="v" unicode="v" horiz-adv-x="519" 
d="M391 450h128l-202 -450h-115l-202 450h128l132 -312z" />
    <glyph glyph-name="w" unicode="w" horiz-adv-x="732" 
d="M608 450h124l-162 -450h-112l-92 290l-92 -290h-112l-162 450h124l94 -286l90 286h116l90 -286z" />
    <glyph glyph-name="x" unicode="x" horiz-adv-x="514" 
d="M327 225l187 -225h-141l-116 143l-116 -143h-141l187 225l-187 225h141l116 -143l116 143h141z" />
    <glyph glyph-name="y" unicode="y" horiz-adv-x="518" 
d="M393 450h129l-285 -632q-42 -98 -144 -98q-50 0 -95 25v105q42 -26 84 -26q41 0 56 33l65 150l-199 443h129l129 -306z" />
    <glyph glyph-name="z" unicode="z" horiz-adv-x="527" 
d="M467 105v-105h-407v105l239 240h-236v105h399v-105l-239 -240h244z" />
    <glyph glyph-name="braceleft" unicode="{" horiz-adv-x="363" 
d="M333 -15v-105h-37q-81 0 -134.5 49.5t-53.5 128.5v122q0 36 -21 59.5t-52 23.5h-5v105h5q31 0 52 23.5t21 59.5v121q0 79 53.5 128.5t134.5 49.5h37v-105h-37q-31 0 -49.5 -18.5t-18.5 -54.5v-121q0 -86 -68 -136q68 -48 68 -135v-122q0 -36 18.5 -54.5t49.5 -18.5h37z
" />
    <glyph glyph-name="bar" unicode="|" horiz-adv-x="375" 
d="M247 750v-870h-120v870h120z" />
    <glyph glyph-name="braceright" unicode="}" horiz-adv-x="363" 
d="M333 368v-105h-5q-31 0 -52 -23.5t-21 -59.5v-122q0 -79 -53.5 -128.5t-134.5 -49.5h-37v105h37q31 0 49.5 18.5t18.5 54.5v122q0 87 68 135q-68 50 -68 136v121q0 36 -18.5 54.5t-49.5 18.5h-37v105h37q81 0 134.5 -49.5t53.5 -128.5v-121q0 -36 21 -59.5t52 -23.5h5z
" />
    <glyph glyph-name="nbspace" unicode="&#xa0;" horiz-adv-x="200" 
 />
    <glyph glyph-name="exclamdown" unicode="&#xa1;" horiz-adv-x="292" 
d="M206 750v-172h-120v172h120zM206 493v-493h-120v493h120z" />
    <glyph glyph-name="cent" unicode="&#xa2;" horiz-adv-x="547" 
d="M502 347l-101 -58q-16 35 -45.5 55.5t-65.5 20.5q-52 0 -88.5 -41t-36.5 -99t36.5 -99t88.5 -41q35 0 65 21t46 55l101 -59q-52 -89 -152 -115v-127h-120v127q-80 20 -132.5 86.5t-52.5 151.5t52.5 151.5t132.5 86.5v126h120v-126q102 -27 152 -116z" />
    <glyph glyph-name="sterling" unicode="&#xa3;" horiz-adv-x="601" 
d="M532 584l-105 -42q-14 53 -44.5 88t-80.5 35q-46 0 -67 -26t-21 -68q0 -24 6 -48l22 -96h228v-105h-204l50 -217h204v-105h-450v105h129l-49 217h-80v105h56l-22 94q-6 30 -6 57q0 85 56.5 138.5t151.5 53.5q79 0 142.5 -46.5t83.5 -139.5z" />
    <glyph glyph-name="yen" unicode="&#xa5;" horiz-adv-x="721" 
d="M552 750h144l-206 -270h146v-105h-216v-95h216v-105h-216v-175h-120v175h-214v105h214v95h-214v105h145l-206 270h144l191 -251z" />
    <glyph glyph-name="section" unicode="&#xa7;" horiz-adv-x="890" 
d="M840 375q0 -163 -116 -279t-279 -116t-279 116t-116 279t116 279t279 116q122 0 221 -67.5t144 -176.5l-108 -45q-30 82 -100 133t-156 51q-114 0 -194.5 -85t-80.5 -205t80.5 -205t194.5 -85q100 0 176.5 67.5t94.5 169.5h-272v105h391q4 -23 4 -52z" />
    <glyph glyph-name="dieresis" unicode="&#xa8;" horiz-adv-x="589" 
d="M457 750v-125h-106v125h106zM237 750v-125h-106v125h106z" />
    <glyph glyph-name="copyright" unicode="&#xa9;" horiz-adv-x="890" 
d="M840 375q0 -163 -116 -279t-279 -116t-279 116t-116 279t116 279t279 116t279 -116t116 -279zM721 375q0 120 -80.5 205t-194.5 85t-194.5 -85t-80.5 -205t80.5 -205t194.5 -85t194.5 85t80.5 205zM645 485l-93 -58q-13 35 -39.5 56.5t-61.5 21.5q-51 0 -80.5 -35.5
t-29.5 -94.5t29.5 -94.5t80.5 -35.5q35 0 61.5 22t39.5 56l93 -59q-28 -57 -78 -90.5t-116 -33.5q-101 0 -165.5 66.5t-64.5 168.5t64.5 168.5t165.5 66.5q131 0 194 -125z" />
    <glyph glyph-name="guillemotleft" unicode="&#xab;" horiz-adv-x="579" 
d="M449 250l100 -101l-74 -74l-175 174l175 175l74 -74zM179 250l100 -101l-74 -74l-175 174l175 175l74 -74z" />
    <glyph glyph-name="macron" unicode="&#xaf;" 
d="M465 750v-105h-344v105h344z" />
    <glyph glyph-name="degree" unicode="&#xb0;" horiz-adv-x="902" 
d="M643 576q0 -80 -56.5 -136.5t-136.5 -56.5q-79 0 -135.5 56.5t-56.5 136.5t56 136.5t136 56.5t136.5 -56.5t56.5 -136.5zM548 576q0 41 -28.5 72t-69.5 31q-40 0 -68.5 -31t-28.5 -72t28.5 -72t68.5 -31q41 0 69.5 31t28.5 72z" />
    <glyph glyph-name="acute" unicode="&#xb4;" 
d="M396 800l52 -82l-254 -144l-52 82z" />
    <glyph glyph-name="cedilla" unicode="&#xb8;" horiz-adv-x="547" 
d="M378 -134q0 -47 -32.5 -76.5t-75.5 -29.5q-71 0 -103 67l64 39q18 -31 42 -31q13 0 20.5 8.5t7.5 19.5q0 10 -6 16.5t-14 6.5q-14 0 -23 -19l-66 51l101 130l65 -51l-36 -46q56 -26 56 -85z" />
    <glyph glyph-name="guillemotright" unicode="&#xbb;" horiz-adv-x="579" 
d="M374 424l175 -175l-175 -174l-74 74l100 100l-100 101zM104 424l175 -175l-175 -174l-74 74l100 100l-100 101z" />
    <glyph glyph-name="questiondown" unicode="&#xbf;" horiz-adv-x="611" 
d="M434 770v-172h-120v172h120zM464 230l97 -38q-24 -94 -97.5 -143t-163.5 -49q-118 0 -184.5 67t-66.5 156q0 71 44 127t126 75q43 9 66.5 32.5t28.5 55.5h117q-7 -154 -184 -194q-39 -9 -60 -37t-21 -63q0 -47 35 -81t98 -34q54 0 100.5 32t64.5 94z" />
    <glyph glyph-name="Agrave" unicode="&#xc0;" horiz-adv-x="717" 
d="M230 989l278 -95l-34 -89l-278 95zM420 750l297 -750h-130l-75 194h-308l-75 -194h-129l297 750h123zM244 298h228l-114 294z" />
    <glyph glyph-name="Aacute" unicode="&#xc1;" horiz-adv-x="717" 
d="M474 989l34 -89l-278 -95l-34 89zM420 750l297 -750h-130l-75 194h-308l-75 -194h-129l297 750h123zM244 298h228l-114 294z" />
    <glyph glyph-name="Acircumflex" unicode="&#xc2;" horiz-adv-x="717" 
d="M345 980l179 -90l-45 -83l-134 66l-134 -66l-46 83zM420 750l297 -750h-130l-75 194h-308l-75 -194h-129l297 750h123zM244 298h228l-114 294z" />
    <glyph glyph-name="Atilde" unicode="&#xc3;" horiz-adv-x="717" 
d="M420 750l297 -750h-130l-75 194h-308l-75 -194h-129l297 750h123zM244 298h228l-114 294zM438 960h85q0 -54 -33.5 -88t-82.5 -34q-29 0 -50.5 8.5t-31 18.5t-21.5 18.5t-25 8.5t-22 -11t-9 -33h-85q0 54 33.5 88.5t82.5 34.5q29 0 50.5 -8.5t31 -18.5t21.5 -18.5
t25 -8.5q31 0 31 43z" />
    <glyph glyph-name="Adieresis" unicode="&#xc4;" horiz-adv-x="717" 
d="M420 750l297 -750h-130l-75 194h-308l-75 -194h-129l297 750h123zM244 298h228l-114 294zM521 944v-125h-106v125h106zM301 944v-125h-106v125h106z" />
    <glyph glyph-name="Aring" unicode="&#xc5;" horiz-adv-x="717" 
d="M460 830q0 -42 -29.5 -71.5t-72.5 -29.5q-42 0 -71.5 29.5t-29.5 71.5q0 43 29.5 72.5t71.5 29.5q43 0 72.5 -29.5t29.5 -72.5zM405 830q0 20 -13.5 33.5t-33.5 13.5q-19 0 -32.5 -14t-13.5 -33t13.5 -32.5t32.5 -13.5t33 13.5t14 32.5zM420 750l297 -750h-130l-75 194
h-308l-75 -194h-129l297 750h123zM244 298h228l-114 294z" />
    <glyph glyph-name="AE" unicode="&#xc6;" horiz-adv-x="1005" 
d="M980 105v-105h-435v194h-273l-112 -194h-135l440 750h515v-105h-315v-218h286v-105h-286v-217h315zM332 298h213v369z" />
    <glyph glyph-name="Ccedilla" unicode="&#xc7;" horiz-adv-x="850" 
d="M805 526l-108 -45q-30 82 -100 133t-156 51q-114 0 -194.5 -85t-80.5 -205t80.5 -205t194.5 -85q86 0 156 51t100 133l108 -45q-45 -109 -144 -176.5t-221 -67.5q-164 0 -279.5 116t-115.5 279t115.5 279t279.5 116q122 0 221 -67.5t144 -176.5zM548 -134
q0 -47 -32.5 -76.5t-75.5 -29.5q-71 0 -103 67l64 39q18 -31 42 -31q13 0 20.5 8.5t7.5 19.5q0 10 -6 16.5t-14 6.5q-14 0 -23 -19l-66 51l101 130l65 -51l-36 -46q56 -26 56 -85z" />
    <glyph glyph-name="Egrave" unicode="&#xc8;" horiz-adv-x="565" 
d="M160 989l278 -95l-34 -89l-278 95zM505 105v-105h-435v750h435v-105h-315v-218h286v-105h-286v-217h315z" />
    <glyph glyph-name="Eacute" unicode="&#xc9;" horiz-adv-x="565" 
d="M404 989l34 -89l-278 -95l-34 89zM505 105v-105h-435v750h435v-105h-315v-218h286v-105h-286v-217h315z" />
    <glyph glyph-name="Ecircumflex" unicode="&#xca;" horiz-adv-x="565" 
d="M285 980l179 -90l-45 -83l-134 66l-134 -66l-46 83zM505 105v-105h-435v750h435v-105h-315v-218h286v-105h-286v-217h315z" />
    <glyph glyph-name="Edieresis" unicode="&#xcb;" horiz-adv-x="565" 
d="M505 105v-105h-435v750h435v-105h-315v-218h286v-105h-286v-217h315zM440 944v-125h-106v125h106zM220 944v-125h-106v125h106z" />
    <glyph glyph-name="Igrave" unicode="&#xcc;" horiz-adv-x="260" 
d="M8 989l278 -95l-34 -89l-278 95zM190 750v-750h-120v750h120z" />
    <glyph glyph-name="Iacute" unicode="&#xcd;" horiz-adv-x="260" 
d="M252 989l34 -89l-278 -95l-34 89zM190 750v-750h-120v750h120z" />
    <glyph glyph-name="Icircumflex" unicode="&#xce;" horiz-adv-x="260" 
d="M132 980l179 -90l-45 -83l-134 66l-135 -66l-46 83zM192 750v-750h-120v750h120z" />
    <glyph glyph-name="Idieresis" unicode="&#xcf;" horiz-adv-x="260" 
d="M192 750v-750h-120v750h120zM295 944v-125h-106v125h106zM75 944v-125h-106v125h106z" />
    <glyph glyph-name="Eth" unicode="&#xd0;" horiz-adv-x="815" 
d="M755 375q0 -155 -110 -265t-265 -110h-265v326h-95v105h95v319h265q155 0 265 -110t110 -265zM635 375q0 112 -79 191t-191 79h-130v-214h95v-105h-95v-221h130q112 0 191 79t79 191z" />
    <glyph glyph-name="Ntilde" unicode="&#xd1;" horiz-adv-x="725" 
d="M456 960h85q0 -54 -33 -88t-83 -34q-38 0 -61 13.5t-37 27t-29 13.5q-32 0 -32 -44h-85q0 54 33.5 88.5t82.5 34.5q29 0 50.5 -8.5t31 -18.5t21.5 -18.5t25 -8.5q31 0 31 43zM655 750v-750h-120l-345 540v-540h-120v750h120l345 -541v541h120z" />
    <glyph glyph-name="Ograve" unicode="&#xd2;" horiz-adv-x="890" 
d="M330 989l278 -95l-34 -89l-278 95zM840 375q0 -163 -116 -279t-279 -116t-279 116t-116 279t116 279t279 116t279 -116t116 -279zM721 375q0 120 -80.5 205t-194.5 85t-194.5 -85t-80.5 -205t80.5 -205t194.5 -85t194.5 85t80.5 205z" />
    <glyph glyph-name="Oacute" unicode="&#xd3;" horiz-adv-x="890" 
d="M554 989l34 -89l-278 -95l-34 89zM840 375q0 -163 -116 -279t-279 -116t-279 116t-116 279t116 279t279 116t279 -116t116 -279zM721 375q0 120 -80.5 205t-194.5 85t-194.5 -85t-80.5 -205t80.5 -205t194.5 -85t194.5 85t80.5 205z" />
    <glyph glyph-name="Ocircumflex" unicode="&#xd4;" horiz-adv-x="890" 
d="M443 980l179 -90l-45 -83l-134 66l-134 -66l-46 83zM840 375q0 -163 -116 -279t-279 -116t-279 116t-116 279t116 279t279 116t279 -116t116 -279zM721 375q0 120 -80.5 205t-194.5 85t-194.5 -85t-80.5 -205t80.5 -205t194.5 -85t194.5 85t80.5 205z" />
    <glyph glyph-name="Otilde" unicode="&#xd5;" horiz-adv-x="890" 
d="M556 960h85q0 -54 -33 -88t-83 -34q-38 0 -61 13.5t-37 27t-29 13.5q-32 0 -32 -44h-85q0 54 33.5 88.5t82.5 34.5q29 0 50.5 -8.5t31 -18.5t21.5 -18.5t25 -8.5q31 0 31 43zM840 375q0 -163 -116 -279t-279 -116t-279 116t-116 279t116 279t279 116t279 -116t116 -279z
M721 375q0 120 -80.5 205t-194.5 85t-194.5 -85t-80.5 -205t80.5 -205t194.5 -85t194.5 85t80.5 205z" />
    <glyph glyph-name="Odieresis" unicode="&#xd6;" horiz-adv-x="890" 
d="M840 375q0 -163 -116 -279t-279 -116t-279 116t-116 279t116 279t279 116t279 -116t116 -279zM721 375q0 120 -80.5 205t-194.5 85t-194.5 -85t-80.5 -205t80.5 -205t194.5 -85t194.5 85t80.5 205zM613 944v-125h-106v125h106zM393 944v-125h-106v125h106z" />
    <glyph glyph-name="multiply" unicode="&#xd7;" horiz-adv-x="630" 
d="M395 380l157 -157l-85 -85l-157 157l-152 -152l-74 74l152 152l-158 158l85 85l158 -158l152 152l74 -74z" />
    <glyph glyph-name="Oslash" unicode="&#xd8;" horiz-adv-x="890" 
d="M840 375q0 -163 -116 -279t-279 -116q-59 0 -111 16l-32 -72l-99 47l32 70q-85 54 -135 142t-50 192q0 163 116 279t279 116q55 0 113 -16l33 72l99 -47l-33 -71q84 -53 133.5 -141.5t49.5 -191.5zM721 375q0 70 -29.5 131t-80.5 101l-232 -513q31 -9 67 -9
q114 0 194.5 85t80.5 205zM281 143l232 513q-32 9 -67 9q-114 0 -194.5 -85t-80.5 -205q0 -70 29.5 -131t80.5 -101z" />
    <glyph glyph-name="Ugrave" unicode="&#xd9;" horiz-adv-x="760" 
d="M250 989l278 -95l-34 -89l-278 95zM690 750v-475q0 -122 -91 -208.5t-219 -86.5t-219 86.5t-91 208.5v475h120v-475q0 -79 56 -134.5t134 -55.5t134 55.5t56 134.5v475h120z" />
    <glyph glyph-name="Uacute" unicode="&#xda;" horiz-adv-x="760" 
d="M494 989l34 -89l-278 -95l-34 89zM690 750v-475q0 -122 -91 -208.5t-219 -86.5t-219 86.5t-91 208.5v475h120v-475q0 -79 56 -134.5t134 -55.5t134 55.5t56 134.5v475h120z" />
    <glyph glyph-name="Ucircumflex" unicode="&#xdb;" horiz-adv-x="760" 
d="M383 980l179 -90l-45 -83l-134 66l-134 -66l-46 83zM690 750v-475q0 -122 -91 -208.5t-219 -86.5t-219 86.5t-91 208.5v475h120v-475q0 -79 56 -134.5t134 -55.5t134 55.5t56 134.5v475h120z" />
    <glyph glyph-name="Udieresis" unicode="&#xdc;" horiz-adv-x="760" 
d="M690 750v-475q0 -122 -91 -208.5t-219 -86.5t-219 86.5t-91 208.5v475h120v-475q0 -79 56 -134.5t134 -55.5t134 55.5t56 134.5v475h120zM553 944v-125h-106v125h106zM333 944v-125h-106v125h106z" />
    <glyph glyph-name="Yacute" unicode="&#xdd;" horiz-adv-x="717" 
d="M484 989l34 -89l-278 -95l-34 89zM573 750h144l-299 -391v-359h-120v360l-298 390h144l214 -281z" />
    <glyph glyph-name="Thorn" unicode="&#xde;" horiz-adv-x="616" 
d="M566 375q0 -89 -63 -151.5t-151 -62.5h-162v-161h-120v750h120v-161h162q88 0 151 -62.5t63 -151.5zM446 375q0 46 -27.5 77.5t-71.5 31.5h-157v-218h157q44 0 71.5 31.5t27.5 77.5z" />
    <glyph glyph-name="germandbls" unicode="&#xdf;" horiz-adv-x="623" 
d="M590 128q0 -69 -48.5 -109.5t-114.5 -40.5q-56 0 -101 30.5t-63 89.5l97 35q23 -55 66 -55q20 0 34 12t14 32q0 30 -32 40l-45 14q-56 16 -87.5 47t-31.5 88q0 43 25 80.5t65 54.5q28 12 44.5 41.5t16.5 65.5q0 47 -30 80t-72 33t-71.5 -33t-29.5 -80v-553h-120v345h-74
v105h74v103q0 91 64.5 155.5t156.5 64.5q91 0 155.5 -64.5t64.5 -155.5q0 -67 -34.5 -121t-92.5 -80q-29 -14 -29 -39q0 -28 34 -39l55 -17q17 -6 33 -14.5t35 -23.5t30.5 -38.5t11.5 -52.5z" />
    <glyph glyph-name="agrave" unicode="&#xe0;" horiz-adv-x="610" 
d="M540 450v-450h-120v24q-55 -43 -128 -43q-95 0 -168.5 67t-73.5 177t73.5 177t168.5 67q73 0 128 -43v24h120zM420 225q0 58 -36.5 99t-88.5 41t-88.5 -41t-36.5 -99t36.5 -99t88.5 -41t88.5 41t36.5 99zM194 800l254 -144l-52 -82l-254 144z" />
    <glyph glyph-name="aacute" unicode="&#xe1;" horiz-adv-x="610" 
d="M540 450v-450h-120v24q-55 -43 -128 -43q-95 0 -168.5 67t-73.5 177t73.5 177t168.5 67q73 0 128 -43v24h120zM420 225q0 58 -36.5 99t-88.5 41t-88.5 -41t-36.5 -99t36.5 -99t88.5 -41t88.5 41t36.5 99zM396 800l52 -82l-254 -144l-52 82z" />
    <glyph glyph-name="acircumflex" unicode="&#xe2;" horiz-adv-x="610" 
d="M540 450v-450h-120v24q-55 -43 -128 -43q-95 0 -168.5 67t-73.5 177t73.5 177t168.5 67q73 0 128 -43v24h120zM420 225q0 58 -36.5 99t-88.5 41t-88.5 -41t-36.5 -99t36.5 -99t88.5 -41t88.5 41t36.5 99zM294 799l180 -155l-66 -71l-114 98l-114 -98l-66 71z" />
    <glyph glyph-name="atilde" unicode="&#xe3;" horiz-adv-x="610" 
d="M540 450v-450h-120v24q-55 -43 -128 -43q-95 0 -168.5 67t-73.5 177t73.5 177t168.5 67q73 0 128 -43v24h120zM420 225q0 58 -36.5 99t-88.5 41t-88.5 -41t-36.5 -99t36.5 -99t88.5 -41t88.5 41t36.5 99zM389 750h85q0 -54 -33.5 -88t-82.5 -34q-29 0 -50.5 8.5t-31 18.5
t-21.5 18.5t-25 8.5t-22 -11t-9 -33h-85q0 54 33.5 88.5t82.5 34.5q29 0 50.5 -8.5t31 -18.5t21.5 -18.5t25 -8.5q31 0 31 43z" />
    <glyph glyph-name="adieresis" unicode="&#xe4;" horiz-adv-x="610" 
d="M540 450v-450h-120v24q-55 -43 -128 -43q-95 0 -168.5 67t-73.5 177t73.5 177t168.5 67q73 0 128 -43v24h120zM420 225q0 58 -36.5 99t-88.5 41t-88.5 -41t-36.5 -99t36.5 -99t88.5 -41t88.5 41t36.5 99zM457 750v-125h-106v125h106zM237 750v-125h-106v125h106z" />
    <glyph glyph-name="aring" unicode="&#xe5;" horiz-adv-x="610" 
d="M540 450v-450h-120v24q-55 -43 -128 -43q-95 0 -168.5 67t-73.5 177t73.5 177t168.5 67q73 0 128 -43v24h120zM420 225q0 58 -36.5 99t-88.5 41t-88.5 -41t-36.5 -99t36.5 -99t88.5 -41t88.5 41t36.5 99zM405 677q0 -46 -32.5 -78.5t-78.5 -32.5t-78.5 32.5t-32.5 78.5
q0 47 32.5 79.5t78.5 32.5t78.5 -32.5t32.5 -79.5zM331 677q0 16 -11 26.5t-26 10.5t-25.5 -10.5t-10.5 -26.5q0 -15 10.5 -25.5t25.5 -10.5t26 10.5t11 25.5z" />
    <glyph glyph-name="ae" unicode="&#xe6;" horiz-adv-x="960" 
d="M910 225q0 -24 -5 -51h-356q14 -40 45.5 -64.5t70.5 -24.5q36 0 66 21t45 56l101 -60q-32 -56 -88.5 -89t-123.5 -33q-73 0 -125 42v-22h-120v24q-55 -43 -128 -43q-95 0 -168.5 67t-73.5 177t73.5 177t168.5 67q73 0 128 -43v24h120v-22q52 42 125 42q101 0 173 -72
t72 -173zM550 279h230q-15 38 -46 62t-69 24q-39 0 -70 -23.5t-45 -62.5zM420 225q0 58 -36.5 99t-88.5 41t-88.5 -41t-36.5 -99t36.5 -99t88.5 -41t88.5 41t36.5 99z" />
    <glyph glyph-name="ccedilla" unicode="&#xe7;" horiz-adv-x="547" 
d="M378 -134q0 -47 -32.5 -76.5t-75.5 -29.5q-71 0 -103 67l64 39q18 -31 42 -31q13 0 20.5 8.5t7.5 19.5q0 10 -6 16.5t-14 6.5q-14 0 -23 -19l-66 51l101 130l65 -51l-36 -46q56 -26 56 -85zM502 347l-101 -58q-16 35 -45.5 55.5t-65.5 20.5q-52 0 -88.5 -41t-36.5 -99
t36.5 -99t88.5 -41q35 0 65 21t46 55l101 -59q-32 -56 -88.5 -89t-123.5 -33q-101 0 -173 72t-72 173t72 173t173 72q67 0 123.5 -33.5t88.5 -89.5z" />
    <glyph glyph-name="egrave" unicode="&#xe8;" 
d="M540 225q0 -24 -5 -51h-356q14 -40 45.5 -64.5t70.5 -24.5q36 0 66 21t45 56l101 -60q-32 -56 -88.5 -89t-123.5 -33q-101 0 -173 72t-72 173t72 173t173 72t173 -72t72 -173zM180 279h230q-15 38 -46 62t-69 24q-39 0 -70 -23.5t-45 -62.5zM194 800l254 -144l-52 -82
l-254 144z" />
    <glyph glyph-name="eacute" unicode="&#xe9;" 
d="M540 225q0 -24 -5 -51h-356q14 -40 45.5 -64.5t70.5 -24.5q36 0 66 21t45 56l101 -60q-32 -56 -88.5 -89t-123.5 -33q-101 0 -173 72t-72 173t72 173t173 72t173 -72t72 -173zM180 279h230q-15 38 -46 62t-69 24q-39 0 -70 -23.5t-45 -62.5zM396 800l52 -82l-254 -144
l-52 82z" />
    <glyph glyph-name="ecircumflex" unicode="&#xea;" 
d="M540 225q0 -24 -5 -51h-356q14 -40 45.5 -64.5t70.5 -24.5q36 0 66 21t45 56l101 -60q-32 -56 -88.5 -89t-123.5 -33q-101 0 -173 72t-72 173t72 173t173 72t173 -72t72 -173zM180 279h230q-15 38 -46 62t-69 24q-39 0 -70 -23.5t-45 -62.5zM294 799l180 -155l-66 -71
l-114 98l-114 -98l-66 71z" />
    <glyph glyph-name="edieresis" unicode="&#xeb;" 
d="M540 225q0 -24 -5 -51h-356q14 -40 45.5 -64.5t70.5 -24.5q36 0 66 21t45 56l101 -60q-32 -56 -88.5 -89t-123.5 -33q-101 0 -173 72t-72 173t72 173t173 72t173 -72t72 -173zM180 279h230q-15 38 -46 62t-69 24q-39 0 -70 -23.5t-45 -62.5zM457 750v-125h-106v125h106z
M237 750v-125h-106v125h106z" />
    <glyph glyph-name="igrave" unicode="&#xec;" horiz-adv-x="260" 
d="M210 450v-450h-120v450h120zM29 800l254 -144l-52 -82l-254 144z" />
    <glyph glyph-name="iacute" unicode="&#xed;" horiz-adv-x="260" 
d="M190 450v-450h-120v450h120zM231 800l52 -82l-254 -144l-52 82z" />
    <glyph glyph-name="icircumflex" unicode="&#xee;" horiz-adv-x="260" 
d="M192 450v-450h-120v450h120zM129 799l180 -155l-66 -71l-114 98l-114 -98l-66 71z" />
    <glyph glyph-name="idieresis" unicode="&#xef;" horiz-adv-x="260" 
d="M188 450v-450h-120v450h120zM292 750v-125h-106v125h106zM72 750v-125h-106v125h106z" />
    <glyph glyph-name="eth" unicode="&#xf0;" 
d="M310 678l137 83v-115l-87 -53l148 -251q33 -58 33 -119q0 -97 -70.5 -170t-175.5 -73q-101 0 -173 70.5t-72 170.5t71 171t171 71h10l-41 70l-140 -86v115l90 55l-78 133h135zM417 225q0 58 -36.5 99t-88.5 41t-88.5 -41t-36.5 -99t36.5 -99t88.5 -41t88.5 41t36.5 99z
" />
    <glyph glyph-name="ntilde" unicode="&#xf1;" horiz-adv-x="570" 
d="M500 284v-284h-120v279q0 36 -25 59.5t-65 23.5q-42 0 -71 -28t-29 -66v-268h-120v450h120v-23q40 43 113 43q78 0 137.5 -52.5t59.5 -133.5zM379 750h85q0 -54 -33.5 -88t-82.5 -34q-29 0 -50.5 8.5t-31 18.5t-21.5 18.5t-25 8.5t-22 -11t-9 -33h-85q0 54 33.5 88.5
t82.5 34.5q29 0 50.5 -8.5t31 -18.5t21.5 -18.5t25 -8.5q31 0 31 43z" />
    <glyph glyph-name="ograve" unicode="&#xf2;" 
d="M194 800l254 -144l-52 -82l-254 144zM540 225q0 -101 -72 -173t-173 -72t-173 72t-72 173t72 173t173 72t173 -72t72 -173zM420 225q0 58 -36.5 99t-88.5 41t-88.5 -41t-36.5 -99t36.5 -99t88.5 -41t88.5 41t36.5 99z" />
    <glyph glyph-name="oacute" unicode="&#xf3;" 
d="M396 800l52 -82l-254 -144l-52 82zM540 225q0 -101 -72 -173t-173 -72t-173 72t-72 173t72 173t173 72t173 -72t72 -173zM420 225q0 58 -36.5 99t-88.5 41t-88.5 -41t-36.5 -99t36.5 -99t88.5 -41t88.5 41t36.5 99z" />
    <glyph glyph-name="ocircumflex" unicode="&#xf4;" 
d="M540 225q0 -101 -72 -173t-173 -72t-173 72t-72 173t72 173t173 72t173 -72t72 -173zM420 225q0 58 -36.5 99t-88.5 41t-88.5 -41t-36.5 -99t36.5 -99t88.5 -41t88.5 41t36.5 99zM294 799l180 -155l-66 -71l-114 98l-114 -98l-66 71z" />
    <glyph glyph-name="otilde" unicode="&#xf5;" 
d="M389 750h85q0 -54 -33.5 -88t-82.5 -34q-29 0 -50.5 8.5t-31 18.5t-21.5 18.5t-25 8.5t-22 -11t-9 -33h-85q0 54 33.5 88.5t82.5 34.5q29 0 50.5 -8.5t31 -18.5t21.5 -18.5t25 -8.5q31 0 31 43zM540 225q0 -101 -72 -173t-173 -72t-173 72t-72 173t72 173t173 72t173 -72
t72 -173zM420 225q0 58 -36.5 99t-88.5 41t-88.5 -41t-36.5 -99t36.5 -99t88.5 -41t88.5 41t36.5 99z" />
    <glyph glyph-name="odieresis" unicode="&#xf6;" 
d="M457 750v-125h-106v125h106zM237 750v-125h-106v125h106zM540 225q0 -101 -72 -173t-173 -72t-173 72t-72 173t72 173t173 72t173 -72t72 -173zM420 225q0 58 -36.5 99t-88.5 41t-88.5 -41t-36.5 -99t36.5 -99t88.5 -41t88.5 41t36.5 99z" />
    <glyph glyph-name="divide" unicode="&#xf7;" horiz-adv-x="630" 
d="M375 650v-130h-120v130h120zM590 427v-105h-550v105h550zM375 230v-130h-120v130h120z" />
    <glyph glyph-name="oslash" unicode="&#xf8;" 
d="M540 225q0 -101 -72 -173t-173 -72q-22 0 -49 5l-28 -61l-99 47l27 59q-44 34 -70 85.5t-26 109.5q0 101 72 173t173 72q22 0 49 -5l28 61l99 -47l-27 -59q44 -34 70 -85.5t26 -109.5zM420 225q0 47 -26 86l-103 -226h4q52 -1 88.5 40.5t36.5 99.5zM196 140l102 225h-3
q-52 1 -88.5 -40.5t-36.5 -99.5q0 -48 26 -85z" />
    <glyph glyph-name="ugrave" unicode="&#xf9;" horiz-adv-x="570" 
d="M500 450v-450h-120v23q-40 -43 -113 -43q-77 0 -137 54.5t-60 136.5v279h120v-279q0 -36 25 -59.5t65 -23.5q42 0 71 28t29 66v268h120zM184 800l254 -144l-52 -82l-254 144z" />
    <glyph glyph-name="uacute" unicode="&#xfa;" horiz-adv-x="570" 
d="M500 450v-450h-120v23q-40 -43 -113 -43q-77 0 -137 54.5t-60 136.5v279h120v-279q0 -36 25 -59.5t65 -23.5q42 0 71 28t29 66v268h120zM396 800l52 -82l-254 -144l-52 82z" />
    <glyph glyph-name="ucircumflex" unicode="&#xfb;" horiz-adv-x="570" 
d="M500 450v-450h-120v23q-40 -43 -113 -43q-77 0 -137 54.5t-60 136.5v279h120v-279q0 -36 25 -59.5t65 -23.5q42 0 71 28t29 66v268h120zM287 799l180 -155l-66 -71l-114 98l-114 -98l-66 71z" />
    <glyph glyph-name="udieresis" unicode="&#xfc;" horiz-adv-x="570" 
d="M500 450v-450h-120v23q-40 -43 -113 -43q-77 0 -137 54.5t-60 136.5v279h120v-279q0 -36 25 -59.5t65 -23.5q42 0 71 28t29 66v268h120zM457 750v-125h-106v125h106zM237 750v-125h-106v125h106z" />
    <glyph glyph-name="yacute" unicode="&#xfd;" horiz-adv-x="518" 
d="M394 450h129l-285 -632q-42 -98 -144 -98q-50 0 -95 25v105q42 -26 84 -26q41 0 56 33l65 150l-199 443h129l129 -306zM377 800l52 -82l-254 -144l-52 82z" />
    <glyph glyph-name="thorn" unicode="&#xfe;" horiz-adv-x="610" 
d="M560 225q0 -110 -73.5 -177t-168.5 -67q-73 0 -128 43v-294h-120v1020h120v-324q55 43 128 43q95 0 168.5 -67t73.5 -177zM440 225q0 58 -36.5 99t-88.5 41t-88.5 -41t-36.5 -99t36.5 -99t88.5 -41t88.5 41t36.5 99z" />
    <glyph glyph-name="ydieresis" unicode="&#xff;" horiz-adv-x="518" 
d="M393 450h129l-285 -632q-42 -98 -144 -98q-50 0 -95 25v105q42 -26 84 -26q41 0 56 33l65 150l-199 443h129l129 -306zM437 750v-125h-106v125h106zM217 750v-125h-106v125h106z" />
    <glyph glyph-name="dotlessi" unicode="&#x131;" horiz-adv-x="260" 
d="M190 450v-450h-120v450h120z" />
    <glyph glyph-name="Lslash" unicode="&#x141;" horiz-adv-x="633" 
d="M346 530v-115l-103 -62v-248h335v-105h-455v279l-103 -63v115l103 63v356h120v-282z" />
    <glyph glyph-name="lslash" unicode="&#x142;" horiz-adv-x="366" 
d="M346 530v-115l-103 -62v-353h-120v279l-103 -63v115l103 63v356h120v-282z" />
    <glyph glyph-name="OE" unicode="&#x152;" horiz-adv-x="1206" 
d="M1156 105v-105h-435v92q-115 -112 -276 -112q-163 0 -279 116t-116 279t116 279t279 116q161 0 276 -112v92h435v-105h-315v-218h286v-105h-286v-217h315zM721 375q0 120 -80.5 205t-194.5 85t-194.5 -85t-80.5 -205t80.5 -205t194.5 -85t194.5 85t80.5 205z" />
    <glyph glyph-name="oe" unicode="&#x153;" horiz-adv-x="960" 
d="M910 225q0 -24 -5 -51h-356q14 -40 45.5 -64.5t70.5 -24.5q36 0 66 21t45 56l101 -60q-32 -56 -88.5 -89t-123.5 -33q-111 0 -185 84q-74 -84 -185 -84q-101 0 -173 72t-72 173t72 173t173 72q111 0 185 -84q74 84 185 84q101 0 173 -72t72 -173zM550 279h230
q-15 38 -46 62t-69 24q-39 0 -70 -23.5t-45 -62.5zM420 225q0 58 -36.5 99t-88.5 41t-88.5 -41t-36.5 -99t36.5 -99t88.5 -41t88.5 41t36.5 99z" />
    <glyph glyph-name="Scaron" unicode="&#x160;" horiz-adv-x="641" 
d="M467 980l45 -83l-179 -90l-180 90l46 83l134 -66zM591 217q0 -94 -71 -165.5t-192 -71.5q-90 0 -168 48t-110 141l101 42q20 -62 68 -94.5t105 -32.5q62 0 106.5 34.5t44.5 92.5q0 36 -24.5 64.5t-72.5 38.5l-133 30q-80 18 -126 75.5t-46 128.5q0 103 74 162.5t175 59.5
q91 0 164.5 -49.5t97.5 -142.5l-97 -38q-18 62 -64.5 94t-101.5 32t-93.5 -31t-38.5 -84q0 -35 21.5 -63t60.5 -37l151 -34q82 -18 125.5 -73.5t43.5 -126.5z" />
    <glyph glyph-name="scaron" unicode="&#x161;" horiz-adv-x="473" 
d="M433 349l-96 -42q-12 31 -39.5 48t-58.5 17q-27 0 -46 -13.5t-19 -36.5q0 -27 37 -36l88 -19q61 -14 97.5 -43.5t36.5 -92.5q0 -71 -56 -111.5t-133 -40.5q-69 0 -126.5 35t-77.5 99l96 35q15 -34 44.5 -51.5t62.5 -17.5q31 0 52.5 14.5t21.5 39.5q0 24 -37 33l-88 19
q-59 13 -95.5 43.5t-36.5 94.5q0 70 52.5 108.5t126.5 38.5q65 0 120 -31.5t74 -89.5zM358 799l66 -71l-180 -155l-180 155l66 71l114 -98z" />
    <glyph glyph-name="Ydieresis" unicode="&#x178;" horiz-adv-x="717" 
d="M573 750h144l-299 -391v-359h-120v360l-298 390h144l214 -281zM523 944v-125h-106v125h106zM303 944v-125h-106v125h106z" />
    <glyph glyph-name="Zcaron" unicode="&#x17d;" horiz-adv-x="631" 
d="M467 980l45 -83l-179 -90l-180 90l46 83l134 -66zM591 105v-105h-551v105l393 540h-393v105h551v-105l-393 -540h393z" />
    <glyph glyph-name="zcaron" unicode="&#x17e;" horiz-adv-x="527" 
d="M467 105v-105h-407v105l239 240h-236v105h399v-105l-239 -240h244zM388 799l66 -71l-180 -155l-180 155l66 71l114 -98z" />
    <glyph glyph-name="circumflex" unicode="&#x2c6;" horiz-adv-x="589" 
d="M294 799l180 -155l-66 -71l-114 98l-114 -98l-66 71z" />
    <glyph glyph-name="caron" unicode="&#x2c7;" horiz-adv-x="589" 
d="M408 799l66 -71l-180 -155l-180 155l66 71l114 -98z" />
    <glyph glyph-name="breve" unicode="&#x2d8;" horiz-adv-x="589" 
d="M390 765l83 -47q-29 -53 -75.5 -83t-103.5 -30q-56 0 -102.5 30.5t-75.5 82.5l82 47q36 -68 96 -68q62 0 96 68z" />
    <glyph glyph-name="dotaccent" unicode="&#x2d9;" 
d="M367 774v-130h-120v130h120z" />
    <glyph glyph-name="ring" unicode="&#x2da;" 
d="M405 677q0 -46 -32.5 -78.5t-78.5 -32.5t-78.5 32.5t-32.5 78.5q0 47 32.5 79.5t78.5 32.5t78.5 -32.5t32.5 -79.5zM331 677q0 16 -11 26.5t-26 10.5t-25.5 -10.5t-10.5 -26.5q0 -15 10.5 -25.5t25.5 -10.5t26 10.5t11 25.5z" />
    <glyph glyph-name="ogonek" unicode="&#x2db;" horiz-adv-x="580" 
d="M329 -186l-48 -82q-52 29 -82 75.5t-30 102.5q0 115 112 179l48 -83q-68 -34 -68 -96q0 -60 68 -96z" />
    <glyph glyph-name="tilde" unicode="&#x2dc;" 
d="M389 750h85q0 -54 -33.5 -88t-82.5 -34q-29 0 -50.5 8.5t-31 18.5t-21.5 18.5t-25 8.5t-22 -11t-9 -33h-85q0 54 33.5 88.5t82.5 34.5q29 0 50.5 -8.5t31 -18.5t21.5 -18.5t25 -8.5q31 0 31 43z" />
    <glyph glyph-name="hungarumlaut" unicode="&#x2dd;" horiz-adv-x="598" 
d="M456 815l87 -61l-126 -179l-87 60zM196 815l87 -61l-126 -179l-87 60z" />
    <glyph glyph-name="endash" unicode="&#x2013;" horiz-adv-x="535" 
d="M475 327v-105h-415v105h415z" />
    <glyph glyph-name="emdash" unicode="&#x2014;" horiz-adv-x="870" 
d="M810 327v-105h-750v105h750z" />
    <glyph glyph-name="quoteleft" unicode="&#x2018;" horiz-adv-x="301" 
d="M102 770l199 -274l-102 -69l-199 274z" />
    <glyph glyph-name="quoteright" unicode="&#x2019;" horiz-adv-x="301" 
d="M199 770l102 -69l-199 -274l-102 69z" />
    <glyph glyph-name="quotesinglbase" unicode="&#x201a;" horiz-adv-x="313" 
d="M199 201l102 -69l-199 -274l-102 69z" />
    <glyph glyph-name="quotedblleft" unicode="&#x201c;" horiz-adv-x="531" 
d="M332 770l199 -274l-102 -69l-199 274zM102 770l199 -274l-102 -69l-199 274z" />
    <glyph glyph-name="quotedblright" unicode="&#x201d;" horiz-adv-x="531" 
d="M429 770l102 -69l-199 -274l-102 69zM199 770l102 -69l-199 -274l-102 69z" />
    <glyph glyph-name="quotedblbase" unicode="&#x201e;" horiz-adv-x="543" 
d="M429 201l102 -69l-199 -274l-102 69zM199 201l102 -69l-199 -274l-102 69z" />
    <glyph glyph-name="dagger" unicode="&#x2020;" horiz-adv-x="520" 
d="M470 450v-105h-150v-445h-120v445h-150v105h150v200h120v-200h150z" />
    <glyph glyph-name="daggerdbl" unicode="&#x2021;" horiz-adv-x="520" 
d="M470 205v-105h-150v-200h-120v200h-150v105h150v140h-150v105h150v200h120v-200h150v-105h-150v-140h150z" />
    <glyph glyph-name="bullet" unicode="&#x2022;" horiz-adv-x="465" 
d="M426 374q0 -80 -57 -136.5t-136 -56.5q-80 0 -136.5 56.5t-56.5 136.5t56.5 136.5t136.5 56.5t136.5 -56.5t56.5 -136.5z" />
    <glyph glyph-name="ellipsis" unicode="&#x2026;" horiz-adv-x="820" 
d="M750 172v-172h-120v172h120zM470 172v-172h-120v172h120zM190 172v-172h-120v172h120z" />
    <glyph glyph-name="perthousand" unicode="&#x2030;" horiz-adv-x="1322" 
d="M1283 173q0 -79 -56.5 -136t-136.5 -57t-136.5 56.5t-56.5 136.5t56.5 136.5t136.5 56.5t136.5 -56.5t56.5 -136.5zM863 173q0 -79 -56.5 -136t-136.5 -57t-136.5 56.5t-56.5 136.5t56.5 136.5t136.5 56.5t136.5 -56.5t56.5 -136.5zM617 770l92 -52l-426 -738l-92 52z
M426 576q0 -80 -57 -136.5t-136 -56.5q-80 0 -136.5 56.5t-56.5 136.5t56.5 136.5t136.5 56.5t136.5 -56.5t56.5 -136.5zM1188 173q0 41 -29 72t-69 31t-69 -31t-29 -72t29 -72t69 -31t69 31t29 72zM768 173q0 41 -29 72t-69 31t-69 -31t-29 -72t29 -72t69 -31t69 31t29 72z
M331 576q0 41 -29 72t-69 31t-69 -31t-29 -72t29 -72t69 -31t69 31t29 72z" />
    <glyph glyph-name="guilsinglleft" unicode="&#x2039;" horiz-adv-x="309" 
d="M179 250l100 -101l-74 -74l-175 174l175 175l74 -74z" />
    <glyph glyph-name="guilsinglright" unicode="&#x203a;" horiz-adv-x="309" 
d="M104 424l175 -175l-175 -174l-74 74l100 100l-100 101z" />
    <glyph glyph-name="Euro" unicode="&#x20ac;" horiz-adv-x="948" 
d="M904 526l-108 -45q-30 82 -100 133t-156 51q-75 0 -137.5 -38.5t-99.5 -104.5h238v-104h-273q-3 -21 -3 -43t3 -43h273v-104h-238q37 -66 99.5 -104.5t137.5 -38.5q86 0 155.5 51t99.5 133l109 -45q-46 -109 -145 -176.5t-220 -67.5q-123 0 -223 69t-144 179h-127v104
h101q-2 14 -2 43t2 43h-101v104h127q44 110 144 179t223 69q121 0 220.5 -67.5t144.5 -176.5z" />
    <glyph glyph-name="minus" unicode="&#x2212;" horiz-adv-x="630" 
d="M590 427v-105h-550v105h550z" />
    </font>
</defs>
</svg>
