<?xml version="1.0" standalone="no"?>
<!DOCTYPE svg PUBLIC "-//W3C//DTD SVG 1.1//EN" "http://www.w3.org/Graphics/SVG/1.1/DTD/svg11.dtd" >
<svg xmlns="http://www.w3.org/2000/svg" xmlns:xlink="http://www.w3.org/1999/xlink" version="1.1">
<metadata>
Created by FontForge 20170731 at Fri Oct 15 14:37:19 2010
 By Aleksey,,,
Generated in 2010 by FontLab Studio. Copyright info pending.
</metadata>
<defs>
<font id="AnoRegular-Italic" horiz-adv-x="580" >
  <font-face 
    font-family="Ano Regular"
    font-weight="400"
    font-style="italic"
    font-stretch="normal"
    units-per-em="1000"
    panose-1="0 0 0 0 0 0 0 0 0 0"
    ascent="800"
    descent="-200"
    x-height="450"
    cap-height="750"
    bbox="-159 -280 1264 975"
    underline-thickness="20"
    underline-position="-173"
    slope="-88"
    unicode-range="U+0020-2212"
  />
<missing-glyph horiz-adv-x="200" 
 />
    <glyph glyph-name=".notdef" horiz-adv-x="200" 
 />
    <glyph glyph-name=".null" horiz-adv-x="0" 
 />
    <glyph glyph-name="nonmarkingreturn" horiz-adv-x="333" 
 />
    <glyph glyph-name="space" unicode=" " horiz-adv-x="200" 
 />
    <glyph glyph-name="exclam" unicode="!" horiz-adv-x="209" 
d="M159 750h80l-112 -530h-80zM26 120h80l-26 -120h-80z" />
    <glyph glyph-name="quotedbl" unicode="&#x22;" horiz-adv-x="369" 
d="M319 750h80l-49 -230h-80zM159 750h80l-49 -230h-80z" />
    <glyph glyph-name="numbersign" unicode="#" horiz-adv-x="649" 
d="M510 510h120l-30 -70h-120l-55 -130h120l-30 -70h-120l-102 -240h-80l102 240h-95l-102 -240h-80l102 240h-120l30 70h120l55 130h-120l30 70h120l102 240h80l-102 -240h95l102 240h80zM345 310l55 130h-95l-55 -130h95z" />
    <glyph glyph-name="dollar" unicode="$" horiz-adv-x="607" 
d="M577 571l-74 -27q0 64 -27.5 102t-71.5 49l-59 -279l46 -13q62 -18 95.5 -66.5t33.5 -109.5q0 -111 -80 -177t-188 -71l-25 -119h-74l26 125q-75 14 -122 63.5t-47 128.5l77 30v-8q0 -60 29.5 -96.5t77.5 -48.5l65 306l-26 7q-58 17 -91.5 65t-33.5 108q0 101 71 163.5
t167 68.5l25 118h74l-26 -123q70 -14 114 -64t44 -132zM275 436l55 260q-58 -12 -99.5 -55.5t-41.5 -104.5q0 -74 73 -96zM437 228q0 80 -72 101l-36 10l-61 -288q69 11 119 58.5t50 118.5z" />
    <glyph glyph-name="percent" unicode="%" horiz-adv-x="808" 
d="M445 610q0 -84 -64.5 -145.5t-149.5 -61.5q-67 0 -114 46.5t-47 112.5q0 84 64.5 146t148.5 62q67 0 114.5 -47t47.5 -113zM662 770l53 -34l-566 -756l-53 34zM739 187q0 -84 -64.5 -146t-149.5 -62q-67 0 -114 47t-47 113q0 84 64.5 146t148.5 62q67 0 114.5 -47
t47.5 -113zM374 611q0 40 -25.5 67t-65.5 27q-54 0 -98 -44.5t-44 -98.5q0 -40 25.5 -67t65.5 -27q54 0 98 44.5t44 98.5zM668 188q0 40 -25.5 67t-65.5 27q-54 0 -98 -44.5t-44 -98.5q0 -40 25.5 -67t65.5 -27q54 0 98 44.5t44 98.5z" />
    <glyph glyph-name="ampersand" unicode="&#x26;" horiz-adv-x="565" 
d="M321 300h239l-15 -70h-74l-12 -55q-20 -91 -97 -143t-168 -52q-84 0 -141.5 47t-57.5 134q0 73 51.5 131t125.5 86q-41 21 -64 58t-23 85q0 102 78.5 176t179.5 74q78 0 130 -54t52 -129v-17l-77 -28q1 8 1 25q0 57 -30.5 95t-82.5 38q-67 0 -118.5 -54.5t-51.5 -122.5
q0 -49 30.5 -81t79.5 -32l-15 -70q-69 0 -127 -55.5t-58 -121.5q0 -56 34.5 -85t85.5 -29q62 0 116.5 39t68.5 104l8 37h-83z" />
    <glyph glyph-name="quotesingle" unicode="'" horiz-adv-x="208" 
d="M159 750h80l-49 -230h-80z" />
    <glyph glyph-name="parenleft" unicode="(" horiz-adv-x="397" 
d="M422 810l5 -69q-91 -13 -166 -90t-114.5 -181.5t-39.5 -208.5q0 -101 40 -175t115 -85l-30 -61q-100 23 -151 111t-51 210q0 90 28 182t77.5 170t124.5 132.5t162 64.5z" />
    <glyph glyph-name="parenright" unicode=")" horiz-adv-x="397" 
d="M367 489q0 -90 -28 -182t-77.5 -170t-124.5 -132.5t-162 -64.5l-5 69q91 13 166 90t114.5 181.5t39.5 208.5q0 101 -40 175t-115 85l30 61q100 -23 151 -111t51 -210z" />
    <glyph glyph-name="asterisk" unicode="*" horiz-adv-x="529" 
d="M550 622l9 -78l-188 -57l76 -148l-69 -44l-78 152l-145 -155l-59 50l145 154l-161 56l38 70l164 -57l39 185h80l-39 -185z" />
    <glyph glyph-name="plus" unicode="+" horiz-adv-x="634" 
d="M365 410h240l-15 -70h-240l-51 -240h-80l51 240h-240l15 70h240l51 240h80z" />
    <glyph glyph-name="comma" unicode="," horiz-adv-x="187" 
d="M86 128l61 -38l-186 -235l-61 38z" />
    <glyph glyph-name="hyphen" unicode="-" horiz-adv-x="340" 
d="M45 310h265l-15 -70h-265z" />
    <glyph glyph-name="period" unicode="." horiz-adv-x="196" 
d="M16 120h80l-26 -120h-80z" />
    <glyph glyph-name="slash" unicode="/" horiz-adv-x="430" 
d="M482 822l68 -33l-582 -861l-68 33z" />
    <glyph glyph-name="zero" unicode="0" horiz-adv-x="591" 
d="M577 567q0 -19 -5 -46l-64 -300q-22 -102 -102 -171.5t-180 -69.5q-90 0 -150.5 58.5t-60.5 144.5q0 19 5 46l64 300q21 102 101.5 171.5t180.5 69.5q89 0 150 -58.5t61 -144.5zM497 564q0 59 -36.5 97.5t-95.5 38.5q-68 0 -127.5 -51t-74.5 -124l-64 -300q-4 -17 -4 -39
q0 -59 36.5 -97.5t95.5 -38.5q68 0 127 51t75 124l64 300q4 17 4 39z" />
    <glyph glyph-name="one" unicode="1" horiz-adv-x="448" 
d="M338 750h80l-159 -750h-80l137 644l-204 -169l-42 52z" />
    <glyph glyph-name="two" unicode="2" horiz-adv-x="525" 
d="M526 590q0 -91 -84 -175l-349 -345h322l-15 -70h-430l15 69l405 401q59 59 59 118q0 54 -30.5 83t-76.5 29q-53 0 -103.5 -38t-72.5 -104l-65 31q29 88 95 134.5t142 46.5q78 0 133 -48t55 -132z" />
    <glyph glyph-name="three" unicode="3" horiz-adv-x="575" 
d="M546 594q0 -68 -43 -123t-110 -83q45 -23 68.5 -66.5t23.5 -94.5q0 -96 -71.5 -171.5t-194.5 -75.5q-88 0 -148.5 50.5t-60.5 138.5l69 26q2 -65 38 -106t101 -41q84 0 135.5 57t51.5 127q0 52 -32 86.5t-92 34.5h-94l15 68h93q65 0 117 52t52 117q0 48 -30.5 79
t-78.5 31q-53 0 -99.5 -36.5t-73.5 -99.5l-64 29q27 77 93 127t147 50q78 0 133 -52t55 -124z" />
    <glyph glyph-name="four" unicode="4" horiz-adv-x="583" 
d="M464 750h80l-113 -532h105l-15 -70h-105l-31 -148h-80l31 148h-336l15 70zM351 218l84 397l-335 -397h251z" />
    <glyph glyph-name="five" unicode="5" horiz-adv-x="597" 
d="M237 750h341l-15 -70h-270l-65 -217q37 8 72 8q94 0 157.5 -56t63.5 -149q0 -116 -85.5 -201t-200.5 -85q-91 0 -151 55t-64 143l69 26q4 -67 41 -110.5t103 -43.5q81 0 144 66.5t63 147.5q0 67 -42 102t-111 35q-75 0 -164 -33z" />
    <glyph glyph-name="six" unicode="6" horiz-adv-x="590" 
d="M516 267q0 -116 -88.5 -201.5t-204.5 -85.5q-88 0 -148 60t-60 146q0 87 58 161l319 403h98l-226 -285q28 5 53 5q87 0 143 -59t56 -144zM434 264q0 59 -36.5 97.5t-95.5 38.5q-80 0 -143 -66.5t-63 -147.5q0 -59 36.5 -97.5t95.5 -38.5q81 0 143.5 66.5t62.5 147.5z" />
    <glyph glyph-name="seven" unicode="7" horiz-adv-x="505" 
d="M118 750h417l-14 -70l-459 -680h-92l458 680h-324z" />
    <glyph glyph-name="eight" unicode="8" horiz-adv-x="566" 
d="M552 591q0 -70 -42 -124.5t-108 -81.5q41 -24 65 -63.5t24 -84.5q0 -105 -83.5 -181t-188.5 -76q-84 0 -144 57t-60 132q0 77 48 138t123 89q-74 48 -74 131q0 98 76.5 170.5t174.5 72.5q78 0 133.5 -54t55.5 -125zM469 590q0 48 -30.5 79t-78.5 31q-65 0 -116.5 -52
t-51.5 -117q0 -48 30.5 -79t78.5 -31q65 0 116.5 52t51.5 117zM411 233q0 51 -35 85.5t-89 34.5q-73 0 -131.5 -55.5t-58.5 -127.5q0 -52 35 -86t90 -34q72 0 130.5 55.5t58.5 127.5z" />
    <glyph glyph-name="nine" unicode="9" horiz-adv-x="578" 
d="M563 575q0 -84 -56 -155l-334 -420h-98l244 307q-20 -4 -46 -4q-83 0 -136.5 55.5t-53.5 137.5q0 110 85.5 192t196.5 82q85 0 141.5 -56.5t56.5 -138.5zM481 572q0 55 -34.5 91t-88.5 36q-75 0 -134 -61.5t-59 -136.5q0 -55 34.5 -91t89.5 -36q75 0 133.5 61.5
t58.5 136.5z" />
    <glyph glyph-name="colon" unicode=":" horiz-adv-x="196" 
d="M96 450h80l-26 -120h-80zM26 120h80l-26 -120h-80z" />
    <glyph glyph-name="semicolon" unicode=";" horiz-adv-x="186" 
d="M86 450h80l-26 -120h-80zM86 128l61 -38l-186 -235l-61 38z" />
    <glyph glyph-name="less" unicode="&#x3c;" horiz-adv-x="391" 
d="M379 668l41 -52l-305 -251l193 -245l-55 -46l-234 297z" />
    <glyph glyph-name="equal" unicode="=" horiz-adv-x="637" 
d="M67 510h560l-14 -70h-560zM25 310h560l-15 -70h-560z" />
    <glyph glyph-name="greater" unicode="&#x3e;" horiz-adv-x="381" 
d="M157 668l234 -297l-360 -297l-41 53l305 251l-193 245z" />
    <glyph glyph-name="question" unicode="?" horiz-adv-x="608" 
d="M569 588q0 -48 -18 -87t-55.5 -69t-67 -47t-80.5 -42q-37 -18 -59.5 -44.5t-33.5 -78.5h-80q27 128 119 175q14 7 53.5 25t57 28.5t42 31t35 47.5t10.5 63q0 47 -31.5 78.5t-90.5 31.5q-62 0 -120.5 -39t-86.5 -117l-63 27q33 96 106 147.5t161 51.5q96 0 149 -53
t53 -129zM148 120h80l-26 -120h-80z" />
    <glyph glyph-name="at" unicode="@" horiz-adv-x="886" 
d="M846 447q0 -135 -57 -207t-128 -72q-39 0 -67.5 24t-33.5 59q-30 -41 -73.5 -62.5t-90.5 -21.5q-72 0 -123.5 48t-51.5 133q0 103 75.5 168.5t166.5 65.5q86 0 131 -65l10 49l80 1l-56 -267q-2 -8 -2 -13q0 -24 11 -36.5t27 -12.5q37 0 69.5 55.5t32.5 151.5
q0 110 -71 182.5t-183 72.5q-99 0 -190.5 -56.5t-146.5 -148t-55 -190.5q0 -110 70.5 -182.5t182.5 -72.5q128 0 249 98l46 -57q-137 -111 -295 -111q-143 0 -238.5 93.5t-95.5 229.5q0 120 67 228.5t177 173.5t230 65q143 0 238 -93.5t95 -229.5zM570 407q0 47 -29 77.5
t-76 30.5q-65 0 -116 -52t-51 -117q0 -48 29.5 -80t75.5 -32q65 0 116 54t51 119z" />
    <glyph glyph-name="A" unicode="A" horiz-adv-x="678" 
d="M477 750l131 -750h-77l-34 204h-348l-121 -204h-88l453 750h84zM191 274h294l-64 387z" />
    <glyph glyph-name="B" unicode="B" horiz-adv-x="616" 
d="M596 579q0 -71 -48.5 -134t-112.5 -81l12 23q45 -17 70 -58.5t25 -93.5q0 -94 -71 -164.5t-166 -70.5h-305l159 750h269q72 0 120 -50t48 -121zM512 578q0 45 -26.5 73.5t-72.5 28.5h-188l-58 -270h188q64 0 110.5 51.5t46.5 116.5zM460 238q0 45 -26.5 73.5t-73.5 28.5
h-208l-57 -270h208q64 0 110.5 51.5t46.5 116.5z" />
    <glyph glyph-name="C" unicode="C" horiz-adv-x="867" 
d="M847 525l-70 -27q-19 88 -89 145t-165 57q-99 0 -190.5 -56.5t-146.5 -148t-55 -190.5q0 -110 70.5 -182.5t182.5 -72.5q100 0 191.5 56.5t146.5 146.5l69 -31q-65 -108 -175.5 -175t-231.5 -67q-143 0 -238.5 93.5t-95.5 229.5q0 120 67 228.5t177 173.5t230 65
q121 0 209 -68.5t114 -176.5z" />
    <glyph glyph-name="D" unicode="D" horiz-adv-x="738" 
d="M718 439q0 -87 -38.5 -168.5t-101 -140.5t-146 -94.5t-170.5 -35.5h-262l159 750h246q134 0 223.5 -91t89.5 -220zM637 439q0 104 -69 172.5t-178 68.5h-165l-130 -610h165q94 0 181.5 51.5t141.5 137.5t54 180z" />
    <glyph glyph-name="E" unicode="E" horiz-adv-x="534" 
d="M159 750h415l-14 -70h-335l-58 -270h305l-15 -70h-305l-57 -270h335l-15 -70h-415z" />
    <glyph glyph-name="F" unicode="F" horiz-adv-x="534" 
d="M159 750h415l-14 -70h-335l-58 -270h305l-15 -70h-305l-72 -340h-80z" />
    <glyph glyph-name="G" unicode="G" horiz-adv-x="874" 
d="M460 410h395q-11 -113 -79 -212.5t-173 -158.5t-219 -59q-143 0 -238.5 93.5t-95.5 229.5q0 120 67 228.5t177 173.5t230 65q163 0 262 -120l-57 -48q-77 98 -206 98q-99 0 -190.5 -56.5t-146.5 -148t-55 -190.5q0 -110 70.5 -182.5t182.5 -72.5q123 0 230 84.5
t145 205.5h-313z" />
    <glyph glyph-name="H" unicode="H" horiz-adv-x="679" 
d="M629 750h80l-159 -750h-80l72 340h-390l-72 -340h-80l159 750h80l-72 -340h390z" />
    <glyph glyph-name="I" unicode="I" horiz-adv-x="209" 
d="M159 750h80l-159 -750h-80z" />
    <glyph glyph-name="J" unicode="J" horiz-adv-x="503" 
d="M454 750h80l-120 -565q-19 -91 -89 -148t-162 -57q-83 0 -138 52.5t-55 132.5v4l71 26q0 -1 -0.5 -5t-0.5 -5q0 -57 32.5 -96t91.5 -39q58 0 108.5 44.5t64.5 106.5z" />
    <glyph glyph-name="K" unicode="K" horiz-adv-x="553" 
d="M557 750h96l-402 -380l241 -370h-88l-244 374l-80 -374h-80l159 750h80l-79 -376z" />
    <glyph glyph-name="L" unicode="L" horiz-adv-x="510" 
d="M95 70h335l-15 -70h-415l159 750h80z" />
    <glyph glyph-name="M" unicode="M" horiz-adv-x="829" 
d="M773 750h86l-159 -750h-80l131 615l-303 -365h-85l-152 365l-131 -615h-80l159 750h77l180 -431z" />
    <glyph glyph-name="N" unicode="N" horiz-adv-x="694" 
d="M644 750h80l-159 -750h-80l-272 624l-133 -624h-80l159 750h80l272 -626z" />
    <glyph glyph-name="O" unicode="O" horiz-adv-x="876" 
d="M857 447q0 -120 -67 -228.5t-176.5 -173.5t-229.5 -65q-143 0 -238.5 93.5t-95.5 229.5q0 120 67 228.5t177 173.5t230 65q143 0 238 -93.5t95 -229.5zM776 445q0 110 -70.5 182.5t-182.5 72.5q-99 0 -190.5 -56.5t-146.5 -148t-55 -190.5q0 -110 70.5 -182.5
t182.5 -72.5q99 0 190.5 56.5t146.5 148t55 190.5z" />
    <glyph glyph-name="P" unicode="P" horiz-adv-x="585" 
d="M585 576q0 -96 -71.5 -166t-167.5 -70h-194l-72 -340h-80l159 750h253q74 0 123.5 -51t49.5 -123zM504 578q0 45 -26.5 73.5t-72.5 28.5h-180l-58 -270h180q64 0 110.5 51.5t46.5 116.5z" />
    <glyph glyph-name="Q" unicode="Q" horiz-adv-x="876" 
d="M857 447q0 -97 -45 -188t-122 -158l80 -101h-98l-44 55q-116 -75 -244 -75q-143 0 -238.5 93.5t-95.5 229.5q0 120 67 228.5t177 173.5t230 65q143 0 238 -93.5t95 -229.5zM776 445q0 110 -70.5 182.5t-182.5 72.5q-99 0 -190.5 -56.5t-146.5 -148t-55 -190.5
q0 -110 70.5 -182.5t182.5 -72.5q104 0 199 62l-150 188h97l113 -141q62 58 97.5 133t35.5 153z" />
    <glyph glyph-name="R" unicode="R" horiz-adv-x="585" 
d="M585 576q0 -96 -71.5 -166t-167.5 -70h-74l226 -340h-92l-247 371l-79 -371h-80l159 750h253q74 0 123.5 -51t49.5 -123zM504 578q0 45 -26.5 73.5t-72.5 28.5h-180l-58 -270h180q64 0 110.5 51.5t46.5 116.5z" />
    <glyph glyph-name="S" unicode="S" horiz-adv-x="607" 
d="M597 571l-67 -24q-4 76 -49.5 115t-109.5 39q-71 0 -127.5 -46t-56.5 -119q0 -35 24 -64t60 -38l122 -30q71 -17 108.5 -67.5t37.5 -115.5q0 -95 -75.5 -168.5t-207.5 -73.5q-100 0 -170 51t-76 147l72 28q0 -72 50 -113.5t122 -41.5q91 0 146.5 52t55.5 116q0 40 -24 71
t-71 43l-116 29q-60 15 -98.5 64.5t-38.5 108.5q0 73 39.5 128.5t98.5 82t125 26.5q91 0 155.5 -51.5t70.5 -148.5z" />
    <glyph glyph-name="T" unicode="T" horiz-adv-x="537" 
d="M105 750h522l-15 -70h-221l-145 -680h-80l145 680h-221z" />
    <glyph glyph-name="U" unicode="U" horiz-adv-x="716" 
d="M667 750h80l-103 -484q-26 -121 -121 -203.5t-214 -82.5q-106 0 -177.5 69.5t-71.5 169.5q0 27 6 55l101 476h80l-102 -480q-5 -20 -5 -48q0 -74 47 -123t121 -49q87 0 162.5 64.5t94.5 155.5z" />
    <glyph glyph-name="V" unicode="V" horiz-adv-x="688" 
d="M700 750h88l-483 -750h-84l-141 750h77l120 -667z" />
    <glyph glyph-name="W" unicode="W" horiz-adv-x="970" 
d="M991 750h79l-385 -750h-78l-56 637l-327 -637h-78l-66 750h71l56 -634l323 634h82l56 -634z" />
    <glyph glyph-name="X" unicode="X" horiz-adv-x="647" 
d="M643 750h104l-367 -381l205 -369h-87l-173 312l-301 -312h-104l367 381l-205 369h87l173 -312z" />
    <glyph glyph-name="Y" unicode="Y" horiz-adv-x="730" 
d="M692 750h98l-397 -435l-67 -315h-80l67 315l-213 435h80l178 -365z" />
    <glyph glyph-name="Z" unicode="Z" 
d="M119 750h531l-14 -70l-556 -610h426l-15 -70h-531l15 70l556 610h-426z" />
    <glyph glyph-name="bracketleft" unicode="[" horiz-adv-x="360" 
d="M185 750h215l-15 -70h-135l-155 -730h135l-15 -70h-215z" />
    <glyph glyph-name="backslash" unicode="\" horiz-adv-x="434" 
d="M161 822l213 -866l-71 -28l-213 866z" />
    <glyph glyph-name="bracketright" unicode="]" horiz-adv-x="340" 
d="M155 750h215l-185 -870h-215l15 70h135l155 730h-135z" />
    <glyph glyph-name="underscore" unicode="_" horiz-adv-x="400" 
d="M-75 -60h415l-15 -70h-415z" />
    <glyph glyph-name="grave" unicode="`" 
d="M287 785l199 -141l-43 -55l-199 141z" />
    <glyph glyph-name="a" unicode="a" horiz-adv-x="604" 
d="M489 450h80l-97 -450h-80l14 62q-74 -81 -181 -81q-83 0 -141.5 54.5t-58.5 151.5q0 82 44 148t109 100t132 34q112 0 165 -84zM444 263q0 60 -36.5 98.5t-95.5 38.5q-80 0 -143 -64.5t-63 -145.5q0 -60 37 -100t95 -40q81 0 143.5 66t62.5 147z" />
    <glyph glyph-name="b" unicode="b" horiz-adv-x="597" 
d="M542 262q0 -121 -89.5 -201t-195.5 -80q-111 0 -164 82l-13 -63h-80l160 750h80l-77 -361q73 80 179 80q83 0 141.5 -54.5t58.5 -152.5zM461 260q0 60 -37 100t-95 40q-80 0 -142.5 -66.5t-62.5 -147.5q0 -59 36 -97.5t95 -38.5q81 0 143.5 64.5t62.5 145.5z" />
    <glyph glyph-name="c" unicode="c" horiz-adv-x="538" 
d="M509 345l-68 -35q-42 90 -129 90q-80 0 -143 -65.5t-63 -146.5q0 -59 37 -98.5t95 -39.5q92 0 166 90l63 -42q-42 -54 -104.5 -86t-129.5 -32q-88 0 -148 60.5t-60 146.5q0 115 89 199t204 84q65 0 116 -34.5t75 -90.5z" />
    <glyph glyph-name="d" unicode="d" horiz-adv-x="603" 
d="M553 750h80l-161 -750h-80l14 62q-74 -81 -181 -81q-83 0 -141.5 54.5t-58.5 151.5q0 82 44 148t109 100t132 34q112 0 165 -84zM444 263q0 60 -36.5 98.5t-95.5 38.5q-80 0 -143 -64.5t-63 -145.5q0 -60 37 -100t95 -40q81 0 143.5 66t62.5 147z" />
    <glyph glyph-name="e" unicode="e" 
d="M525 262q0 -34 -10 -72h-409v-2q0 -59 37 -98.5t95 -39.5q92 0 166 90l63 -42q-42 -54 -104.5 -86t-129.5 -32q-88 0 -148 60.5t-60 146.5q0 115 89 199t204 84q88 0 147.5 -61t59.5 -147zM448 262q0 59 -38.5 98.5t-97.5 39.5q-61 0 -114.5 -40.5t-77.5 -100.5h328v3z
" />
    <glyph glyph-name="f" unicode="f" horiz-adv-x="312" 
d="M383 765l-16 -72q-18 5 -34 5q-64 0 -78 -61l-39 -187h100l-15 -70h-100l-81 -380h-80l81 380h-80l15 70h80l44 207q11 54 55.5 83.5t101.5 29.5q19 0 46 -5z" />
    <glyph glyph-name="g" unicode="g" horiz-adv-x="604" 
d="M484 450h80l-107 -503q-21 -99 -102.5 -163t-184.5 -64q-65 0 -115.5 34.5t-74.5 90.5l71 37q13 -42 46 -67t79 -25q72 0 130 48t72 117l23 108q-73 -82 -181 -82q-83 0 -141.5 54.5t-58.5 151.5q0 82 44 148t109 100t132 34q112 0 165 -84zM439 263q0 60 -36.5 98.5
t-95.5 38.5q-80 0 -143 -64.5t-63 -145.5q0 -60 37 -100t95 -40q81 0 143.5 66t62.5 147z" />
    <glyph glyph-name="h" unicode="h" horiz-adv-x="537" 
d="M473 315q0 -12 -4 -38l-59 -277h-80l61 285q2 9 2 26q0 41 -26.5 65.5t-71.5 24.5q-54 0 -100 -38t-57 -91l-58 -272h-80l160 750h80l-76 -354q52 74 146 74q67 0 115 -41.5t48 -113.5z" />
    <glyph glyph-name="i" unicode="i" horiz-adv-x="209" 
d="M159 750h80l-25 -120h-80zM96 450h80l-96 -450h-80z" />
    <glyph glyph-name="j" unicode="j" horiz-adv-x="209" 
d="M159 750h80l-25 -120h-80zM96 450h80l-132 -617q-12 -55 -56 -84t-101 -29q-21 0 -46 5l15 72q20 -5 35 -5q64 0 77 61z" />
    <glyph glyph-name="k" unicode="k" horiz-adv-x="431" 
d="M362 450h99l-240 -232l144 -218h-89l-148 224l-48 -224h-80l159 750h80l-111 -526z" />
    <glyph glyph-name="l" unicode="l" horiz-adv-x="209" 
d="M159 750h80l-159 -750h-80z" />
    <glyph glyph-name="m" unicode="m" horiz-adv-x="745" 
d="M681 335q0 -19 -4 -35l-63 -300h-80l64 303q3 14 3 26q0 34 -19.5 52.5t-49.5 18.5q-42 0 -76 -25t-45 -73l-64 -302h-80l65 308q3 14 3 26q0 32 -19.5 49t-50.5 17q-40 0 -76 -29.5t-47 -78.5l-62 -292h-80l96 450h80l-11 -48q19 30 54 49t72 19q33 0 60.5 -17t40.5 -51
q63 68 148 68q56 0 98.5 -37.5t42.5 -97.5z" />
    <glyph glyph-name="n" unicode="n" horiz-adv-x="537" 
d="M473 315q0 -12 -4 -38l-59 -277h-80l61 285q2 9 2 26q0 41 -26.5 65.5t-71.5 24.5q-54 0 -100 -38t-57 -91l-58 -272h-80l96 450h80l-12 -54q52 74 146 74q67 0 115 -41.5t48 -113.5z" />
    <glyph glyph-name="o" unicode="o" 
d="M525 262q0 -114 -88.5 -198t-203.5 -84q-88 0 -148 60.5t-60 146.5q0 115 89 199t204 84q88 0 147.5 -61t59.5 -147zM444 262q0 59 -37 98.5t-95 39.5q-80 0 -143 -65.5t-63 -146.5q0 -59 37 -98.5t95 -39.5q81 0 143.5 65.5t62.5 146.5z" />
    <glyph glyph-name="p" unicode="p" horiz-adv-x="611" 
d="M556 262q0 -121 -89.5 -201t-195.5 -80q-113 0 -165 84l-71 -335h-80l154 720h80l-14 -63q73 82 181 82q83 0 141.5 -54.5t58.5 -152.5zM475 260q0 60 -37 100t-95 40q-80 0 -143 -66.5t-63 -147.5q0 -59 36.5 -97.5t95.5 -38.5q81 0 143.5 64.5t62.5 145.5z" />
    <glyph glyph-name="q" unicode="q" horiz-adv-x="612" 
d="M488 450h80l-154 -720h-80l70 331q-71 -80 -179 -80q-83 0 -141.5 54.5t-58.5 151.5q0 82 44 148t109 100t132 34q112 0 164 -83zM443 263q0 60 -36 98.5t-95 38.5q-80 0 -143 -64.5t-63 -145.5q0 -60 37 -100t95 -40q81 0 143 66t62 147z" />
    <glyph glyph-name="r" unicode="r" horiz-adv-x="327" 
d="M347 467l-15 -72q-17 5 -37 5q-54 0 -100 -37.5t-57 -90.5l-58 -272h-80l96 450h80l-11 -51q44 71 140 71q21 0 42 -3z" />
    <glyph glyph-name="s" unicode="s" horiz-adv-x="433" 
d="M403 360l-72 -26q-8 35 -36 52t-62 17q-46 0 -72.5 -24.5t-26.5 -54.5q0 -37 35 -45l81 -19q56 -13 84.5 -46t28.5 -75q0 -62 -54 -110.5t-142 -48.5q-67 0 -116.5 27.5t-60.5 83.5l72 26q20 -70 107 -70q45 0 78.5 28.5t33.5 60.5q0 41 -53 52l-81 19q-45 11 -69.5 42
t-24.5 70q0 70 56.5 110.5t127.5 40.5q61 0 108 -28.5t58 -81.5z" />
    <glyph glyph-name="t" unicode="t" horiz-adv-x="291" 
d="M216 450h80l-15 -70h-80l-81 -380h-80l81 380h-80l15 70h80l63 300h80z" />
    <glyph glyph-name="u" unicode="u" horiz-adv-x="537" 
d="M423 450h80l-96 -450h-80l12 55q-51 -75 -147 -75q-66 0 -114 41.5t-48 113.5q0 21 4 38l59 277h80l-61 -285q-3 -14 -3 -26q0 -41 27 -65.5t71 -24.5q54 0 100.5 38t57.5 91z" />
    <glyph glyph-name="v" unicode="v" horiz-adv-x="464" 
d="M409 450h85l-288 -450h-90l-96 450h76l77 -372z" />
    <glyph glyph-name="w" unicode="w" horiz-adv-x="664" 
d="M609 450h85l-249 -450h-86l-26 349l-189 -349h-86l-38 450h72l29 -345l187 345h85l29 -345z" />
    <glyph glyph-name="x" unicode="x" horiz-adv-x="433" 
d="M377 450h96l-228 -229l132 -221h-83l-101 169l-167 -169h-96l227 229l-131 221h83l100 -169z" />
    <glyph glyph-name="y" unicode="y" horiz-adv-x="449" 
d="M405 450h85l-413 -647q-54 -83 -145 -83q-38 0 -82 18l15 69q28 -18 63 -18q57 0 87 47l99 156l-98 458h76l77 -372z" />
    <glyph glyph-name="z" unicode="z" horiz-adv-x="418" 
d="M59 450h359l-15 -70l-329 -310h268l-15 -70h-367l15 70l329 310h-260z" />
    <glyph glyph-name="braceleft" unicode="{" horiz-adv-x="348" 
d="M375 750h24l-15 -70h-17q-93 0 -113 -93l-33 -156q-19 -86 -93 -121q57 -41 39 -130l-28 -136q-19 -93 73 -93h17l-15 -70h-16q-76 0 -115 48.5t-22 124.5l28 133q10 46 -12 69.5t-67 23.5l15 70q44 0 76.5 24t42.5 70l32 150q16 75 68.5 115.5t130.5 40.5z" />
    <glyph glyph-name="bar" unicode="|" horiz-adv-x="205" 
d="M155 750h80l-185 -870h-80z" />
    <glyph glyph-name="braceright" unicode="}" horiz-adv-x="338" 
d="M339 350l-15 -70q-45 0 -77 -23.5t-42 -69.5l-32 -151q-16 -75 -68.5 -115t-130.5 -40h-24l15 70h16q93 0 114 93l33 156q20 87 93 120q-58 44 -39 131l28 135q10 46 -10 70t-64 24h-16l15 70h16q77 0 115 -49t22 -125l-28 -132q-10 -46 12 -70t67 -24z" />
    <glyph glyph-name="nbspace" unicode="&#xa0;" horiz-adv-x="200" 
 />
    <glyph glyph-name="exclamdown" unicode="&#xa1;" horiz-adv-x="209" 
d="M129 750h80l-26 -120h-80zM82 530h80l-112 -530h-80z" />
    <glyph glyph-name="cent" unicode="&#xa2;" horiz-adv-x="538" 
d="M509 345l-68 -35q-31 65 -84 83l-72 -336q66 18 119 83l63 -42q-78 -99 -198 -116l-26 -122h-74l26 123q-74 14 -122 71t-48 133q0 110 82.5 192t191.5 90l25 117h74l-26 -123q46 -12 82 -43t55 -75zM210 53l74 345q-73 -13 -125.5 -75t-52.5 -135q0 -51 28.5 -88.5
t75.5 -46.5z" />
    <glyph glyph-name="sterling" unicode="&#xa3;" horiz-adv-x="566" 
d="M542 587l-69 -29v17q0 57 -36.5 91t-85.5 34q-52 0 -89.5 -40.5t-37.5 -119.5v-130h223l-15 -70h-208v-270h201l-15 -70h-410l15 70h133v270h-76l15 70h61v138q0 107 61.5 164.5t145.5 57.5q77 0 132 -48t55 -135z" />
    <glyph glyph-name="yen" unicode="&#xa5;" horiz-adv-x="711" 
d="M658 750h98l-299 -328h159l-15 -69h-220l-21 -100h220l-15 -70h-220l-39 -183h-80l39 183h-220l15 70h220l21 100h-220l15 69h159l-160 328h80l168 -345z" />
    <glyph glyph-name="section" unicode="&#xa7;" horiz-adv-x="874" 
d="M460 410h395q-11 -113 -79 -212.5t-173 -158.5t-219 -59q-143 0 -238.5 93.5t-95.5 229.5q0 120 67 228.5t177 173.5t230 65q121 0 209 -68.5t114 -176.5l-70 -27q-19 88 -89 145t-165 57q-99 0 -190.5 -56.5t-146.5 -148t-55 -190.5q0 -110 70.5 -182.5t182.5 -72.5
q123 0 230 84.5t145 205.5h-313z" />
    <glyph glyph-name="dieresis" unicode="&#xa8;" 
d="M449 750h80l-22 -100h-80zM229 750h80l-22 -100h-80z" />
    <glyph glyph-name="copyright" unicode="&#xa9;" horiz-adv-x="876" 
d="M857 447q0 -120 -67 -228.5t-176.5 -173.5t-229.5 -65q-143 0 -238.5 93.5t-95.5 229.5q0 120 67 228.5t177 173.5t230 65q143 0 238 -93.5t95 -229.5zM776 445q0 110 -70.5 182.5t-182.5 72.5q-99 0 -190.5 -56.5t-146.5 -148t-55 -190.5q0 -110 70.5 -182.5
t182.5 -72.5q99 0 190.5 56.5t146.5 148t55 190.5zM693 497l-71 -36q-13 41 -46.5 66t-79.5 25q-80 0 -143 -65.5t-63 -146.5q0 -59 37 -98.5t95 -39.5q47 0 91 25t74 66l64 -43q-42 -54 -104.5 -86t-129.5 -32q-88 0 -148 60.5t-60 146.5q0 115 89.5 199t203.5 84
q65 0 116 -34.5t75 -90.5z" />
    <glyph glyph-name="guillemotleft" unicode="&#xab;" horiz-adv-x="473" 
d="M422 426l41 -52l-157 -129l97 -123l-55 -45l-138 174zM212 426l41 -52l-157 -129l97 -123l-55 -45l-138 174z" />
    <glyph glyph-name="macron" unicode="&#xaf;" horiz-adv-x="590" 
d="M147 750h305l-14 -70h-305z" />
    <glyph glyph-name="degree" unicode="&#xb0;" horiz-adv-x="494" 
d="M475 610q0 -84 -64.5 -145.5t-149.5 -61.5q-67 0 -114 46.5t-47 112.5q0 84 64.5 146t148.5 62q67 0 114.5 -47t47.5 -113zM404 611q0 40 -25.5 67t-65.5 27q-54 0 -98 -44.5t-44 -98.5q0 -40 25.5 -67t65.5 -27q54 0 98 44.5t44 98.5z" />
    <glyph glyph-name="acute" unicode="&#xb4;" 
d="M446 785l41 -60l-223 -136l-41 60z" />
    <glyph glyph-name="cedilla" unicode="&#xb8;" horiz-adv-x="538" 
d="M276 -133q0 -39 -27.5 -68.5t-74.5 -29.5q-31 0 -55.5 18.5t-32.5 49.5l51 26q14 -38 36 -38q20 0 31.5 13.5t11.5 29.5q0 28 -28 28q-10 0 -26 -15l-5 -5l-41 38l118 120l42 -39l-49 -48q49 -25 49 -80z" />
    <glyph glyph-name="guillemotright" unicode="&#xbb;" horiz-adv-x="463" 
d="M305 426l138 -175l-212 -174l-41 52l157 129l-97 123zM95 426l138 -175l-212 -174l-41 52l157 129l-97 123z" />
    <glyph glyph-name="questiondown" unicode="&#xbf;" horiz-adv-x="608" 
d="M406 770h80l-25 -120h-80zM446 226l63 -28q-33 -95 -106.5 -146.5t-160.5 -51.5q-96 0 -149 53t-53 128q0 39 14 73.5t32 57t52.5 46.5t57.5 36.5t64 32.5q37 17 59.5 43.5t33.5 79.5h80q-26 -129 -119 -175q-14 -7 -53 -25t-56.5 -28.5t-42 -31t-35 -48t-10.5 -63.5
q0 -47 31 -78t90 -31q62 0 120.5 39t87.5 117z" />
    <glyph glyph-name="Agrave" unicode="&#xc0;" horiz-adv-x="678" 
d="M336 975l223 -90l-31 -66l-223 90zM477 750l131 -750h-77l-34 204h-348l-121 -204h-88l453 750h84zM191 274h294l-64 387z" />
    <glyph glyph-name="Aacute" unicode="&#xc1;" horiz-adv-x="678" 
d="M573 975l18 -66l-261 -90l-17 66zM477 750l131 -750h-77l-34 204h-348l-121 -204h-88l453 750h84zM191 274h294l-64 387z" />
    <glyph glyph-name="Acircumflex" unicode="&#xc2;" horiz-adv-x="678" 
d="M471 968l142 -87l-36 -59l-110 69l-149 -69l-24 62zM477 750l131 -750h-77l-34 204h-348l-121 -204h-88l453 750h84zM191 274h294l-64 387z" />
    <glyph glyph-name="Atilde" unicode="&#xc3;" horiz-adv-x="678" 
d="M477 750l131 -750h-77l-34 204h-348l-121 -204h-88l453 750h84zM191 274h294l-64 387zM559 950h58q-9 -43 -41.5 -72t-73.5 -29q-29 0 -48 9t-26 20t-18.5 20t-28.5 9q-19 0 -35 -13.5t-21 -33.5h-58q9 43 41.5 72t74.5 29q29 0 47.5 -9t25 -19.5t19 -19.5t29.5 -9
q19 0 35 13.5t20 32.5z" />
    <glyph glyph-name="Adieresis" unicode="&#xc4;" horiz-adv-x="678" 
d="M535 944h80l-22 -100h-80zM315 944h80l-22 -100h-80zM477 750l131 -750h-77l-34 204h-348l-121 -204h-88l453 750h84zM191 274h294l-64 387z" />
    <glyph glyph-name="Aring" unicode="&#xc5;" horiz-adv-x="678" 
d="M480 732l128 -732h-77l-34 204h-348l-121 -204h-88l449 743q-46 30 -46 84q0 43 29.5 72.5t71.5 29.5q43 0 72.5 -29.5t29.5 -72.5q0 -32 -18 -58t-48 -37zM491 827q0 19 -13.5 33t-33.5 14q-19 0 -32.5 -14t-13.5 -33t13.5 -32.5t32.5 -13.5t33 13.5t14 32.5zM191 274
h294l-64 387z" />
    <glyph glyph-name="AE" unicode="&#xc6;" horiz-adv-x="863" 
d="M458 750h465l-14 -70h-335l-58 -270h305l-15 -70h-305l-57 -270h335l-15 -70h-415l43 204h-225l-139 -204h-88zM407 274l89 418l-59 -91l-222 -327h192z" />
    <glyph glyph-name="Ccedilla" unicode="&#xc7;" horiz-adv-x="867" 
d="M847 525l-70 -27q-19 88 -89 145t-165 57q-99 0 -190.5 -56.5t-146.5 -148t-55 -190.5q0 -110 70.5 -182.5t182.5 -72.5q100 0 191.5 56.5t146.5 146.5l69 -31q-65 -108 -175.5 -175t-231.5 -67q-143 0 -238.5 93.5t-95.5 229.5q0 120 67 228.5t177 173.5t230 65
q121 0 209 -68.5t114 -176.5zM396 -133q0 -39 -27.5 -68.5t-74.5 -29.5q-31 0 -55.5 18.5t-32.5 49.5l51 26q14 -38 36 -38q20 0 31.5 13.5t11.5 29.5q0 28 -28 28q-10 0 -26 -15l-5 -5l-41 38l118 120l42 -39l-49 -48q49 -25 49 -80z" />
    <glyph glyph-name="Egrave" unicode="&#xc8;" horiz-adv-x="534" 
d="M306 975l223 -90l-31 -66l-223 90zM159 750h415l-14 -70h-335l-58 -270h305l-15 -70h-305l-57 -270h335l-15 -70h-415z" />
    <glyph glyph-name="Eacute" unicode="&#xc9;" horiz-adv-x="534" 
d="M533 975l18 -66l-261 -90l-17 66zM159 750h415l-14 -70h-335l-58 -270h305l-15 -70h-305l-57 -270h335l-15 -70h-415z" />
    <glyph glyph-name="Ecircumflex" unicode="&#xca;" horiz-adv-x="534" 
d="M421 968l142 -87l-36 -59l-110 69l-149 -69l-24 62zM159 750h415l-14 -70h-335l-58 -270h305l-15 -70h-305l-57 -270h335l-15 -70h-415z" />
    <glyph glyph-name="Edieresis" unicode="&#xcb;" horiz-adv-x="534" 
d="M159 750h415l-14 -70h-335l-58 -270h305l-15 -70h-305l-57 -270h335l-15 -70h-415zM485 944h80l-22 -100h-80zM265 944h80l-22 -100h-80z" />
    <glyph glyph-name="Igrave" unicode="&#xcc;" horiz-adv-x="209" 
d="M146 975l223 -90l-31 -66l-223 90zM159 750h80l-159 -750h-80z" />
    <glyph glyph-name="Iacute" unicode="&#xcd;" horiz-adv-x="209" 
d="M363 975l18 -66l-261 -90l-17 66zM159 750h80l-159 -750h-80z" />
    <glyph glyph-name="Icircumflex" unicode="&#xce;" horiz-adv-x="209" 
d="M241 968l142 -87l-36 -59l-110 69l-149 -69l-24 62zM159 750h80l-159 -750h-80z" />
    <glyph glyph-name="Idieresis" unicode="&#xcf;" horiz-adv-x="209" 
d="M159 750h80l-159 -750h-80zM314 944h80l-22 -100h-80zM94 944h80l-22 -100h-80z" />
    <glyph glyph-name="Eth" unicode="&#xd0;" horiz-adv-x="765" 
d="M797 439q0 -87 -38.5 -168.5t-101 -140.5t-146 -94.5t-170.5 -35.5h-262l73 346h-112l14 65h112l72 339h246q134 0 223.5 -91t89.5 -220zM715 439q0 104 -69 172.5t-178 68.5h-165l-57 -269h113l-14 -65h-113l-58 -276h165q94 0 181 51.5t141 137.5t54 180z" />
    <glyph glyph-name="Ntilde" unicode="&#xd1;" horiz-adv-x="694" 
d="M644 750h80l-159 -750h-80l-272 624l-133 -624h-80l159 750h80l272 -626zM589 950h58q-9 -43 -41.5 -72t-73.5 -29q-29 0 -48 9t-26 20t-18.5 20t-28.5 9q-19 0 -35 -13.5t-21 -33.5h-58q9 43 41.5 72t74.5 29q29 0 47.5 -9t25 -19.5t19 -19.5t29.5 -9q19 0 35 13.5
t20 32.5z" />
    <glyph glyph-name="Ograve" unicode="&#xd2;" horiz-adv-x="876" 
d="M466 975l223 -90l-31 -66l-223 90zM857 447q0 -120 -67 -228.5t-176.5 -173.5t-229.5 -65q-143 0 -238.5 93.5t-95.5 229.5q0 120 67 228.5t177 173.5t230 65q143 0 238 -93.5t95 -229.5zM776 445q0 110 -70.5 182.5t-182.5 72.5q-99 0 -190.5 -56.5t-146.5 -148
t-55 -190.5q0 -110 70.5 -182.5t182.5 -72.5q99 0 190.5 56.5t146.5 148t55 190.5z" />
    <glyph glyph-name="Oacute" unicode="&#xd3;" horiz-adv-x="876" 
d="M673 975l18 -66l-261 -90l-17 66zM857 447q0 -120 -67 -228.5t-176.5 -173.5t-229.5 -65q-143 0 -238.5 93.5t-95.5 229.5q0 120 67 228.5t177 173.5t230 65q143 0 238 -93.5t95 -229.5zM776 445q0 110 -70.5 182.5t-182.5 72.5q-99 0 -190.5 -56.5t-146.5 -148
t-55 -190.5q0 -110 70.5 -182.5t182.5 -72.5q99 0 190.5 56.5t146.5 148t55 190.5z" />
    <glyph glyph-name="Ocircumflex" unicode="&#xd4;" horiz-adv-x="876" 
d="M561 968l142 -87l-36 -59l-110 69l-149 -69l-24 62zM857 447q0 -120 -67 -228.5t-176.5 -173.5t-229.5 -65q-143 0 -238.5 93.5t-95.5 229.5q0 120 67 228.5t177 173.5t230 65q143 0 238 -93.5t95 -229.5zM776 445q0 110 -70.5 182.5t-182.5 72.5q-99 0 -190.5 -56.5
t-146.5 -148t-55 -190.5q0 -110 70.5 -182.5t182.5 -72.5q99 0 190.5 56.5t146.5 148t55 190.5z" />
    <glyph glyph-name="Otilde" unicode="&#xd5;" horiz-adv-x="876" 
d="M669 950h58q-9 -43 -41.5 -72t-73.5 -29q-29 0 -48 9t-26 20t-18.5 20t-28.5 9q-19 0 -35 -13.5t-21 -33.5h-58q9 43 41.5 72t74.5 29q29 0 47.5 -9t25 -19.5t19 -19.5t29.5 -9q19 0 35 13.5t20 32.5zM857 447q0 -120 -67 -228.5t-176.5 -173.5t-229.5 -65
q-143 0 -238.5 93.5t-95.5 229.5q0 120 67 228.5t177 173.5t230 65q143 0 238 -93.5t95 -229.5zM776 445q0 110 -70.5 182.5t-182.5 72.5q-99 0 -190.5 -56.5t-146.5 -148t-55 -190.5q0 -110 70.5 -182.5t182.5 -72.5q99 0 190.5 56.5t146.5 148t55 190.5z" />
    <glyph glyph-name="Odieresis" unicode="&#xd6;" horiz-adv-x="876" 
d="M635 944h80l-22 -100h-80zM415 944h80l-22 -100h-80zM857 447q0 -120 -67 -228.5t-176.5 -173.5t-229.5 -65q-143 0 -238.5 93.5t-95.5 229.5q0 120 67 228.5t177 173.5t230 65q143 0 238 -93.5t95 -229.5zM776 445q0 110 -70.5 182.5t-182.5 72.5q-99 0 -190.5 -56.5
t-146.5 -148t-55 -190.5q0 -110 70.5 -182.5t182.5 -72.5q99 0 190.5 56.5t146.5 148t55 190.5z" />
    <glyph glyph-name="multiply" unicode="&#xd7;" horiz-adv-x="625" 
d="M533 598l42 -52l-215 -175l127 -173l-56 -46l-127 173l-213 -173l-41 55l214 173l-126 171l55 47l127 -173z" />
    <glyph glyph-name="Oslash" unicode="&#xd8;" horiz-adv-x="876" 
d="M857 447q0 -120 -67 -228.5t-176.5 -173.5t-229.5 -65q-76 0 -137 27l-50 -74l-61 32l50 75q-64 44 -100 113t-36 150q0 120 67 228.5t177 173.5t230 65q73 0 136 -26l46 69l61 -32l-47 -70q64 -44 100.5 -113t36.5 -151zM776 445q0 133 -96 205l-392 -583q45 -17 96 -17
q99 0 190.5 56.5t146.5 148t55 190.5zM227 100l392 583q-45 17 -96 17q-99 0 -190.5 -56.5t-146.5 -148t-55 -190.5q0 -131 96 -205z" />
    <glyph glyph-name="Ugrave" unicode="&#xd9;" horiz-adv-x="716" 
d="M396 975l223 -90l-31 -66l-223 90zM667 750h80l-103 -484q-26 -121 -121 -203.5t-214 -82.5q-106 0 -177.5 69.5t-71.5 169.5q0 27 6 55l101 476h80l-102 -480q-5 -20 -5 -48q0 -74 47 -123t121 -49q87 0 162.5 64.5t94.5 155.5z" />
    <glyph glyph-name="Uacute" unicode="&#xda;" horiz-adv-x="716" 
d="M623 975l18 -66l-261 -90l-17 66zM667 750h80l-103 -484q-26 -121 -121 -203.5t-214 -82.5q-106 0 -177.5 69.5t-71.5 169.5q0 27 6 55l101 476h80l-102 -480q-5 -20 -5 -48q0 -74 47 -123t121 -49q87 0 162.5 64.5t94.5 155.5z" />
    <glyph glyph-name="Ucircumflex" unicode="&#xdb;" horiz-adv-x="716" 
d="M511 968l142 -87l-36 -59l-110 69l-149 -69l-24 62zM667 750h80l-103 -484q-26 -121 -121 -203.5t-214 -82.5q-106 0 -177.5 69.5t-71.5 169.5q0 27 6 55l101 476h80l-102 -480q-5 -20 -5 -48q0 -74 47 -123t121 -49q87 0 162.5 64.5t94.5 155.5z" />
    <glyph glyph-name="Udieresis" unicode="&#xdc;" horiz-adv-x="716" 
d="M667 750h80l-103 -484q-26 -121 -121 -203.5t-214 -82.5q-106 0 -177.5 69.5t-71.5 169.5q0 27 6 55l101 476h80l-102 -480q-5 -20 -5 -48q0 -74 47 -123t121 -49q87 0 162.5 64.5t94.5 155.5zM575 944h80l-22 -100h-80zM355 944h80l-22 -100h-80z" />
    <glyph glyph-name="Yacute" unicode="&#xdd;" horiz-adv-x="730" 
d="M593 975l18 -66l-261 -90l-17 66zM692 750h98l-397 -435l-67 -315h-80l67 315l-213 435h80l178 -365z" />
    <glyph glyph-name="Thorn" unicode="&#xde;" horiz-adv-x="584" 
d="M549 406q0 -96 -71.5 -166t-167.5 -70h-194l-36 -170h-80l159 750h80l-36 -170h173q74 0 123.5 -51t49.5 -123zM468 408q0 45 -26.5 73.5t-72.5 28.5h-180l-58 -270h180q64 0 110.5 51.5t46.5 116.5z" />
    <glyph glyph-name="germandbls" unicode="&#xdf;" horiz-adv-x="574" 
d="M559 593q0 -51 -26.5 -99t-79.5 -81l-82 -52q-44 -27 -44 -53q0 -34 31 -44l52 -17q35 -12 62 -42.5t27 -72.5q0 -70 -48.5 -112t-114.5 -42q-53 0 -94 29t-55 85l71 26q8 -35 30.5 -53t51.5 -18q32 0 55 21.5t23 57.5q0 40 -48 55l-33 11q-40 13 -64.5 42t-24.5 69
q0 71 79 120l82 51q32 20 50 53.5t18 68.5q0 46 -27.5 73.5t-65.5 27.5q-47 0 -88.5 -33t-53.5 -89l-122 -575h-80l81 380h-80l15 70h80l30 142q19 89 80 133t138 44q71 0 123 -48t52 -128z" />
    <glyph glyph-name="agrave" unicode="&#xe0;" horiz-adv-x="604" 
d="M489 450h80l-97 -450h-80l14 62q-74 -81 -181 -81q-83 0 -141.5 54.5t-58.5 151.5q0 82 44 148t109 100t132 34q112 0 165 -84zM444 263q0 60 -36.5 98.5t-95.5 38.5q-80 0 -143 -64.5t-63 -145.5q0 -60 37 -100t95 -40q81 0 143.5 66t62.5 147zM307 785l199 -141
l-43 -55l-199 141z" />
    <glyph glyph-name="aacute" unicode="&#xe1;" horiz-adv-x="604" 
d="M489 450h80l-97 -450h-80l14 62q-74 -81 -181 -81q-83 0 -141.5 54.5t-58.5 151.5q0 82 44 148t109 100t132 34q112 0 165 -84zM444 263q0 60 -36.5 98.5t-95.5 38.5q-80 0 -143 -64.5t-63 -145.5q0 -60 37 -100t95 -40q81 0 143.5 66t62.5 147zM476 785l41 -60
l-223 -136l-41 60z" />
    <glyph glyph-name="acircumflex" unicode="&#xe2;" horiz-adv-x="604" 
d="M489 450h80l-97 -450h-80l14 62q-74 -81 -181 -81q-83 0 -141.5 54.5t-58.5 151.5q0 82 44 148t109 100t132 34q112 0 165 -84zM444 263q0 60 -36.5 98.5t-95.5 38.5q-80 0 -143 -64.5t-63 -145.5q0 -60 37 -100t95 -40q81 0 143.5 66t62.5 147zM413 784l128 -148
l-50 -47l-89 103l-137 -103l-42 52z" />
    <glyph glyph-name="atilde" unicode="&#xe3;" horiz-adv-x="604" 
d="M489 450h80l-97 -450h-80l14 62q-74 -81 -181 -81q-83 0 -141.5 54.5t-58.5 151.5q0 82 44 148t109 100t132 34q112 0 165 -84zM444 263q0 60 -36.5 98.5t-95.5 38.5q-80 0 -143 -64.5t-63 -145.5q0 -60 37 -100t95 -40q81 0 143.5 66t62.5 147zM499 750h58
q-9 -43 -41.5 -72t-73.5 -29q-29 0 -48 9t-26 20t-18.5 20t-28.5 9q-19 0 -35 -13.5t-21 -33.5h-58q9 43 41.5 72t74.5 29q29 0 47.5 -9t25 -19.5t19 -19.5t29.5 -9q19 0 35 13.5t20 32.5z" />
    <glyph glyph-name="adieresis" unicode="&#xe4;" horiz-adv-x="604" 
d="M489 450h80l-97 -450h-80l14 62q-74 -81 -181 -81q-83 0 -141.5 54.5t-58.5 151.5q0 82 44 148t109 100t132 34q112 0 165 -84zM444 263q0 60 -36.5 98.5t-95.5 38.5q-80 0 -143 -64.5t-63 -145.5q0 -60 37 -100t95 -40q81 0 143.5 66t62.5 147zM479 750h80l-22 -100h-80
zM259 750h80l-22 -100h-80z" />
    <glyph glyph-name="aring" unicode="&#xe5;" horiz-adv-x="604" 
d="M489 450h80l-97 -450h-80l14 62q-74 -81 -181 -81q-83 0 -141.5 54.5t-58.5 151.5q0 82 44 148t109 100t132 34q112 0 165 -84zM444 263q0 60 -36.5 98.5t-95.5 38.5q-80 0 -143 -64.5t-63 -145.5q0 -60 37 -100t95 -40q81 0 143.5 66t62.5 147zM496 677
q0 -42 -29.5 -71.5t-72.5 -29.5q-42 0 -71.5 29.5t-29.5 71.5q0 43 29.5 72.5t71.5 29.5q43 0 72.5 -29.5t29.5 -72.5zM441 677q0 19 -13.5 33t-33.5 14q-19 0 -32.5 -14t-13.5 -33t13.5 -32.5t32.5 -13.5t33 13.5t14 32.5z" />
    <glyph glyph-name="ae" unicode="&#xe6;" horiz-adv-x="992" 
d="M937 262q0 -34 -10 -72h-409v-2q0 -59 37 -98.5t95 -39.5q92 0 166 90l63 -42q-42 -54 -104.5 -86t-129.5 -32q-105 0 -158 86l-15 -66h-80l14 62q-74 -81 -181 -81q-83 0 -141.5 54.5t-58.5 151.5q0 82 44 148t109 100t132 34q112 0 165 -84l14 65h80l-9 -41
q75 61 170 61q88 0 147.5 -61t59.5 -147zM860 262q0 59 -38.5 98.5t-97.5 39.5q-61 0 -114.5 -40.5t-77.5 -100.5h328v3zM444 263q0 60 -36.5 98.5t-95.5 38.5q-80 0 -143 -64.5t-63 -145.5q0 -60 37 -100t95 -40q81 0 143.5 66t62.5 147z" />
    <glyph glyph-name="ccedilla" unicode="&#xe7;" horiz-adv-x="538" 
d="M276 -133q0 -39 -27.5 -68.5t-74.5 -29.5q-31 0 -55.5 18.5t-32.5 49.5l51 26q14 -38 36 -38q20 0 31.5 13.5t11.5 29.5q0 28 -28 28q-10 0 -26 -15l-5 -5l-41 38l118 120l42 -39l-49 -48q49 -25 49 -80zM509 345l-68 -35q-42 90 -129 90q-80 0 -143 -65.5t-63 -146.5
q0 -59 37 -98.5t95 -39.5q92 0 166 90l63 -42q-42 -54 -104.5 -86t-129.5 -32q-88 0 -148 60.5t-60 146.5q0 115 89 199t204 84q65 0 116 -34.5t75 -90.5z" />
    <glyph glyph-name="egrave" unicode="&#xe8;" 
d="M525 262q0 -34 -10 -72h-409v-2q0 -59 37 -98.5t95 -39.5q92 0 166 90l63 -42q-42 -54 -104.5 -86t-129.5 -32q-88 0 -148 60.5t-60 146.5q0 115 89 199t204 84q88 0 147.5 -61t59.5 -147zM448 262q0 59 -38.5 98.5t-97.5 39.5q-61 0 -114.5 -40.5t-77.5 -100.5h328v3z
M287 785l199 -141l-43 -55l-199 141z" />
    <glyph glyph-name="eacute" unicode="&#xe9;" 
d="M525 262q0 -34 -10 -72h-409v-2q0 -59 37 -98.5t95 -39.5q92 0 166 90l63 -42q-42 -54 -104.5 -86t-129.5 -32q-88 0 -148 60.5t-60 146.5q0 115 89 199t204 84q88 0 147.5 -61t59.5 -147zM448 262q0 59 -38.5 98.5t-97.5 39.5q-61 0 -114.5 -40.5t-77.5 -100.5h328v3z
M446 785l41 -60l-223 -136l-41 60z" />
    <glyph glyph-name="ecircumflex" unicode="&#xea;" 
d="M525 262q0 -34 -10 -72h-409v-2q0 -59 37 -98.5t95 -39.5q92 0 166 90l63 -42q-42 -54 -104.5 -86t-129.5 -32q-88 0 -148 60.5t-60 146.5q0 115 89 199t204 84q88 0 147.5 -61t59.5 -147zM448 262q0 59 -38.5 98.5t-97.5 39.5q-61 0 -114.5 -40.5t-77.5 -100.5h328v3z
M393 784l128 -148l-50 -47l-89 103l-137 -103l-42 52z" />
    <glyph glyph-name="edieresis" unicode="&#xeb;" 
d="M525 262q0 -34 -10 -72h-409v-2q0 -59 37 -98.5t95 -39.5q92 0 166 90l63 -42q-42 -54 -104.5 -86t-129.5 -32q-88 0 -148 60.5t-60 146.5q0 115 89 199t204 84q88 0 147.5 -61t59.5 -147zM448 262q0 59 -38.5 98.5t-97.5 39.5q-61 0 -114.5 -40.5t-77.5 -100.5h328v3z
M449 750h80l-22 -100h-80zM229 750h80l-22 -100h-80z" />
    <glyph glyph-name="igrave" unicode="&#xec;" horiz-adv-x="209" 
d="M96 450h80l-96 -450h-80zM107 785l199 -141l-43 -55l-199 141z" />
    <glyph glyph-name="iacute" unicode="&#xed;" horiz-adv-x="209" 
d="M96 450h80l-96 -450h-80zM266 785l41 -60l-223 -136l-41 60z" />
    <glyph glyph-name="icircumflex" unicode="&#xee;" horiz-adv-x="209" 
d="M96 450h80l-96 -450h-80zM203 784l128 -148l-50 -47l-89 103l-137 -103l-42 52z" />
    <glyph glyph-name="idieresis" unicode="&#xef;" horiz-adv-x="209" 
d="M96 450h80l-96 -450h-80zM265 750h80l-22 -100h-80zM45 750h80l-22 -100h-80z" />
    <glyph glyph-name="eth" unicode="&#xf0;" 
d="M195 572l341 174l-18 -83l-341 -174zM525 262q0 -114 -88.5 -198t-203.5 -84q-88 0 -148 60.5t-60 146.5q0 115 89 199t204 84q31 0 66 -10l-105 290h80l153 -414q13 -37 13 -74zM444 262q0 59 -37 98.5t-95 39.5q-80 0 -143 -65.5t-63 -146.5q0 -59 37 -98.5t95 -39.5
q81 0 143.5 65.5t62.5 146.5z" />
    <glyph glyph-name="ntilde" unicode="&#xf1;" horiz-adv-x="537" 
d="M473 315q0 -12 -4 -38l-59 -277h-80l61 285q2 9 2 26q0 41 -26.5 65.5t-71.5 24.5q-54 0 -100 -38t-57 -91l-58 -272h-80l96 450h80l-12 -54q52 74 146 74q67 0 115 -41.5t48 -113.5zM459 750h58q-9 -43 -41.5 -72t-73.5 -29q-29 0 -48 9t-26 20t-18.5 20t-28.5 9
q-19 0 -35 -13.5t-21 -33.5h-58q9 43 41.5 72t74.5 29q29 0 47.5 -9t25 -19.5t19 -19.5t29.5 -9q19 0 35 13.5t20 32.5z" />
    <glyph glyph-name="ograve" unicode="&#xf2;" 
d="M525 262q0 -114 -88.5 -198t-203.5 -84q-88 0 -148 60.5t-60 146.5q0 115 89 199t204 84q88 0 147.5 -61t59.5 -147zM444 262q0 59 -37 98.5t-95 39.5q-80 0 -143 -65.5t-63 -146.5q0 -59 37 -98.5t95 -39.5q81 0 143.5 65.5t62.5 146.5zM287 785l199 -141l-43 -55
l-199 141z" />
    <glyph glyph-name="oacute" unicode="&#xf3;" 
d="M525 262q0 -114 -88.5 -198t-203.5 -84q-88 0 -148 60.5t-60 146.5q0 115 89 199t204 84q88 0 147.5 -61t59.5 -147zM444 262q0 59 -37 98.5t-95 39.5q-80 0 -143 -65.5t-63 -146.5q0 -59 37 -98.5t95 -39.5q81 0 143.5 65.5t62.5 146.5zM446 785l41 -60l-223 -136
l-41 60z" />
    <glyph glyph-name="ocircumflex" unicode="&#xf4;" 
d="M525 262q0 -114 -88.5 -198t-203.5 -84q-88 0 -148 60.5t-60 146.5q0 115 89 199t204 84q88 0 147.5 -61t59.5 -147zM444 262q0 59 -37 98.5t-95 39.5q-80 0 -143 -65.5t-63 -146.5q0 -59 37 -98.5t95 -39.5q81 0 143.5 65.5t62.5 146.5zM393 784l128 -148l-50 -47
l-89 103l-137 -103l-42 52z" />
    <glyph glyph-name="otilde" unicode="&#xf5;" 
d="M525 262q0 -114 -88.5 -198t-203.5 -84q-88 0 -148 60.5t-60 146.5q0 115 89 199t204 84q88 0 147.5 -61t59.5 -147zM444 262q0 59 -37 98.5t-95 39.5q-80 0 -143 -65.5t-63 -146.5q0 -59 37 -98.5t95 -39.5q81 0 143.5 65.5t62.5 146.5zM489 750h58q-9 -43 -41.5 -72
t-73.5 -29q-29 0 -48 9t-26 20t-18.5 20t-28.5 9q-19 0 -35 -13.5t-21 -33.5h-58q9 43 41.5 72t74.5 29q29 0 47.5 -9t25 -19.5t19 -19.5t29.5 -9q19 0 35 13.5t20 32.5z" />
    <glyph glyph-name="odieresis" unicode="&#xf6;" 
d="M525 262q0 -114 -88.5 -198t-203.5 -84q-88 0 -148 60.5t-60 146.5q0 115 89 199t204 84q88 0 147.5 -61t59.5 -147zM444 262q0 59 -37 98.5t-95 39.5q-80 0 -143 -65.5t-63 -146.5q0 -59 37 -98.5t95 -39.5q81 0 143.5 65.5t62.5 146.5zM449 750h80l-22 -100h-80z
M229 750h80l-22 -100h-80z" />
    <glyph glyph-name="divide" unicode="&#xf7;" horiz-adv-x="634" 
d="M336 650h80l-25 -120h-80zM45 410h560l-15 -70h-560zM244 220h80l-25 -120h-80z" />
    <glyph glyph-name="oslash" unicode="&#xf8;" 
d="M525 262q0 -114 -88.5 -198t-203.5 -84q-41 0 -73 13l-44 -65l-63 31l46 69q-74 61 -74 159q0 115 89 199t204 84q39 0 72 -12l43 64l63 -31l-45 -68q74 -61 74 -161zM444 262q0 59 -36 98l-206 -305q18 -5 36 -5q81 0 143.5 65.5t62.5 146.5zM142 91l206 305
q-22 4 -36 4q-80 0 -143 -65.5t-63 -146.5q0 -59 36 -97z" />
    <glyph glyph-name="ugrave" unicode="&#xf9;" horiz-adv-x="537" 
d="M423 450h80l-96 -450h-80l12 55q-51 -75 -147 -75q-66 0 -114 41.5t-48 113.5q0 21 4 38l59 277h80l-61 -285q-3 -14 -3 -26q0 -41 27 -65.5t71 -24.5q54 0 100.5 38t57.5 91zM267 785l199 -141l-43 -55l-199 141z" />
    <glyph glyph-name="uacute" unicode="&#xfa;" horiz-adv-x="537" 
d="M423 450h80l-96 -450h-80l12 55q-51 -75 -147 -75q-66 0 -114 41.5t-48 113.5q0 21 4 38l59 277h80l-61 -285q-3 -14 -3 -26q0 -41 27 -65.5t71 -24.5q54 0 100.5 38t57.5 91zM436 785l41 -60l-223 -136l-41 60z" />
    <glyph glyph-name="ucircumflex" unicode="&#xfb;" horiz-adv-x="537" 
d="M423 450h80l-96 -450h-80l12 55q-51 -75 -147 -75q-66 0 -114 41.5t-48 113.5q0 21 4 38l59 277h80l-61 -285q-3 -14 -3 -26q0 -41 27 -65.5t71 -24.5q54 0 100.5 38t57.5 91zM383 784l128 -148l-50 -47l-89 103l-137 -103l-42 52z" />
    <glyph glyph-name="udieresis" unicode="&#xfc;" horiz-adv-x="537" 
d="M423 450h80l-96 -450h-80l12 55q-51 -75 -147 -75q-66 0 -114 41.5t-48 113.5q0 21 4 38l59 277h80l-61 -285q-3 -14 -3 -26q0 -41 27 -65.5t71 -24.5q54 0 100.5 38t57.5 91zM439 750h80l-22 -100h-80zM219 750h80l-22 -100h-80z" />
    <glyph glyph-name="yacute" unicode="&#xfd;" horiz-adv-x="449" 
d="M405 450h85l-413 -647q-54 -83 -145 -83q-38 0 -82 18l15 69q28 -18 63 -18q57 0 87 47l99 156l-98 458h76l77 -372zM416 785l41 -60l-223 -136l-41 60z" />
    <glyph glyph-name="thorn" unicode="&#xfe;" horiz-adv-x="611" 
d="M556 262q0 -121 -89.5 -201t-195.5 -80q-113 0 -164 83l-72 -334h-80l217 1020h80l-77 -363q73 82 181 82q83 0 141.5 -54.5t58.5 -152.5zM475 260q0 60 -37 100t-95 40q-80 0 -143 -66.5t-63 -147.5q0 -59 36.5 -97.5t95.5 -38.5q81 0 143.5 64.5t62.5 145.5z" />
    <glyph glyph-name="ydieresis" unicode="&#xff;" horiz-adv-x="449" 
d="M405 450h85l-413 -647q-54 -83 -145 -83q-38 0 -82 18l15 69q28 -18 63 -18q57 0 87 47l99 156l-98 458h76l77 -372zM369 750h80l-22 -100h-80zM149 750h80l-22 -100h-80z" />
    <glyph glyph-name="dotlessi" unicode="&#x131;" horiz-adv-x="209" 
d="M96 450h80l-96 -450h-80z" />
    <glyph glyph-name="Lslash" unicode="&#x141;" horiz-adv-x="568" 
d="M154 70h335l-15 -70h-415l67 314l-126 -64l17 81l126 64l75 355h80l-65 -309l126 65l-17 -81l-126 -65z" />
    <glyph glyph-name="lslash" unicode="&#x142;" horiz-adv-x="329" 
d="M233 441l126 65l-17 -81l-126 -65l-77 -360h-80l67 314l-126 -64l17 81l126 64l75 355h80z" />
    <glyph glyph-name="OE" unicode="&#x152;" horiz-adv-x="1224" 
d="M849 750h415l-14 -70h-335l-58 -270h305l-15 -70h-304l-58 -270h335l-15 -70h-415l27 126q-67 -68 -154.5 -107t-178.5 -39q-143 0 -238.5 93.5t-95.5 229.5q0 120 67 228.5t177 173.5t230 65q96 0 174 -45t120 -122zM776 445q0 110 -70.5 182.5t-182.5 72.5
q-99 0 -190.5 -56.5t-146.5 -148t-55 -190.5q0 -110 70.5 -182.5t182.5 -72.5q99 0 190.5 56.5t146.5 148t55 190.5z" />
    <glyph glyph-name="oe" unicode="&#x153;" horiz-adv-x="993" 
d="M938 262q0 -34 -10 -72h-409v-2q0 -59 37 -98.5t95 -39.5q92 0 166 90l63 -42q-42 -54 -104.5 -86t-129.5 -32q-61 0 -110 30t-75 81q-42 -51 -102.5 -81t-125.5 -30q-88 0 -148 60.5t-60 146.5q0 115 89 199t204 84q61 0 109.5 -30.5t74.5 -80.5q43 51 103.5 81
t125.5 30q88 0 147.5 -61t59.5 -147zM861 262q0 59 -38.5 98.5t-97.5 39.5q-61 0 -114.5 -40.5t-77.5 -100.5h328v3zM444 262q0 59 -37 98.5t-95 39.5q-80 0 -143 -65.5t-63 -146.5q0 -59 37 -98.5t95 -39.5q81 0 143.5 65.5t62.5 146.5z" />
    <glyph glyph-name="Scaron" unicode="&#x160;" horiz-adv-x="607" 
d="M539 968l24 -61l-178 -85l-141 88l36 58l110 -69zM597 571l-67 -24q-4 76 -49.5 115t-109.5 39q-71 0 -127.5 -46t-56.5 -119q0 -35 24 -64t60 -38l122 -30q71 -17 108.5 -67.5t37.5 -115.5q0 -95 -75.5 -168.5t-207.5 -73.5q-100 0 -170 51t-76 147l72 28
q0 -72 50 -113.5t122 -41.5q91 0 146.5 52t55.5 116q0 40 -24 71t-71 43l-116 29q-60 15 -98.5 64.5t-38.5 108.5q0 73 39.5 128.5t98.5 82t125 26.5q91 0 155.5 -51.5t70.5 -148.5z" />
    <glyph glyph-name="scaron" unicode="&#x161;" horiz-adv-x="433" 
d="M403 360l-72 -26q-8 35 -36 52t-62 17q-46 0 -72.5 -24.5t-26.5 -54.5q0 -37 35 -45l81 -19q56 -13 84.5 -46t28.5 -75q0 -62 -54 -110.5t-142 -48.5q-67 0 -116.5 27.5t-60.5 83.5l72 26q20 -70 107 -70q45 0 78.5 28.5t33.5 60.5q0 41 -53 52l-81 19q-45 11 -69.5 42
t-24.5 70q0 70 56.5 110.5t127.5 40.5q61 0 108 -28.5t58 -81.5zM419 784l42 -52l-190 -143l-128 148l50 47l89 -103z" />
    <glyph glyph-name="Ydieresis" unicode="&#x178;" horiz-adv-x="730" 
d="M692 750h98l-397 -435l-67 -315h-80l67 315l-213 435h80l178 -365zM545 944h80l-22 -100h-80zM325 944h80l-22 -100h-80z" />
    <glyph glyph-name="Zcaron" unicode="&#x17d;" 
d="M569 968l24 -61l-178 -85l-141 88l36 58l110 -69zM119 750h531l-14 -70l-556 -610h426l-15 -70h-531l15 70l556 610h-426z" />
    <glyph glyph-name="zcaron" unicode="&#x17e;" horiz-adv-x="418" 
d="M59 450h359l-15 -70l-329 -310h268l-15 -70h-367l15 70l329 310h-260zM409 784l42 -52l-190 -143l-128 148l50 47l89 -103z" />
    <glyph glyph-name="circumflex" unicode="&#x2c6;" 
d="M393 784l128 -148l-50 -47l-89 103l-137 -103l-42 52z" />
    <glyph glyph-name="caron" unicode="&#x2c7;" 
d="M479 784l42 -52l-190 -143l-128 148l50 47l89 -103z" />
    <glyph glyph-name="breve" unicode="&#x2d8;" horiz-adv-x="589" 
d="M409 775l50 -33q-69 -92 -171 -92q-49 0 -86.5 25.5t-55.5 68.5l60 31q26 -63 88 -63t115 63z" />
    <glyph glyph-name="dotaccent" unicode="&#x2d9;" horiz-adv-x="590" 
d="M280 774h80l-26 -120h-80z" />
    <glyph glyph-name="ring" unicode="&#x2da;" horiz-adv-x="590" 
d="M396 677q0 -42 -29.5 -71.5t-72.5 -29.5q-42 0 -71.5 29.5t-29.5 71.5q0 43 29.5 72.5t71.5 29.5q43 0 72.5 -29.5t29.5 -72.5zM341 677q0 19 -13.5 33t-33.5 14q-19 0 -32.5 -14t-13.5 -33t13.5 -32.5t32.5 -13.5t33 13.5t14 32.5z" />
    <glyph glyph-name="ogonek" unicode="&#x2db;" horiz-adv-x="556" 
d="M298 50l20 -56q-37 -20 -61.5 -52.5t-24.5 -71.5q0 -55 40 -83l-41 -52q-29 21 -46 57t-17 74q0 60 35.5 107.5t94.5 76.5z" />
    <glyph glyph-name="tilde" unicode="&#x2dc;" horiz-adv-x="590" 
d="M419 750h58q-9 -43 -41.5 -72t-73.5 -29q-29 0 -48 9t-26 20t-18.5 20t-28.5 9q-19 0 -35 -13.5t-21 -33.5h-58q9 43 41.5 72t74.5 29q29 0 47.5 -9t25 -19.5t19 -19.5t29.5 -9q19 0 35 13.5t20 32.5z" />
    <glyph glyph-name="hungarumlaut" unicode="&#x2dd;" horiz-adv-x="598" 
d="M474 801l61 -50l-135 -144l-60 49zM219 801l61 -50l-135 -144l-60 49z" />
    <glyph glyph-name="endash" unicode="&#x2013;" horiz-adv-x="490" 
d="M45 310h415l-15 -70h-415z" />
    <glyph glyph-name="emdash" unicode="&#x2014;" horiz-adv-x="825" 
d="M45 310h750l-15 -70h-750z" />
    <glyph glyph-name="quoteleft" unicode="&#x2018;" horiz-adv-x="203" 
d="M143 770l100 -235l-62 -39l-101 236z" />
    <glyph glyph-name="quoteright" unicode="&#x2019;" horiz-adv-x="227" 
d="M246 770l61 -38l-186 -236l-61 39z" />
    <glyph glyph-name="quotesinglbase" unicode="&#x201a;" horiz-adv-x="187" 
d="M86 128l61 -38l-186 -235l-61 38z" />
    <glyph glyph-name="quotedblleft" unicode="&#x201c;" horiz-adv-x="353" 
d="M293 770l100 -235l-62 -39l-101 236zM143 770l100 -235l-62 -39l-101 236z" />
    <glyph glyph-name="quotedblright" unicode="&#x201d;" horiz-adv-x="401" 
d="M420 770l61 -38l-186 -236l-61 39zM246 770l61 -38l-186 -236l-61 39z" />
    <glyph glyph-name="quotedblbase" unicode="&#x201e;" horiz-adv-x="361" 
d="M260 128l61 -38l-186 -236l-61 39zM86 128l61 -38l-186 -236l-61 39z" />
    <glyph glyph-name="dagger" unicode="&#x2020;" horiz-adv-x="520" 
d="M337 450h170l-15 -70h-170l-102 -480h-80l102 480h-170l15 70h170l43 200h80z" />
    <glyph glyph-name="daggerdbl" unicode="&#x2021;" horiz-adv-x="520" 
d="M336 450h170l-15 -70h-170l-44 -210h170l-15 -70h-170l-43 -200h-80l43 200h-170l15 70h170l44 210h-170l15 70h170l43 200h80z" />
    <glyph glyph-name="bullet" unicode="&#x2022;" horiz-adv-x="534" 
d="M475 395q0 -84 -64.5 -145.5t-149.5 -61.5q-67 0 -114 46.5t-47 112.5q0 84 64.5 146t148.5 62q67 0 114.5 -47t47.5 -113z" />
    <glyph glyph-name="ellipsis" unicode="&#x2026;" horiz-adv-x="615" 
d="M436 120h80l-26 -120h-80zM226 120h80l-26 -120h-80zM16 120h80l-26 -120h-80z" />
    <glyph glyph-name="perthousand" unicode="&#x2030;" horiz-adv-x="1210" 
d="M1141 187q0 -84 -64.5 -146t-149.5 -62q-67 0 -114 47t-47 113q0 84 64.5 146t148.5 62q67 0 114.5 -47t47.5 -113zM445 610q0 -84 -64.5 -145.5t-149.5 -61.5q-67 0 -114 46.5t-47 112.5q0 84 64.5 146t148.5 62q67 0 114.5 -47t47.5 -113zM662 770l53 -34l-566 -756
l-53 34zM739 187q0 -84 -64.5 -146t-149.5 -62q-67 0 -114 47t-47 113q0 84 64.5 146t148.5 62q67 0 114.5 -47t47.5 -113zM1070 188q0 40 -25.5 67t-65.5 27q-54 0 -98 -44.5t-44 -98.5q0 -40 25.5 -67t65.5 -27q54 0 98 44.5t44 98.5zM374 611q0 40 -25.5 67t-65.5 27
q-54 0 -98 -44.5t-44 -98.5q0 -40 25.5 -67t65.5 -27q54 0 98 44.5t44 98.5zM668 188q0 40 -25.5 67t-65.5 27q-54 0 -98 -44.5t-44 -98.5q0 -40 25.5 -67t65.5 -27q54 0 98 44.5t44 98.5z" />
    <glyph glyph-name="guilsinglleft" unicode="&#x2039;" horiz-adv-x="263" 
d="M212 426l41 -52l-157 -129l97 -123l-55 -45l-138 174z" />
    <glyph glyph-name="guilsinglright" unicode="&#x203a;" horiz-adv-x="253" 
d="M95 426l138 -175l-212 -174l-41 52l157 129l-97 123z" />
    <glyph glyph-name="Euro" unicode="&#x20ac;" horiz-adv-x="978" 
d="M949 525l-70 -27q-19 88 -89.5 145t-165.5 57t-183.5 -52.5t-143.5 -137.5h275l-14 -70h-298q-27 -66 -28 -130h298l-15 -70h-276q20 -85 86 -137.5t161 -52.5q99 0 191 56.5t147 146.5l69 -31q-65 -108 -175.5 -175t-232.5 -67q-125 0 -215.5 73t-112.5 187h-137l15 70
h116q1 67 24 130h-112l14 70h129q63 115 178 187.5t242 72.5q120 0 208.5 -68.5t114.5 -176.5z" />
    <glyph glyph-name="minus" unicode="&#x2212;" horiz-adv-x="634" 
d="M45 410h560l-15 -70h-560z" />
    </font>
</defs>
</svg>
