<?xml version="1.0" standalone="no"?>
<!DOCTYPE svg PUBLIC "-//W3C//DTD SVG 1.1//EN" "http://www.w3.org/Graphics/SVG/1.1/DTD/svg11.dtd" >
<svg xmlns="http://www.w3.org/2000/svg" xmlns:xlink="http://www.w3.org/1999/xlink" version="1.1">
<metadata>
Created by FontForge 20170731 at Fri Oct 15 14:39:29 2010
 By Aleksey,,,
Generated in 2010 by FontLab Studio. Copyright info pending.
</metadata>
<defs>
<font id="AnoRegular-Regular" horiz-adv-x="240" >
  <font-face 
    font-family="Ano Regular"
    font-weight="400"
    font-stretch="normal"
    units-per-em="1000"
    panose-1="0 0 0 0 0 0 0 0 0 0"
    ascent="800"
    descent="-200"
    x-height="450"
    cap-height="750"
    bbox="-39 -280 1192 975"
    underline-thickness="20"
    underline-position="-173"
    unicode-range="U+0020-2212"
  />
<missing-glyph horiz-adv-x="200" 
 />
    <glyph glyph-name=".notdef" horiz-adv-x="200" 
 />
    <glyph glyph-name=".null" horiz-adv-x="0" 
 />
    <glyph glyph-name="nonmarkingreturn" horiz-adv-x="333" 
 />
    <glyph glyph-name="space" unicode=" " horiz-adv-x="200" 
 />
    <glyph glyph-name="exclam" unicode="!" 
d="M160 750v-530h-80v530h80zM160 120v-120h-80v120h80z" />
    <glyph glyph-name="quotedbl" unicode="&#x22;" horiz-adv-x="400" 
d="M320 750v-230h-80v230h80zM160 750v-230h-80v230h80z" />
    <glyph glyph-name="numbersign" unicode="#" horiz-adv-x="592" 
d="M452 510h120l-14 -70h-120l-28 -130h120l-15 -70h-120l-51 -240h-80l51 240h-95l-51 -240h-80l51 240h-120l15 70h120l28 130h-120l14 70h120l51 240h80l-51 -240h95l51 240h80zM330 310l28 130h-95l-28 -130h95z" />
    <glyph glyph-name="dollar" unicode="$" horiz-adv-x="639" 
d="M570 207q0 -84 -59 -150.5t-162 -75.5v-121h-68v122q-79 11 -137.5 61t-73.5 134l71 30q9 -65 48 -104t92 -50v301l-42 11q-72 19 -110 72t-38 118q0 78 50.5 139.5t139.5 72.5v123h68v-122q78 -10 134 -60.5t70 -136.5l-68 -27q-11 64 -48.5 103t-87.5 49v-278l69 -18
q74 -19 113 -72.5t39 -120.5zM262 440l19 -5v261q-51 -11 -80 -50t-29 -86q0 -42 23 -75.5t67 -44.5zM489 201q0 44 -27.5 78.5t-79.5 48.5l-33 9v-286q64 9 102 53t38 97z" />
    <glyph glyph-name="percent" unicode="%" horiz-adv-x="821" 
d="M408 586q0 -76 -54 -129.5t-130 -53.5t-130 53.5t-54 129.5t54 130t130 54t130 -54t54 -130zM583 770l60 -34l-406 -756l-60 34zM782 164q0 -76 -54 -130t-130 -54t-130 54t-54 130t54 130t130 54t130 -54t54 -130zM338 586q0 48 -33.5 83.5t-80.5 35.5t-80.5 -35.5
t-33.5 -83.5t33.5 -83t80.5 -35t80.5 35t33.5 83zM712 164q0 48 -33.5 83.5t-80.5 35.5t-80.5 -35.5t-33.5 -83.5t33.5 -83.5t80.5 -35.5t80.5 35.5t33.5 83.5z" />
    <glyph glyph-name="ampersand" unicode="&#x26;" horiz-adv-x="585" 
d="M585 300v-70h-89v-35q-1 -101 -69.5 -157.5t-161.5 -56.5q-103 0 -166.5 62t-63.5 145q0 58 33.5 108t100.5 79q-54 24 -86 71t-32 109q0 89 63 152t152 63q85 0 146.5 -58t67.5 -142l-71 -28q-7 64 -44 111t-99 47q-56 0 -95.5 -42.5t-39.5 -102.5t39.5 -102.5
t95.5 -42.5v-70q-69 0 -109 -44.5t-40 -104.5q0 -58 39 -99.5t110 -41.5q61 0 105.5 38t44.5 107v35h-66v70h235z" />
    <glyph glyph-name="quotesingle" unicode="'" 
d="M160 750v-230h-80v230h80z" />
    <glyph glyph-name="parenleft" unicode="(" horiz-adv-x="396" 
d="M346 3l-18 -63q-89 11 -153.5 77t-94.5 159t-30 199t30 199t94.5 159t153.5 77l18 -63q-103 -16 -160.5 -123.5t-57.5 -248.5t57.5 -248.5t160.5 -123.5z" />
    <glyph glyph-name="parenright" unicode=")" horiz-adv-x="396" 
d="M346 375q0 -107 -30 -199.5t-94.5 -158.5t-153.5 -77l-18 63q103 16 160.5 123.5t57.5 248.5t-57.5 248.5t-160.5 123.5l18 63q89 -11 153.5 -77t94.5 -158.5t30 -199.5z" />
    <glyph glyph-name="asterisk" unicode="*" horiz-adv-x="521" 
d="M477 622l24 -76l-175 -57l108 -150l-64 -47l-109 150l-109 -150l-65 47l109 150l-176 57l25 76l176 -57v185h80v-185z" />
    <glyph glyph-name="plus" unicode="+" horiz-adv-x="640" 
d="M600 410v-70h-240v-240h-80v240h-240v70h240v240h80v-240h240z" />
    <glyph glyph-name="comma" unicode="," horiz-adv-x="210" 
d="M101 128l69 -38l-136 -235l-69 38z" />
    <glyph glyph-name="hyphen" unicode="-" horiz-adv-x="345" 
d="M305 310v-70h-265v70h265z" />
    <glyph glyph-name="period" unicode="." 
d="M160 120v-120h-80v120h80z" />
    <glyph glyph-name="slash" unicode="/" horiz-adv-x="474" 
d="M401 822l73 -33l-401 -861l-73 33z" />
    <glyph glyph-name="zero" unicode="0" horiz-adv-x="590" 
d="M540 525v-300q0 -101 -72 -173t-173 -72t-173 72t-72 173v300q0 101 72 173t173 72t173 -72t72 -173zM460 225v300q0 73 -48.5 124t-116.5 51t-116.5 -51t-48.5 -124v-300q0 -73 48.5 -124t116.5 -51t116.5 51t48.5 124z" />
    <glyph glyph-name="one" unicode="1" horiz-adv-x="420" 
d="M341 750v-750h-80v644l-168 -169l-53 52l221 223h80z" />
    <glyph glyph-name="two" unicode="2" horiz-adv-x="536" 
d="M486 562q0 -84 -56 -152l-278 -340h328v-70h-430v69l312 381q43 53 43 113q0 64 -38.5 101t-92.5 37t-96 -37t-51 -106l-69 29q11 88 71.5 135.5t139.5 47.5q88 0 152.5 -55.5t64.5 -152.5z" />
    <glyph glyph-name="three" unicode="3" horiz-adv-x="567" 
d="M516 195q0 -89 -68.5 -152t-164.5 -63q-89 0 -155.5 54.5t-76.5 134.5l73 30q11 -68 54.5 -108.5t104.5 -40.5q63 0 108 44.5t45 107.5q0 62 -45 106.5t-108 44.5h-94v68h94q56 0 95.5 41t39.5 99t-39.5 98.5t-95.5 40.5q-53 0 -91.5 -36.5t-52.5 -99.5l-70 29
q10 75 71 126t143 51q89 0 152 -59.5t63 -143.5q0 -57 -31 -104.5t-82 -74.5q59 -27 95 -78.5t36 -114.5z" />
    <glyph glyph-name="four" unicode="4" horiz-adv-x="575" 
d="M561 218v-70h-105v-148h-80v148h-336v70l336 532h80v-532h105zM120 218h256v405z" />
    <glyph glyph-name="five" unicode="5" horiz-adv-x="585" 
d="M535 225q0 -101 -71.5 -173t-173.5 -72q-89 0 -154 55t-86 143l71 29q15 -72 60.5 -114.5t108.5 -42.5q68 0 116.5 51t48.5 124t-48.5 124t-116.5 51q-15 0 -29 -0.5t-27 -2.5t-22.5 -3t-21.5 -4.5t-18 -5t-18 -5.5l-15 -5t-14.5 -6t-12.5 -5l33 387h341v-70h-270
l-19 -221q49 11 93 11q102 0 173.5 -72t71.5 -173z" />
    <glyph glyph-name="six" unicode="6" horiz-adv-x="590" 
d="M540 225q0 -101 -72 -173t-173 -72t-173 72t-72 173q0 64 32 122l233 403h93l-165 -285q28 5 52 5q101 0 173 -72t72 -173zM460 225q0 73 -48.5 124t-116.5 51t-116.5 -51t-48.5 -124t48.5 -124t116.5 -51t116.5 51t48.5 124z" />
    <glyph glyph-name="seven" unicode="7" horiz-adv-x="493" 
d="M457 750v-70l-320 -680h-86l320 680h-331v70h417z" />
    <glyph glyph-name="eight" unicode="8" horiz-adv-x="567" 
d="M517 195q0 -89 -68.5 -152t-164.5 -63q-97 0 -165.5 63t-68.5 152q0 63 36 114.5t95 78.5q-51 27 -82 74.5t-31 104.5q0 84 63 143.5t153 59.5q89 0 152 -59.5t63 -143.5q0 -57 -31 -104.5t-82 -74.5q59 -27 95 -78.5t36 -114.5zM419 561q0 58 -39.5 98.5t-95.5 40.5
t-96 -40.5t-40 -98.5t40 -99t96 -41t95.5 41t39.5 99zM437 202q0 62 -45 106.5t-108 44.5q-64 0 -109 -44.5t-45 -106.5q0 -63 45 -107.5t109 -44.5q63 0 108 44.5t45 107.5z" />
    <glyph glyph-name="nine" unicode="9" horiz-adv-x="570" 
d="M520 536q0 -63 -31 -116l-244 -420h-94l179 307q-20 -4 -45 -4q-98 0 -166.5 68t-68.5 165t69 165.5t166 68.5t166 -68.5t69 -165.5zM439 536q0 67 -45 115t-109 48t-109 -48t-45 -115t45 -114.5t109 -47.5t109 47.5t45 114.5z" />
    <glyph glyph-name="colon" unicode=":" 
d="M160 450v-120h-80v120h80zM160 120v-120h-80v120h80z" />
    <glyph glyph-name="semicolon" unicode=";" 
d="M160 450v-120h-80v120h80zM101 128l69 -38l-136 -235l-69 38z" />
    <glyph glyph-name="less" unicode="&#x3c;" horiz-adv-x="406" 
d="M119 371l247 -247l-49 -50l-297 297l297 297l49 -49z" />
    <glyph glyph-name="equal" unicode="=" horiz-adv-x="640" 
d="M600 510v-70h-560v70h560zM600 310v-70h-560v70h560z" />
    <glyph glyph-name="greater" unicode="&#x3e;" horiz-adv-x="406" 
d="M88 668l297 -297l-297 -297l-49 50l247 247l-247 248z" />
    <glyph glyph-name="question" unicode="?" horiz-adv-x="571" 
d="M522 552q0 -80 -55 -135q-23 -23 -53 -38t-51.5 -23t-41.5 -21t-30.5 -41t-10.5 -74h-80q0 61 14.5 101t39 59.5t50 30.5t55.5 25t47 33q36 39 36 88q0 65 -44.5 104t-104.5 39t-109.5 -39.5t-65.5 -116.5l-68 27q12 94 82 146.5t160 52.5q94 0 162 -57.5t68 -160.5z
M274 120v-120h-80v120h80z" />
    <glyph glyph-name="at" unicode="@" horiz-adv-x="870" 
d="M840 375q0 -104 -42.5 -156.5t-101.5 -52.5q-38 0 -71.5 21.5t-48.5 59.5q-54 -80 -148 -80q-83 0 -143 61t-60 147t60 147t143 61q80 0 137 -62v46h80l-1 -267q0 -25 17 -44t38 -19q26 0 43.5 33.5t17.5 104.5q0 134 -92.5 229.5t-222.5 95.5t-222.5 -95.5t-92.5 -229.5
t92.5 -229.5t222.5 -95.5q133 0 226 99l53 -53q-114 -116 -279 -116q-163 0 -279 116t-116 279t116 279t279 116t279 -116t116 -279zM565 375q0 57 -39 97.5t-92 40.5t-91 -40.5t-38 -97.5t38 -97.5t91 -40.5t92 40.5t39 97.5z" />
    <glyph glyph-name="A" unicode="A" horiz-adv-x="688" 
d="M388 750l290 -750h-84l-77 204h-346l-77 -204h-84l290 750h88zM198 274h293l-147 387z" />
    <glyph glyph-name="B" unicode="B" horiz-adv-x="625" 
d="M575 200q0 -82 -58.5 -141t-141.5 -59h-295v750h275q83 0 141.5 -58.5t58.5 -141.5q0 -55 -28.5 -100.5t-74.5 -69.5q57 -24 90 -71.5t33 -108.5zM473 545q0 57 -35 96t-90 39h-188v-270h188q55 0 90 39t35 96zM493 205q0 57 -35 96t-90 39h-208v-270h208q55 0 90 39
t35 96z" />
    <glyph glyph-name="C" unicode="C" horiz-adv-x="870" 
d="M737 254l73 -30q-45 -109 -144.5 -176.5t-220.5 -67.5q-163 0 -279 116t-116 279t116 279t279 116q121 0 220.5 -67.5t144.5 -176.5l-73 -30q-35 91 -114.5 147.5t-177.5 56.5q-130 0 -222.5 -95.5t-92.5 -229.5t92.5 -229.5t222.5 -95.5q98 0 177.5 56.5t114.5 147.5z
" />
    <glyph glyph-name="D" unicode="D" horiz-adv-x="760" 
d="M710 375q0 -155 -110 -265t-265 -110h-255v750h255q155 0 265 -110t110 -265zM630 375q0 126 -89.5 215.5t-215.5 89.5h-165v-610h165q126 0 215.5 89.5t89.5 215.5z" />
    <glyph glyph-name="E" unicode="E" horiz-adv-x="555" 
d="M495 70v-70h-415v750h415v-70h-335v-270h305v-70h-305v-270h335z" />
    <glyph glyph-name="F" unicode="F" horiz-adv-x="555" 
d="M495 750v-70h-335v-270h305v-70h-305v-340h-80v750h415z" />
    <glyph glyph-name="G" unicode="G" horiz-adv-x="890" 
d="M840 375q0 -163 -116 -279t-279 -116t-279 116t-116 279t116 279t279 116q165 0 279 -116l-53 -53q-93 99 -226 99q-130 0 -222.5 -95.5t-92.5 -229.5t92.5 -229.5t222.5 -95.5q122 0 211 83.5t102 206.5h-313v70h394q0 -6 0.5 -17.5t0.5 -17.5z" />
    <glyph glyph-name="H" unicode="H" horiz-adv-x="710" 
d="M630 750v-750h-80v340h-390v-340h-80v750h80v-340h390v340h80z" />
    <glyph glyph-name="I" unicode="I" 
d="M160 750v-750h-80v750h80z" />
    <glyph glyph-name="J" unicode="J" horiz-adv-x="560" 
d="M480 750v-549q0 -91 -65 -156t-156 -65q-83 0 -145 54t-74 135l69 28q10 -59 50 -103t100 -44q58 0 99.5 44.5t41.5 106.5v549h80z" />
    <glyph glyph-name="K" unicode="K" horiz-adv-x="594" 
d="M480 750h94l-320 -376l318 -374h-94l-318 374zM160 750v-750h-80v750h80z" />
    <glyph glyph-name="L" unicode="L" horiz-adv-x="535" 
d="M495 70v-70h-415v750h80v-680h335z" />
    <glyph glyph-name="M" unicode="M" horiz-adv-x="860" 
d="M780 750v-750h-80v615l-230 -365h-80l-230 365v-615h-80v750h80l270 -428l270 428h80z" />
    <glyph glyph-name="N" unicode="N" horiz-adv-x="725" 
d="M645 750v-750h-80l-405 616v-616h-80v750h80l405 -617v617h80z" />
    <glyph glyph-name="O" unicode="O" horiz-adv-x="890" 
d="M840 375q0 -163 -116 -279t-279 -116t-279 116t-116 279t116 279t279 116t279 -116t116 -279zM760 375q0 134 -92.5 229.5t-222.5 95.5t-222.5 -95.5t-92.5 -229.5t92.5 -229.5t222.5 -95.5t222.5 95.5t92.5 229.5z" />
    <glyph glyph-name="P" unicode="P" horiz-adv-x="585" 
d="M545 545q0 -85 -60 -145t-145 -60h-180v-340h-80v750h260q85 0 145 -60t60 -145zM465 545q0 57 -35 96t-90 39h-180v-270h180q55 0 90 39t35 96z" />
    <glyph glyph-name="Q" unicode="Q" horiz-adv-x="890" 
d="M734 106l106 -106h-112l-53 54q-102 -74 -230 -74q-163 0 -279 116t-116 279t116 279t279 116t279 -116t116 -279q0 -157 -106 -269zM760 375q0 134 -92.5 229.5t-222.5 95.5t-222.5 -95.5t-92.5 -229.5t92.5 -229.5t222.5 -95.5q97 0 177 56l-193 194h111l141 -141
q79 94 79 216z" />
    <glyph glyph-name="R" unicode="R" horiz-adv-x="612" 
d="M283 340l289 -340h-96l-316 372v-372h-80v750h250q85 0 145 -60t60 -145t-60 -145t-145 -60h-47zM455 545q0 57 -35 96t-90 39h-170v-270h170q55 0 90 39t35 96z" />
    <glyph glyph-name="S" unicode="S" horiz-adv-x="639" 
d="M579 209q0 -108 -77.5 -168.5t-182.5 -60.5q-96 0 -169 51t-90 146l71 30q14 -80 66 -118.5t122 -38.5q72 0 126 41.5t54 111.5q0 43 -28.5 78.5t-78.5 47.5l-163 37q-69 16 -108 68t-39 118q0 104 69.5 161t165.5 57q92 0 163.5 -52.5t82.5 -146.5l-68 -27
q-16 79 -65 117t-117 38q-72 0 -111.5 -42.5t-39.5 -99.5q0 -42 24 -75.5t66 -43.5l176 -40q71 -17 111 -69.5t40 -119.5z" />
    <glyph glyph-name="T" unicode="T" horiz-adv-x="562" 
d="M542 750v-70h-221v-680h-80v680h-221v70h522z" />
    <glyph glyph-name="U" unicode="U" horiz-adv-x="740" 
d="M660 750v-480q0 -120 -85 -205t-205 -85t-205 85t-85 205v480h80v-480q0 -91 61.5 -155.5t148.5 -64.5t148.5 64.5t61.5 155.5v480h80z" />
    <glyph glyph-name="V" unicode="V" horiz-adv-x="708" 
d="M623 750h85l-310 -750h-87l-311 750h84l270 -667z" />
    <glyph glyph-name="W" unicode="W" horiz-adv-x="1000" 
d="M918 750h82l-230 -750h-79l-191 637l-191 -637h-79l-230 750h82l188 -634l191 634h78l191 -634z" />
    <glyph glyph-name="X" unicode="X" horiz-adv-x="768" 
d="M432 375l296 -375h-95l-249 315l-249 -315h-95l297 375l-297 375h95l249 -315l249 315h95z" />
    <glyph glyph-name="Y" unicode="Y" horiz-adv-x="730" 
d="M618 750h92l-305 -435v-315h-80v315l-305 435h92l253 -360z" />
    <glyph glyph-name="Z" unicode="Z" horiz-adv-x="571" 
d="M551 70v-70h-531v70l426 610h-426v70h531v-70l-426 -610h426z" />
    <glyph glyph-name="bracketleft" unicode="[" horiz-adv-x="355" 
d="M295 -50v-70h-215v870h215v-70h-135v-730h135z" />
    <glyph glyph-name="backslash" unicode="\" horiz-adv-x="474" 
d="M73 822l401 -861l-73 -33l-401 861z" />
    <glyph glyph-name="bracketright" unicode="]" horiz-adv-x="355" 
d="M275 750v-870h-215v70h135v730h-135v70h215z" />
    <glyph glyph-name="underscore" unicode="_" horiz-adv-x="455" 
d="M435 -60v-70h-415v70h415z" />
    <glyph glyph-name="grave" unicode="`" horiz-adv-x="589" 
d="M209 785l228 -136l-36 -60l-228 136z" />
    <glyph glyph-name="a" unicode="a" horiz-adv-x="625" 
d="M545 450v-450h-80v73q-65 -93 -176 -93q-97 0 -168 72t-71 173t71 173t168 72q111 0 176 -93v73h80zM465 225q0 73 -49.5 124t-118.5 51t-118 -51t-49 -124t49 -124t118 -51t118.5 51t49.5 124z" />
    <glyph glyph-name="b" unicode="b" horiz-adv-x="625" 
d="M575 225q0 -101 -71 -173t-168 -72q-111 0 -176 93v-73h-80v750h80v-373q65 93 176 93q97 0 168 -72t71 -173zM495 225q0 73 -49 124t-118 51t-118.5 -51t-49.5 -124t49.5 -124t118.5 -51t118 51t49 124z" />
    <glyph glyph-name="c" unicode="c" horiz-adv-x="556" 
d="M440 140l65 -37q-35 -58 -90.5 -90.5t-120.5 -32.5q-101 0 -173 72t-72 173t72 173t173 72q65 0 120.5 -32.5t90.5 -90.5l-65 -37q-52 91 -147 91q-69 0 -116.5 -51.5t-47.5 -124.5q0 -74 47.5 -125t116.5 -51q95 0 147 91z" />
    <glyph glyph-name="d" unicode="d" horiz-adv-x="625" 
d="M545 750v-750h-80v73q-65 -93 -176 -93q-97 0 -168 72t-71 173t71 173t168 72q111 0 176 -93v373h80zM465 225q0 73 -49.5 124t-118.5 51t-118 -51t-49 -124t49 -124t118 -51t118.5 51t49.5 124z" />
    <glyph glyph-name="e" unicode="e" horiz-adv-x="589" 
d="M540 225q0 -3 -0.5 -7t-1 -11.5t-0.5 -16.5h-411q12 -60 58.5 -101.5t109.5 -41.5q45 0 84 24.5t64 68.5l63 -37q-35 -58 -90.5 -90.5t-120.5 -32.5q-101 0 -173 72t-72 173t72 173t173 72t173 -72t72 -173zM127 259h335q-12 61 -59 102.5t-108 41.5q-63 0 -109.5 -41.5
t-58.5 -102.5z" />
    <glyph glyph-name="f" unicode="f" horiz-adv-x="340" 
d="M300 450v-70h-100v-380h-80v380h-80v70h80v190q0 55 38.5 92.5t97.5 37.5q26 0 44 -5v-72q-18 5 -44 5q-23 0 -39.5 -17.5t-16.5 -43.5v-187h100z" />
    <glyph glyph-name="g" unicode="g" horiz-adv-x="625" 
d="M545 450v-485q0 -110 -78.5 -177.5t-181.5 -67.5q-66 0 -124 31t-93 92l65 37q52 -89 154 -89q71 0 124.5 48t53.5 126v108q-65 -93 -176 -93q-97 0 -168 72t-71 173t71 173t168 72q111 0 176 -93v73h80zM465 225q0 73 -49.5 124t-118.5 51t-118 -51t-49 -124t49 -124
t118 -51t118.5 51t49.5 124z" />
    <glyph glyph-name="h" unicode="h" horiz-adv-x="570" 
d="M490 285v-285h-80v285q0 51 -34 83.5t-86 32.5q-54 0 -92 -38t-38 -91v-272h-80v750h80v-354q49 74 143 74q75 0 131 -50t56 -135z" />
    <glyph glyph-name="i" unicode="i" 
d="M160 750v-120h-80v120h80zM160 450v-450h-80v450h80z" />
    <glyph glyph-name="j" unicode="j" 
d="M160 750v-120h-80v120h80zM160 450v-600q0 -54 -40 -92t-96 -38q-26 0 -44 5v69q23 -5 44 -5q23 0 39.5 17.5t16.5 43.5v600h80z" />
    <glyph glyph-name="k" unicode="k" horiz-adv-x="465" 
d="M253 224l192 -224h-94l-191 224l191 226h94zM160 750v-750h-80v750h80z" />
    <glyph glyph-name="l" unicode="l" 
d="M160 750v-750h-80v750h80z" />
    <glyph glyph-name="m" unicode="m" horiz-adv-x="774" 
d="M694 311v-311h-80v303q0 46 -25.5 71.5t-61.5 25.5q-42 0 -71 -25t-29 -73v-302h-80v308q0 45 -25 68.5t-62 23.5q-42 0 -71 -25t-29 -73v-302h-80v450h80v-48q17 31 47.5 49.5t67.5 18.5q38 0 72 -18t48 -46q46 64 135 64q65 0 114.5 -42.5t49.5 -116.5z" />
    <glyph glyph-name="n" unicode="n" horiz-adv-x="570" 
d="M490 285v-285h-80v285q0 51 -34 83.5t-86 32.5q-54 0 -92 -38t-38 -91v-272h-80v450h80v-54q49 74 143 74q75 0 131 -50t56 -135z" />
    <glyph glyph-name="o" unicode="o" horiz-adv-x="590" 
d="M540 225q0 -101 -72 -173t-173 -72t-173 72t-72 173t72 173t173 72t173 -72t72 -173zM460 225q0 73 -48.5 124t-116.5 51t-116.5 -51t-48.5 -124t48.5 -124t116.5 -51t116.5 51t48.5 124z" />
    <glyph glyph-name="p" unicode="p" horiz-adv-x="625" 
d="M575 225q0 -101 -71 -173t-168 -72q-111 0 -176 93v-343h-80v720h80v-73q65 93 176 93q97 0 168 -72t71 -173zM495 225q0 73 -49 124t-118 51t-118.5 -51t-49.5 -124t49.5 -124t118.5 -51t118 51t49 124z" />
    <glyph glyph-name="q" unicode="q" horiz-adv-x="625" 
d="M545 450v-720h-80v343q-65 -93 -176 -93q-97 0 -168 72t-71 173t71 173t168 72q111 0 176 -93v73h80zM465 225q0 73 -49.5 124t-118.5 51t-118 -51t-49 -124t49 -124t118 -51t118.5 51t49.5 124z" />
    <glyph glyph-name="r" unicode="r" horiz-adv-x="358" 
d="M328 467v-72q-17 5 -38 5q-54 0 -92 -37.5t-38 -90.5v-272h-80v450h80v-51q47 71 143 71q4 0 25 -3z" />
    <glyph glyph-name="s" unicode="s" horiz-adv-x="460" 
d="M410 123q0 -69 -51 -106t-123 -37q-64 0 -117 29.5t-69 81.5l69 27q31 -71 114 -71q40 0 69 20.5t29 57.5q0 44 -63 58l-84 19q-116 25 -116 129q0 67 48 103t115 36q61 0 110.5 -29t64.5 -81l-69 -27q-15 35 -44 52.5t-62 17.5q-36 0 -61 -19.5t-25 -52.5
q0 -18 12.5 -35.5t32.5 -21.5l85 -19q63 -14 99 -43t36 -89z" />
    <glyph glyph-name="t" unicode="t" horiz-adv-x="320" 
d="M280 450v-70h-80v-380h-80v380h-80v70h80v300h80v-300h80z" />
    <glyph glyph-name="u" unicode="u" horiz-adv-x="570" 
d="M490 450v-450h-80v54q-49 -74 -143 -74q-75 0 -131 50t-56 135v285h80v-285q0 -51 34 -83.5t86 -32.5q54 0 92 37.5t38 91.5v272h80z" />
    <glyph glyph-name="v" unicode="v" horiz-adv-x="494" 
d="M399 450h85l-192 -450h-90l-192 450h85l152 -380z" />
    <glyph glyph-name="w" unicode="w" horiz-adv-x="716" 
d="M621 450h85l-153 -450h-86l-109 366l-109 -366h-86l-153 450h85l111 -361l107 361h90l107 -361z" />
    <glyph glyph-name="x" unicode="x" horiz-adv-x="467" 
d="M279 225l178 -225h-91l-133 171l-132 -171h-91l178 225l-178 225h91l132 -171l133 171h91z" />
    <glyph glyph-name="y" unicode="y" horiz-adv-x="502" 
d="M407 450h85l-282 -639q-20 -45 -57 -68t-82 -23q-47 0 -78 18v73q35 -21 72 -21q51 0 71 46l73 165l-199 449h85l156 -354z" />
    <glyph glyph-name="z" unicode="z" horiz-adv-x="457" 
d="M427 70v-70h-367v70l263 310h-260v70h359v-70l-263 -310h268z" />
    <glyph glyph-name="braceleft" unicode="{" horiz-adv-x="349" 
d="M309 -49v-70h-16q-78 0 -126 44t-48 119v143q0 46 -27 69.5t-72 23.5v70q45 0 72 24t27 70v142q0 75 48 119.5t126 44.5h16v-70h-16q-44 0 -69 -23.5t-25 -69.5v-143q0 -85 -67 -129q67 -42 67 -128v-143q0 -46 24.5 -69.5t69.5 -23.5h16z" />
    <glyph glyph-name="bar" unicode="|" 
d="M160 750v-870h-80v870h80z" />
    <glyph glyph-name="braceright" unicode="}" horiz-adv-x="349" 
d="M329 350v-70q-45 0 -72 -23.5t-27 -69.5v-143q0 -75 -48 -119t-126 -44h-16v70h17q44 0 68.5 23.5t24.5 69.5v143q0 86 67 128q-67 44 -67 129v143q0 46 -24.5 69.5t-68.5 23.5h-17v70h16q78 0 126 -44.5t48 -119.5v-142q0 -46 27 -70t72 -24z" />
    <glyph glyph-name="nbspace" unicode="&#xa0;" horiz-adv-x="200" 
 />
    <glyph glyph-name="exclamdown" unicode="&#xa1;" 
d="M160 750v-120h-80v120h80zM160 530v-530h-80v530h80z" />
    <glyph glyph-name="cent" unicode="&#xa2;" horiz-adv-x="556" 
d="M440 140l65 -37q-65 -106 -178 -121v-122h-68v122q-90 13 -150 82t-60 161t60 160.5t150 81.5v122h68v-121q113 -15 178 -121l-65 -37q-39 71 -113 87v-344q74 16 113 87zM259 53v344q-57 -13 -93.5 -61t-36.5 -111q0 -64 36.5 -112t93.5 -60z" />
    <glyph glyph-name="sterling" unicode="&#xa3;" horiz-adv-x="563" 
d="M503 587l-69 -29q-8 68 -50 106t-92 38q-46 0 -77.5 -31t-31.5 -87q0 -25 5 -45l28 -129h224v-70h-209l59 -270h200v-70h-410v70h134l-58 270h-76v70h61l-28 129q-6 29 -6 53q0 83 56 131.5t133 48.5q75 0 134.5 -48t72.5 -137z" />
    <glyph glyph-name="yen" unicode="&#xa5;" horiz-adv-x="730" 
d="M590 750h92l-230 -327h173v-70h-220v-100h220v-70h-220v-183h-80v183h-220v70h220v100h-220v70h173l-230 327h92l225 -320z" />
    <glyph glyph-name="section" unicode="&#xa7;" horiz-adv-x="890" 
d="M840 375q0 -163 -116 -279t-279 -116t-279 116t-116 279t116 279t279 116q121 0 220.5 -67.5t144.5 -176.5l-73 -30q-35 91 -114.5 147.5t-177.5 56.5q-130 0 -222.5 -95.5t-92.5 -229.5t92.5 -229.5t222.5 -95.5q122 0 211 83.5t102 206.5h-313v70h394q0 -6 0.5 -17.5
t0.5 -17.5z" />
    <glyph glyph-name="dieresis" unicode="&#xa8;" horiz-adv-x="589" 
d="M448 750v-100h-80v100h80zM228 750v-100h-80v100h80z" />
    <glyph glyph-name="copyright" unicode="&#xa9;" horiz-adv-x="890" 
d="M840 375q0 -163 -116 -279t-279 -116t-279 116t-116 279t116 279t279 116t279 -116t116 -279zM760 375q0 134 -92.5 229.5t-222.5 95.5t-222.5 -95.5t-92.5 -229.5t92.5 -229.5t222.5 -95.5t222.5 95.5t92.5 229.5zM591 290l65 -37q-35 -58 -90.5 -90.5t-120.5 -32.5
q-101 0 -173 72t-72 173t72 173t173 72q65 0 120.5 -32.5t90.5 -90.5l-65 -37q-52 91 -147 91q-69 0 -116.5 -51.5t-47.5 -124.5t47.5 -124.5t116.5 -51.5q95 0 147 91z" />
    <glyph glyph-name="guillemotleft" unicode="&#xab;" horiz-adv-x="474" 
d="M329 251l125 -125l-49 -49l-175 174l175 175l49 -49zM119 251l125 -125l-49 -49l-175 174l175 175l49 -49z" />
    <glyph glyph-name="macron" unicode="&#xaf;" horiz-adv-x="590" 
d="M446 750v-70h-305v70h305z" />
    <glyph glyph-name="degree" unicode="&#xb0;" horiz-adv-x="447" 
d="M408 586q0 -76 -54 -129.5t-130 -53.5t-130 53.5t-54 129.5t54 130t130 54t130 -54t54 -130zM338 586q0 48 -33.5 83.5t-80.5 35.5t-80.5 -35.5t-33.5 -83.5t33.5 -83t80.5 -35t80.5 35t33.5 83z" />
    <glyph glyph-name="acute" unicode="&#xb4;" horiz-adv-x="589" 
d="M381 785l36 -60l-228 -136l-36 60z" />
    <glyph glyph-name="cedilla" unicode="&#xb8;" horiz-adv-x="556" 
d="M365 -136q0 -37 -25.5 -65.5t-68.5 -28.5q-26 0 -52 16t-40 47l49 29q15 -37 46 -37q16 0 25 11.5t9 25.5t-9 24t-24 10q-12 0 -24 -15l-5 -7l-50 38l95 122l50 -39l-39 -48q31 -11 47 -33.5t16 -49.5z" />
    <glyph glyph-name="guillemotright" unicode="&#xbb;" horiz-adv-x="474" 
d="M279 426l175 -175l-175 -174l-49 49l125 125l-125 126zM69 426l175 -175l-175 -174l-49 49l125 125l-125 126z" />
    <glyph glyph-name="questiondown" unicode="&#xbf;" horiz-adv-x="571" 
d="M378 770v-120h-80v120h80zM453 226l69 -28q-12 -93 -82.5 -145.5t-159.5 -52.5q-94 0 -162 57.5t-68 160.5q0 80 55 135q23 23 53 38t51.5 23t41.5 21t30.5 41t10.5 74h80q0 -61 -14.5 -101t-39 -59.5t-50 -30.5t-55.5 -25t-47 -33q-36 -39 -36 -88q0 -65 44 -104
t105 -39q60 0 109 40t65 116z" />
    <glyph glyph-name="Agrave" unicode="&#xc0;" horiz-adv-x="688" 
d="M239 975l250 -90l-24 -66l-250 90zM388 750l290 -750h-84l-77 204h-346l-77 -204h-84l290 750h88zM198 274h293l-147 387z" />
    <glyph glyph-name="Aacute" unicode="&#xc1;" horiz-adv-x="688" 
d="M455 975l24 -66l-250 -90l-24 66zM388 750l290 -750h-84l-77 204h-346l-77 -204h-84l290 750h88zM198 274h293l-147 387z" />
    <glyph glyph-name="Acircumflex" unicode="&#xc2;" horiz-adv-x="688" 
d="M345 968l159 -84l-32 -62l-127 67l-128 -67l-32 62zM388 750l290 -750h-84l-77 204h-346l-77 -204h-84l290 750h88zM198 274h293l-147 387z" />
    <glyph glyph-name="Atilde" unicode="&#xc3;" horiz-adv-x="688" 
d="M388 750l290 -750h-84l-77 204h-346l-77 -204h-84l290 750h88zM198 274h293l-147 387zM457 950h55q0 -42 -29.5 -71.5t-71.5 -29.5q-29 0 -49 9t-28 20t-20.5 20t-29.5 9q-20 0 -33.5 -13.5t-13.5 -33.5h-55q0 42 29.5 71.5t71.5 29.5q29 0 49 -9t28 -19.5t21 -19.5
t30 -9q19 0 32.5 13t13.5 33z" />
    <glyph glyph-name="Adieresis" unicode="&#xc4;" horiz-adv-x="688" 
d="M388 750l290 -750h-84l-77 204h-346l-77 -204h-84l290 750h88zM198 274h293l-147 387zM494 944v-100h-80v100h80zM274 944v-100h-80v100h80z" />
    <glyph glyph-name="Aring" unicode="&#xc5;" horiz-adv-x="688" 
d="M388 750l290 -750h-84l-77 204h-346l-77 -204h-84l290 750h88zM198 274h293l-147 387zM445 827q0 -42 -29.5 -71.5t-72.5 -29.5q-42 0 -71.5 29.5t-29.5 71.5q0 43 29.5 72.5t71.5 29.5q43 0 72.5 -29.5t29.5 -72.5zM390 827q0 19 -14 33t-33 14t-32.5 -14t-13.5 -33
t13.5 -32.5t32.5 -13.5t33 13.5t14 32.5z" />
    <glyph glyph-name="AE" unicode="&#xc6;" horiz-adv-x="975" 
d="M915 70v-70h-415v204h-293l-123 -204h-84l458 750h457v-70h-335v-270h305v-70h-305v-270h335zM249 274h251v416z" />
    <glyph glyph-name="Ccedilla" unicode="&#xc7;" horiz-adv-x="870" 
d="M737 254l73 -30q-41 -99 -128 -165t-196 -77l-28 -35q31 -11 47 -33.5t16 -49.5q0 -37 -25.5 -65.5t-68.5 -28.5q-26 0 -52 16t-40 47l49 29q15 -37 46 -37q16 0 25 11.5t9 25.5t-9 24t-24 10q-12 0 -24 -15l-5 -7l-50 38l55 70q-151 14 -254 127t-103 266q0 163 116 279
t279 116q121 0 220.5 -67.5t144.5 -176.5l-73 -30q-35 91 -114.5 147.5t-177.5 56.5q-130 0 -222.5 -95.5t-92.5 -229.5t92.5 -229.5t222.5 -95.5q98 0 177.5 56.5t114.5 147.5z" />
    <glyph glyph-name="Egrave" unicode="&#xc8;" horiz-adv-x="555" 
d="M159 975l250 -90l-24 -66l-250 90zM495 70v-70h-415v750h415v-70h-335v-270h305v-70h-305v-270h335z" />
    <glyph glyph-name="Eacute" unicode="&#xc9;" horiz-adv-x="555" 
d="M405 975l24 -66l-250 -90l-24 66zM495 70v-70h-415v750h415v-70h-335v-270h305v-70h-305v-270h335z" />
    <glyph glyph-name="Ecircumflex" unicode="&#xca;" horiz-adv-x="555" 
d="M296 968l159 -84l-32 -62l-127 67l-128 -67l-32 62zM495 70v-70h-415v750h415v-70h-335v-270h305v-70h-305v-270h335z" />
    <glyph glyph-name="Edieresis" unicode="&#xcb;" horiz-adv-x="555" 
d="M495 70v-70h-415v750h415v-70h-335v-270h305v-70h-305v-270h335zM433 944v-100h-80v100h80zM213 944v-100h-80v100h80z" />
    <glyph glyph-name="Igrave" unicode="&#xcc;" 
d="M8 975l250 -90l-24 -66l-250 90zM161 750v-750h-80v750h80z" />
    <glyph glyph-name="Iacute" unicode="&#xcd;" 
d="M234 975l24 -66l-250 -90l-24 66zM161 750v-750h-80v750h80z" />
    <glyph glyph-name="Icircumflex" unicode="&#xce;" 
d="M121 968l159 -84l-32 -62l-127 67l-128 -67l-32 62zM161 750v-750h-80v750h80z" />
    <glyph glyph-name="Idieresis" unicode="&#xcf;" 
d="M161 750v-750h-80v750h80zM270 944v-100h-80v100h80zM50 944v-100h-80v100h80z" />
    <glyph glyph-name="Eth" unicode="&#xd0;" horiz-adv-x="812" 
d="M762 375q0 -155 -110 -265t-265 -110h-255v346h-112v65h112v339h255q155 0 265 -110t110 -265zM682 375q0 126 -89.5 215.5t-215.5 89.5h-165v-269h113v-65h-113v-276h165q126 0 215.5 89.5t89.5 215.5z" />
    <glyph glyph-name="Ntilde" unicode="&#xd1;" horiz-adv-x="725" 
d="M645 750v-750h-80l-405 616v-616h-80v750h80l405 -617v617h80zM471 950h55q0 -42 -29.5 -71.5t-71.5 -29.5q-29 0 -49 9t-28 20t-20.5 20t-29.5 9q-20 0 -33.5 -13.5t-13.5 -33.5h-55q0 42 29.5 71.5t71.5 29.5q29 0 49 -9t28 -19.5t21 -19.5t30 -9q19 0 32.5 13t13.5 33
z" />
    <glyph glyph-name="Ograve" unicode="&#xd2;" horiz-adv-x="890" 
d="M349 975l250 -90l-24 -66l-250 90zM840 375q0 -163 -116 -279t-279 -116t-279 116t-116 279t116 279t279 116t279 -116t116 -279zM760 375q0 134 -92.5 229.5t-222.5 95.5t-222.5 -95.5t-92.5 -229.5t92.5 -229.5t222.5 -95.5t222.5 95.5t92.5 229.5z" />
    <glyph glyph-name="Oacute" unicode="&#xd3;" horiz-adv-x="890" 
d="M555 975l24 -66l-250 -90l-24 66zM840 375q0 -163 -116 -279t-279 -116t-279 116t-116 279t116 279t279 116t279 -116t116 -279zM760 375q0 134 -92.5 229.5t-222.5 95.5t-222.5 -95.5t-92.5 -229.5t92.5 -229.5t222.5 -95.5t222.5 95.5t92.5 229.5z" />
    <glyph glyph-name="Ocircumflex" unicode="&#xd4;" horiz-adv-x="890" 
d="M446 968l159 -84l-32 -62l-127 67l-128 -67l-32 62zM840 375q0 -163 -116 -279t-279 -116t-279 116t-116 279t116 279t279 116t279 -116t116 -279zM760 375q0 134 -92.5 229.5t-222.5 95.5t-222.5 -95.5t-92.5 -229.5t92.5 -229.5t222.5 -95.5t222.5 95.5t92.5 229.5z
" />
    <glyph glyph-name="Otilde" unicode="&#xd5;" horiz-adv-x="890" 
d="M840 375q0 -163 -116 -279t-279 -116t-279 116t-116 279t116 279t279 116t279 -116t116 -279zM760 375q0 134 -92.5 229.5t-222.5 95.5t-222.5 -95.5t-92.5 -229.5t92.5 -229.5t222.5 -95.5t222.5 95.5t92.5 229.5zM567 950h55q0 -42 -29.5 -71.5t-71.5 -29.5
q-29 0 -49 9t-28 20t-20.5 20t-29.5 9q-20 0 -33.5 -13.5t-13.5 -33.5h-55q0 42 29.5 71.5t71.5 29.5q29 0 49 -9t28 -19.5t21 -19.5t30 -9q19 0 32.5 13t13.5 33z" />
    <glyph glyph-name="Odieresis" unicode="&#xd6;" horiz-adv-x="890" 
d="M840 375q0 -163 -116 -279t-279 -116t-279 116t-116 279t116 279t279 116t279 -116t116 -279zM760 375q0 134 -92.5 229.5t-222.5 95.5t-222.5 -95.5t-92.5 -229.5t92.5 -229.5t222.5 -95.5t222.5 95.5t92.5 229.5zM597 944v-100h-80v100h80zM377 944v-100h-80v100h80z
" />
    <glyph glyph-name="multiply" unicode="&#xd7;" horiz-adv-x="640" 
d="M373 379l170 -170l-57 -57l-170 170l-169 -170l-50 50l170 169l-170 170l57 57l170 -170l169 170l50 -50z" />
    <glyph glyph-name="Oslash" unicode="&#xd8;" horiz-adv-x="890" 
d="M840 375q0 -163 -116 -279t-279 -116q-70 0 -134 23l-32 -70l-66 30l33 71q-89 52 -142.5 142.5t-53.5 198.5q0 163 116 279t279 116q70 0 134 -23l32 70l66 -30l-33 -71q89 -52 142.5 -142.5t53.5 -198.5zM760 375q0 85 -40 158t-107 117l-271 -582q48 -18 103 -18
q131 0 223 95t92 230zM277 100l271 582q-48 18 -103 18q-130 0 -222.5 -95.5t-92.5 -229.5q0 -85 40 -158t107 -117z" />
    <glyph glyph-name="Ugrave" unicode="&#xd9;" horiz-adv-x="740" 
d="M259 975l250 -90l-24 -66l-250 90zM660 750v-480q0 -120 -85 -205t-205 -85t-205 85t-85 205v480h80v-480q0 -91 61.5 -155.5t148.5 -64.5t148.5 64.5t61.5 155.5v480h80z" />
    <glyph glyph-name="Uacute" unicode="&#xda;" horiz-adv-x="740" 
d="M495 975l24 -66l-250 -90l-24 66zM660 750v-480q0 -120 -85 -205t-205 -85t-205 85t-85 205v480h80v-480q0 -91 61.5 -155.5t148.5 -64.5t148.5 64.5t61.5 155.5v480h80z" />
    <glyph glyph-name="Ucircumflex" unicode="&#xdb;" horiz-adv-x="740" 
d="M376 968l159 -84l-32 -62l-127 67l-128 -67l-32 62zM660 750v-480q0 -120 -85 -205t-205 -85t-205 85t-85 205v480h80v-480q0 -91 61.5 -155.5t148.5 -64.5t148.5 64.5t61.5 155.5v480h80z" />
    <glyph glyph-name="Udieresis" unicode="&#xdc;" horiz-adv-x="740" 
d="M660 750v-480q0 -120 -85 -205t-205 -85t-205 85t-85 205v480h80v-480q0 -91 61.5 -155.5t148.5 -64.5t148.5 64.5t61.5 155.5v480h80zM527 944v-100h-80v100h80zM307 944v-100h-80v100h80z" />
    <glyph glyph-name="Yacute" unicode="&#xdd;" horiz-adv-x="730" 
d="M485 975l24 -66l-250 -90l-24 66zM618 750h92l-305 -435v-315h-80v315l-305 435h92l253 -360z" />
    <glyph glyph-name="Thorn" unicode="&#xde;" horiz-adv-x="585" 
d="M545 375q0 -85 -60 -145t-145 -60h-180v-170h-80v750h80v-170h180q85 0 145 -60t60 -145zM465 375q0 57 -35 96t-90 39h-180v-270h180q55 0 90 39t35 96z" />
    <glyph glyph-name="germandbls" unicode="&#xdf;" horiz-adv-x="590" 
d="M550 121q0 -69 -43.5 -105t-105.5 -36q-54 0 -97.5 29t-59.5 82l69 27q30 -71 87 -71q31 0 51 18t20 54q0 42 -59 61l-36 11q-113 34 -113 132q0 65 67 113l58 42q45 33 45 95q0 59 -34.5 91t-81.5 32q-48 0 -82.5 -32t-34.5 -89v-575h-80v380h-80v70h80v122
q0 92 59.5 144t140.5 52q79 0 135.5 -49.5t56.5 -139.5q0 -102 -83 -163l-64 -47q-25 -19 -25 -46q0 -44 42 -56l55 -17q113 -33 113 -129z" />
    <glyph glyph-name="agrave" unicode="&#xe0;" horiz-adv-x="625" 
d="M545 450v-450h-80v73q-65 -93 -176 -93q-97 0 -168 72t-71 173t71 173t168 72q111 0 176 -93v73h80zM465 225q0 73 -49.5 124t-118.5 51t-118 -51t-49 -124t49 -124t118 -51t118.5 51t49.5 124zM209 785l228 -136l-36 -60l-228 136z" />
    <glyph glyph-name="aacute" unicode="&#xe1;" horiz-adv-x="625" 
d="M545 450v-450h-80v73q-65 -93 -176 -93q-97 0 -168 72t-71 173t71 173t168 72q111 0 176 -93v73h80zM465 225q0 73 -49.5 124t-118.5 51t-118 -51t-49 -124t49 -124t118 -51t118.5 51t49.5 124zM401 785l36 -60l-228 -136l-36 60z" />
    <glyph glyph-name="acircumflex" unicode="&#xe2;" horiz-adv-x="625" 
d="M545 450v-450h-80v73q-65 -93 -176 -93q-97 0 -168 72t-71 173t71 173t168 72q111 0 176 -93v73h80zM465 225q0 73 -49.5 124t-118.5 51t-118 -51t-49 -124t49 -124t118 -51t118.5 51t49.5 124zM312 784l159 -143l-46 -52l-113 101l-113 -101l-46 52z" />
    <glyph glyph-name="atilde" unicode="&#xe3;" horiz-adv-x="625" 
d="M545 450v-450h-80v73q-65 -93 -176 -93q-97 0 -168 72t-71 173t71 173t168 72q111 0 176 -93v73h80zM465 225q0 73 -49.5 124t-118.5 51t-118 -51t-49 -124t49 -124t118 -51t118.5 51t49.5 124zM412 750h55q0 -42 -29.5 -71.5t-71.5 -29.5q-29 0 -49 9t-28 20t-20.5 20
t-29.5 9q-19 0 -33 -13.5t-14 -33.5h-55q0 42 29.5 71.5t71.5 29.5q29 0 49 -9t28 -19.5t21 -19.5t30 -9q20 0 33 13t13 33z" />
    <glyph glyph-name="adieresis" unicode="&#xe4;" horiz-adv-x="625" 
d="M545 450v-450h-80v73q-65 -93 -176 -93q-97 0 -168 72t-71 173t71 173t168 72q111 0 176 -93v73h80zM465 225q0 73 -49.5 124t-118.5 51t-118 -51t-49 -124t49 -124t118 -51t118.5 51t49.5 124zM458 750v-100h-80v100h80zM238 750v-100h-80v100h80z" />
    <glyph glyph-name="aring" unicode="&#xe5;" horiz-adv-x="625" 
d="M545 450v-450h-80v73q-65 -93 -176 -93q-97 0 -168 72t-71 173t71 173t168 72q111 0 176 -93v73h80zM465 225q0 73 -49.5 124t-118.5 51t-118 -51t-49 -124t49 -124t118 -51t118.5 51t49.5 124zM406 677q0 -42 -29.5 -71.5t-72.5 -29.5q-42 0 -71.5 29.5t-29.5 71.5
q0 43 29.5 72.5t71.5 29.5q43 0 72.5 -29.5t29.5 -72.5zM351 677q0 19 -13.5 33t-33.5 14q-19 0 -32.5 -14t-13.5 -33t13.5 -32.5t32.5 -13.5t33 13.5t14 32.5z" />
    <glyph glyph-name="ae" unicode="&#xe6;" horiz-adv-x="1007" 
d="M958 225q0 -3 -0.5 -7t-1 -11.5t-0.5 -16.5h-411q12 -60 58.5 -101.5t109.5 -41.5q45 0 84 24.5t64 68.5l63 -37q-35 -58 -90.5 -90.5t-120.5 -32.5q-98 0 -168 67v-47h-80v73q-65 -93 -176 -93q-97 0 -168 72t-71 173t71 173t168 72q111 0 176 -93v73h80v-47
q72 67 168 67q101 0 173 -72t72 -173zM545 259h335q-12 61 -59 102.5t-108 41.5q-63 0 -109.5 -41.5t-58.5 -102.5zM465 225q0 73 -49.5 124t-118.5 51t-118 -51t-49 -124t49 -124t118 -51t118.5 51t49.5 124z" />
    <glyph glyph-name="ccedilla" unicode="&#xe7;" horiz-adv-x="589" 
d="M442 140l64 -37q-62 -103 -174 -120l-29 -36q31 -11 47 -33.5t16 -49.5q0 -37 -25.5 -65.5t-68.5 -28.5q-26 0 -52 16t-40 47l49 29q15 -37 46 -37q16 0 25 11.5t9 25.5t-9 24t-24 10q-12 0 -24 -15l-5 -7l-50 38l56 72q-87 15 -145 83t-58 158q0 101 72 173t173 72
q65 0 120.5 -32.5t90.5 -90.5l-64 -37q-53 91 -148 91q-69 0 -116.5 -51.5t-47.5 -124.5q0 -74 47.5 -125t116.5 -51q95 0 148 91z" />
    <glyph glyph-name="egrave" unicode="&#xe8;" horiz-adv-x="589" 
d="M540 225q0 -3 -0.5 -7t-1 -11.5t-0.5 -16.5h-411q12 -60 58.5 -101.5t109.5 -41.5q45 0 84 24.5t64 68.5l63 -37q-35 -58 -90.5 -90.5t-120.5 -32.5q-101 0 -173 72t-72 173t72 173t173 72t173 -72t72 -173zM127 259h335q-12 61 -59 102.5t-108 41.5q-63 0 -109.5 -41.5
t-58.5 -102.5zM209 785l228 -136l-36 -60l-228 136z" />
    <glyph glyph-name="eacute" unicode="&#xe9;" horiz-adv-x="589" 
d="M540 225q0 -3 -0.5 -7t-1 -11.5t-0.5 -16.5h-411q12 -60 58.5 -101.5t109.5 -41.5q45 0 84 24.5t64 68.5l63 -37q-35 -58 -90.5 -90.5t-120.5 -32.5q-101 0 -173 72t-72 173t72 173t173 72t173 -72t72 -173zM127 259h335q-12 61 -59 102.5t-108 41.5q-63 0 -109.5 -41.5
t-58.5 -102.5zM381 785l36 -60l-228 -136l-36 60z" />
    <glyph glyph-name="ecircumflex" unicode="&#xea;" horiz-adv-x="589" 
d="M540 225q0 -3 -0.5 -7t-1 -11.5t-0.5 -16.5h-411q12 -60 58.5 -101.5t109.5 -41.5q45 0 84 24.5t64 68.5l63 -37q-35 -58 -90.5 -90.5t-120.5 -32.5q-101 0 -173 72t-72 173t72 173t173 72t173 -72t72 -173zM127 259h335q-12 61 -59 102.5t-108 41.5q-63 0 -109.5 -41.5
t-58.5 -102.5zM302 784l159 -143l-46 -52l-113 101l-113 -101l-46 52z" />
    <glyph glyph-name="edieresis" unicode="&#xeb;" horiz-adv-x="589" 
d="M540 225q0 -3 -0.5 -7t-1 -11.5t-0.5 -16.5h-411q12 -60 58.5 -101.5t109.5 -41.5q45 0 84 24.5t64 68.5l63 -37q-35 -58 -90.5 -90.5t-120.5 -32.5q-101 0 -173 72t-72 173t72 173t173 72t173 -72t72 -173zM127 259h335q-12 61 -59 102.5t-108 41.5q-63 0 -109.5 -41.5
t-58.5 -102.5zM448 750v-100h-80v100h80zM228 750v-100h-80v100h80z" />
    <glyph glyph-name="igrave" unicode="&#xec;" 
d="M160 450v-450h-80v450h80zM24 785l228 -136l-36 -60l-228 136z" />
    <glyph glyph-name="iacute" unicode="&#xed;" 
d="M160 450v-450h-80v450h80zM216 785l36 -60l-228 -136l-36 60z" />
    <glyph glyph-name="icircumflex" unicode="&#xee;" 
d="M160 450v-450h-80v450h80zM120 784l159 -143l-46 -52l-113 101l-113 -101l-46 52z" />
    <glyph glyph-name="idieresis" unicode="&#xef;" 
d="M160 450v-450h-80v450h80zM270 750v-100h-80v100h80zM50 750v-100h-80v100h80z" />
    <glyph glyph-name="eth" unicode="&#xf0;" horiz-adv-x="590" 
d="M540 225q0 -101 -72 -173t-173 -72t-173 72t-72 173t72 173t173 72q23 0 50 -5l-60 104l-138 -80v81l102 59l-70 121h94l47 -80l131 76v-81l-96 -56l155 -266q30 -53 30 -118zM460 225q0 73 -48.5 124t-116.5 51t-116.5 -51t-48.5 -124t48.5 -124t116.5 -51t116.5 51
t48.5 124z" />
    <glyph glyph-name="ntilde" unicode="&#xf1;" horiz-adv-x="570" 
d="M490 285v-285h-80v285q0 51 -34 83.5t-86 32.5q-54 0 -92 -38t-38 -91v-272h-80v450h80v-54q49 74 143 74q75 0 131 -50t56 -135zM402 750h55q0 -42 -29.5 -71.5t-71.5 -29.5q-29 0 -49 9t-28 20t-20.5 20t-29.5 9q-19 0 -33 -13.5t-14 -33.5h-55q0 42 29.5 71.5
t71.5 29.5q29 0 49 -9t28 -19.5t21 -19.5t30 -9q20 0 33 13t13 33z" />
    <glyph glyph-name="ograve" unicode="&#xf2;" horiz-adv-x="590" 
d="M540 225q0 -101 -72 -173t-173 -72t-173 72t-72 173t72 173t173 72t173 -72t72 -173zM460 225q0 73 -48.5 124t-116.5 51t-116.5 -51t-48.5 -124t48.5 -124t116.5 -51t116.5 51t48.5 124zM209 785l228 -136l-36 -60l-228 136z" />
    <glyph glyph-name="oacute" unicode="&#xf3;" horiz-adv-x="590" 
d="M540 225q0 -101 -72 -173t-173 -72t-173 72t-72 173t72 173t173 72t173 -72t72 -173zM460 225q0 73 -48.5 124t-116.5 51t-116.5 -51t-48.5 -124t48.5 -124t116.5 -51t116.5 51t48.5 124zM381 785l36 -60l-228 -136l-36 60z" />
    <glyph glyph-name="ocircumflex" unicode="&#xf4;" horiz-adv-x="590" 
d="M540 225q0 -101 -72 -173t-173 -72t-173 72t-72 173t72 173t173 72t173 -72t72 -173zM460 225q0 73 -48.5 124t-116.5 51t-116.5 -51t-48.5 -124t48.5 -124t116.5 -51t116.5 51t48.5 124zM302 784l159 -143l-46 -52l-113 101l-113 -101l-46 52z" />
    <glyph glyph-name="otilde" unicode="&#xf5;" horiz-adv-x="590" 
d="M540 225q0 -101 -72 -173t-173 -72t-173 72t-72 173t72 173t173 72t173 -72t72 -173zM460 225q0 73 -48.5 124t-116.5 51t-116.5 -51t-48.5 -124t48.5 -124t116.5 -51t116.5 51t48.5 124zM412 750h55q0 -42 -29.5 -71.5t-71.5 -29.5q-29 0 -49 9t-28 20t-20.5 20t-29.5 9
q-19 0 -33 -13.5t-14 -33.5h-55q0 42 29.5 71.5t71.5 29.5q29 0 49 -9t28 -19.5t21 -19.5t30 -9q20 0 33 13t13 33z" />
    <glyph glyph-name="odieresis" unicode="&#xf6;" horiz-adv-x="590" 
d="M540 225q0 -101 -72 -173t-173 -72t-173 72t-72 173t72 173t173 72t173 -72t72 -173zM460 225q0 73 -48.5 124t-116.5 51t-116.5 -51t-48.5 -124t48.5 -124t116.5 -51t116.5 51t48.5 124zM448 750v-100h-80v100h80zM228 750v-100h-80v100h80z" />
    <glyph glyph-name="divide" unicode="&#xf7;" horiz-adv-x="640" 
d="M360 650v-120h-80v120h80zM600 410v-70h-560v70h560zM360 220v-120h-80v120h80z" />
    <glyph glyph-name="oslash" unicode="&#xf8;" horiz-adv-x="590" 
d="M540 225q0 -101 -72 -173t-173 -72q-33 0 -70 10l-31 -67l-67 31l32 67q-50 34 -79.5 87.5t-29.5 116.5q0 101 72 173t173 72q33 0 70 -10l31 67l67 -31l-32 -67q50 -34 79.5 -87.5t29.5 -116.5zM460 225q0 83 -61 136l-143 -306q20 -5 39 -5q68 0 116.5 51t48.5 124z
M191 90l143 305q-22 5 -39 5q-68 0 -116.5 -51t-48.5 -124q0 -82 61 -135z" />
    <glyph glyph-name="ugrave" unicode="&#xf9;" horiz-adv-x="570" 
d="M490 450v-450h-80v54q-49 -74 -143 -74q-75 0 -131 50t-56 135v285h80v-285q0 -51 34 -83.5t86 -32.5q54 0 92 37.5t38 91.5v272h80zM189 785l228 -136l-36 -60l-228 136z" />
    <glyph glyph-name="uacute" unicode="&#xfa;" horiz-adv-x="570" 
d="M490 450v-450h-80v54q-49 -74 -143 -74q-75 0 -131 50t-56 135v285h80v-285q0 -51 34 -83.5t86 -32.5q54 0 92 37.5t38 91.5v272h80zM381 785l36 -60l-228 -136l-36 60z" />
    <glyph glyph-name="ucircumflex" unicode="&#xfb;" horiz-adv-x="570" 
d="M490 450v-450h-80v54q-49 -74 -143 -74q-75 0 -131 50t-56 135v285h80v-285q0 -51 34 -83.5t86 -32.5q54 0 92 37.5t38 91.5v272h80zM282 784l159 -143l-46 -52l-113 101l-113 -101l-46 52z" />
    <glyph glyph-name="udieresis" unicode="&#xfc;" horiz-adv-x="570" 
d="M490 450v-450h-80v54q-49 -74 -143 -74q-75 0 -131 50t-56 135v285h80v-285q0 -51 34 -83.5t86 -32.5q54 0 92 37.5t38 91.5v272h80zM438 750v-100h-80v100h80zM218 750v-100h-80v100h80z" />
    <glyph glyph-name="yacute" unicode="&#xfd;" horiz-adv-x="502" 
d="M407 450h85l-282 -639q-20 -45 -57 -68t-82 -23q-47 0 -78 18v73q35 -21 72 -21q51 0 71 46l73 165l-199 449h85l156 -354zM361 785l36 -60l-228 -136l-36 60z" />
    <glyph glyph-name="thorn" unicode="&#xfe;" horiz-adv-x="625" 
d="M575 225q0 -101 -71 -173t-168 -72q-111 0 -176 93v-343h-80v1020h80v-373q65 93 176 93q97 0 168 -72t71 -173zM495 225q0 73 -49 124t-118 51t-118.5 -51t-49.5 -124t49.5 -124t118.5 -51t118 51t49 124z" />
    <glyph glyph-name="ydieresis" unicode="&#xff;" horiz-adv-x="502" 
d="M407 450h85l-282 -639q-20 -45 -57 -68t-82 -23q-47 0 -78 18v73q35 -21 72 -21q51 0 71 46l73 165l-199 449h85l156 -354zM428 750v-100h-80v100h80zM208 750v-100h-80v100h80z" />
    <glyph glyph-name="dotlessi" unicode="&#x131;" 
d="M160 450v-450h-80v450h80z" />
    <glyph glyph-name="Lslash" unicode="&#x141;" horiz-adv-x="587" 
d="M547 70v-70h-415v314l-112 -64v81l112 64v355h80v-309l113 65v-81l-113 -65v-290h335z" />
    <glyph glyph-name="lslash" unicode="&#x142;" horiz-adv-x="344" 
d="M325 506v-81l-113 -65v-360h-80v314l-112 -64v81l112 64v355h80v-309z" />
    <glyph glyph-name="OE" unicode="&#x152;" horiz-adv-x="1235" 
d="M1175 70v-70h-415v137q-55 -73 -137.5 -115t-177.5 -42q-163 0 -279 116t-116 279t116 279t279 116q95 0 177.5 -42t137.5 -115v137h415v-70h-335v-270h305v-70h-305v-270h335zM760 375q0 134 -92.5 229.5t-222.5 95.5t-222.5 -95.5t-92.5 -229.5t92.5 -229.5
t222.5 -95.5t222.5 95.5t92.5 229.5z" />
    <glyph glyph-name="oe" unicode="&#x153;" horiz-adv-x="999" 
d="M950 225q0 -3 -0.5 -7t-1 -11.5t-0.5 -16.5h-410h-1q12 -60 59 -101.5t109 -41.5q45 0 84 24.5t64 68.5l63 -37q-35 -58 -90.5 -90.5t-120.5 -32.5q-63 0 -117 30t-88 81q-34 -51 -88 -81t-117 -30q-101 0 -173 72t-72 173t72 173t173 72q63 0 117 -30t88 -81
q34 51 88 81t117 30q101 0 173 -72t72 -173zM538 259h334q-12 61 -59 102.5t-108 41.5q-62 0 -109 -41.5t-59 -101.5zM460 225q0 73 -48.5 124t-116.5 51t-116.5 -51t-48.5 -124t48.5 -124t116.5 -51t116.5 51t48.5 124z" />
    <glyph glyph-name="Scaron" unicode="&#x160;" horiz-adv-x="639" 
d="M452 968l32 -61l-159 -85l-160 85l32 61l128 -67zM579 209q0 -108 -77.5 -168.5t-182.5 -60.5q-96 0 -169 51t-90 146l71 30q14 -80 66 -118.5t122 -38.5q72 0 126 41.5t54 111.5q0 43 -28.5 78.5t-78.5 47.5l-163 37q-69 16 -108 68t-39 118q0 104 69.5 161t165.5 57
q92 0 163.5 -52.5t82.5 -146.5l-68 -27q-16 79 -65 117t-117 38q-72 0 -111.5 -42.5t-39.5 -99.5q0 -42 24 -75.5t66 -43.5l176 -40q71 -17 111 -69.5t40 -119.5z" />
    <glyph glyph-name="scaron" unicode="&#x161;" horiz-adv-x="461" 
d="M410 123q0 -69 -51 -106t-123 -37q-64 0 -117 29.5t-69 81.5l69 27q31 -71 114 -71q40 0 69 20.5t29 57.5q0 44 -63 58l-84 19q-116 25 -116 129q0 67 48 103t115 36q61 0 110.5 -29t64.5 -81l-69 -27q-15 35 -44 52.5t-62 17.5q-36 0 -61 -19.5t-25 -52.5
q0 -18 12.5 -35.5t32.5 -21.5l85 -19q63 -14 99 -43t36 -89zM365 784l46 -52l-159 -143l-159 143l46 52l113 -101z" />
    <glyph glyph-name="Ydieresis" unicode="&#x178;" horiz-adv-x="730" 
d="M618 750h92l-305 -435v-315h-80v315l-305 435h92l253 -360zM514 944v-100h-80v100h80zM294 944v-100h-80v100h80z" />
    <glyph glyph-name="Zcaron" unicode="&#x17d;" horiz-adv-x="571" 
d="M432 968l32 -61l-159 -85l-160 85l32 61l128 -67zM551 70v-70h-531v70l426 610h-426v70h531v-70l-426 -610h426z" />
    <glyph glyph-name="zcaron" unicode="&#x17e;" horiz-adv-x="461" 
d="M427 70v-70h-367v70l263 310h-260v70h359v-70l-263 -310h268zM385 784l46 -52l-159 -143l-159 143l46 52l113 -101z" />
    <glyph glyph-name="circumflex" unicode="&#x2c6;" horiz-adv-x="589" 
d="M302 784l159 -143l-46 -52l-113 101l-113 -101l-46 52z" />
    <glyph glyph-name="caron" unicode="&#x2c7;" horiz-adv-x="589" 
d="M415 784l46 -52l-159 -143l-159 143l46 52l113 -101z" />
    <glyph glyph-name="breve" unicode="&#x2d8;" horiz-adv-x="589" 
d="M397 775l56 -33q-59 -92 -158 -92q-97 0 -158 92l57 33q39 -63 101 -63q63 0 102 63z" />
    <glyph glyph-name="dotaccent" unicode="&#x2d9;" horiz-adv-x="590" 
d="M347 774v-120h-80v120h80z" />
    <glyph glyph-name="ring" unicode="&#x2da;" horiz-adv-x="590" 
d="M396 677q0 -42 -29.5 -71.5t-72.5 -29.5q-42 0 -71.5 29.5t-29.5 71.5q0 43 29.5 72.5t71.5 29.5q43 0 72.5 -29.5t29.5 -72.5zM341 677q0 19 -13.5 33t-33.5 14q-19 0 -32.5 -14t-13.5 -33t13.5 -32.5t32.5 -13.5t33 13.5t14 32.5z" />
    <glyph glyph-name="ogonek" unicode="&#x2db;" horiz-adv-x="556" 
d="M347 -209l-33 -56q-92 59 -92 157q0 99 92 158l33 -56q-63 -39 -63 -102q0 -62 63 -101z" />
    <glyph glyph-name="tilde" unicode="&#x2dc;" horiz-adv-x="590" 
d="M412 750h55q0 -42 -29.5 -71.5t-71.5 -29.5q-29 0 -49 9t-28 20t-20.5 20t-29.5 9q-19 0 -33 -13.5t-14 -33.5h-55q0 42 29.5 71.5t71.5 29.5q29 0 49 -9t28 -19.5t21 -19.5t30 -9q20 0 33 13t13 33z" />
    <glyph glyph-name="hungarumlaut" unicode="&#x2dd;" horiz-adv-x="598" 
d="M459 801l72 -50l-104 -144l-71 49zM199 801l72 -50l-104 -144l-71 49z" />
    <glyph glyph-name="endash" unicode="&#x2013;" horiz-adv-x="535" 
d="M475 310v-70h-415v70h415z" />
    <glyph glyph-name="emdash" unicode="&#x2014;" horiz-adv-x="870" 
d="M810 310v-70h-750v70h750z" />
    <glyph glyph-name="quoteleft" unicode="&#x2018;" horiz-adv-x="205" 
d="M69 770l136 -235l-69 -39l-136 236z" />
    <glyph glyph-name="quoteright" unicode="&#x2019;" horiz-adv-x="205" 
d="M136 770l69 -38l-136 -236l-69 39z" />
    <glyph glyph-name="quotesinglbase" unicode="&#x201a;" horiz-adv-x="210" 
d="M101 128l69 -38l-136 -235l-69 38z" />
    <glyph glyph-name="quotedblleft" unicode="&#x201c;" horiz-adv-x="375" 
d="M239 770l136 -235l-69 -39l-136 236zM69 770l136 -235l-69 -39l-136 236z" />
    <glyph glyph-name="quotedblright" unicode="&#x201d;" horiz-adv-x="375" 
d="M306 770l69 -38l-136 -236l-69 39zM136 770l69 -38l-136 -236l-69 39z" />
    <glyph glyph-name="quotedblbase" unicode="&#x201e;" horiz-adv-x="380" 
d="M271 128l69 -38l-136 -236l-69 39zM101 128l69 -38l-136 -236l-69 39z" />
    <glyph glyph-name="dagger" unicode="&#x2020;" horiz-adv-x="520" 
d="M470 450v-70h-170v-480h-80v480h-170v70h170v200h80v-200h170z" />
    <glyph glyph-name="daggerdbl" unicode="&#x2021;" horiz-adv-x="520" 
d="M470 170v-70h-170v-200h-80v200h-170v70h170v210h-170v70h170v200h80v-200h170v-70h-170v-210h170z" />
    <glyph glyph-name="bullet" unicode="&#x2022;" horiz-adv-x="487" 
d="M428 376q0 -76 -54 -129.5t-130 -53.5t-130 53.5t-54 129.5t54 130t130 54t130 -54t54 -130z" />
    <glyph glyph-name="ellipsis" unicode="&#x2026;" horiz-adv-x="660" 
d="M580 120v-120h-80v120h80zM370 120v-120h-80v120h80zM160 120v-120h-80v120h80z" />
    <glyph glyph-name="perthousand" unicode="&#x2030;" horiz-adv-x="1231" 
d="M1192 164q0 -76 -54 -130t-130 -54t-130 54t-54 130t54 130t130 54t130 -54t54 -130zM408 586q0 -76 -54 -129.5t-130 -53.5t-130 53.5t-54 129.5t54 130t130 54t130 -54t54 -130zM583 770l60 -34l-406 -756l-60 34zM782 164q0 -76 -54 -130t-130 -54t-130 54t-54 130
t54 130t130 54t130 -54t54 -130zM1122 164q0 48 -33.5 83.5t-80.5 35.5t-80.5 -35.5t-33.5 -83.5t33.5 -83.5t80.5 -35.5t80.5 35.5t33.5 83.5zM338 586q0 48 -33.5 83.5t-80.5 35.5t-80.5 -35.5t-33.5 -83.5t33.5 -83t80.5 -35t80.5 35t33.5 83zM712 164q0 48 -33.5 83.5
t-80.5 35.5t-80.5 -35.5t-33.5 -83.5t33.5 -83.5t80.5 -35.5t80.5 35.5t33.5 83.5z" />
    <glyph glyph-name="guilsinglleft" unicode="&#x2039;" horiz-adv-x="264" 
d="M119 251l125 -125l-49 -49l-175 174l175 175l49 -49z" />
    <glyph glyph-name="guilsinglright" unicode="&#x203a;" horiz-adv-x="264" 
d="M69 426l175 -175l-175 -174l-49 49l125 125l-125 126z" />
    <glyph glyph-name="Euro" unicode="&#x20ac;" horiz-adv-x="971" 
d="M839 254l72 -30q-45 -109 -144 -176.5t-221 -67.5q-126 0 -227.5 72.5t-143.5 187.5h-125v70h107q-6 31 -6 65q0 33 6 65h-107v70h125q42 115 143.5 187.5t227.5 72.5q122 0 221 -67.5t144 -176.5l-72 -30q-36 91 -115.5 147.5t-177.5 56.5q-94 0 -171.5 -52.5
t-114.5 -137.5h285v-70h-307q-7 -29 -7 -65t7 -65h307v-70h-285q37 -85 114.5 -137.5t171.5 -52.5q98 0 177.5 56.5t115.5 147.5z" />
    <glyph glyph-name="minus" unicode="&#x2212;" horiz-adv-x="640" 
d="M600 410v-70h-560v70h560z" />
    </font>
</defs>
</svg>
