<?xml version="1.0" encoding="iso-8859-1"?>
<!-- Generator: Adobe Illustrator 19.0.0, SVG Export Plug-In . SVG Version: 6.00 Build 0)  -->
<svg version="1.1" id="Capa_1" xmlns="http://www.w3.org/2000/svg" xmlns:xlink="http://www.w3.org/1999/xlink" x="0px" y="0px"
	 viewBox="0 0 511.997 511.997" style="enable-background:new 0 0 511.997 511.997;" xml:space="preserve">
<g>
	<path fill="white" d="M493.609,168.104c-3.231-10.301-12.135-17.8-22.835-19.234l-125.124-17.51c-3.541-0.494-6.621-2.677-8.26-5.854
		L281.001,15.255C276.182,5.888,266.532,0,255.998,0c-10.534,0-20.184,5.888-25.003,15.255l-56.38,110.251
		c-1.646,3.175-4.727,5.357-8.269,5.854L41.223,148.904c-10.692,1.428-19.593,8.912-22.835,19.2
		c-0.861,2.711-1.307,5.536-1.323,8.38c0,0.051,0,0.102,0,0.154v68.267c0.036,7.663,3.228,14.972,8.823,20.207l82.483,77.525
		L94.36,410.903c-0.27,1.573-0.401,3.166-0.393,4.762c0,0.094-0.06,0.179-0.06,0.273v68.267c0.02,9.701,5.12,18.683,13.44,23.671
		c4.42,2.697,9.499,4.123,14.677,4.122c4.343,0.002,8.625-1.027,12.493-3.004l116.139-55.578c3.23-1.615,7.04-1.58,10.24,0.094
		l116.446,55.39c8.656,4.382,18.959,3.988,27.256-1.04s13.413-13.981,13.534-23.681v-68.267c0-0.145-0.077-0.265-0.085-0.41
		c0.002-1.622-0.135-3.24-0.41-4.838l-13.969-68.028l82.5-77.585c5.564-5.227,8.734-12.513,8.764-20.147v-68.267
		c0-0.051,0-0.102,0-0.154C494.916,173.639,494.47,170.814,493.609,168.104z M37.648,252.746
		c-2.218-2.007-3.493-4.851-3.516-7.842v-40.269l81.536,76.681c2.62,2.432,3.852,6.011,3.285,9.54l-6.596,32.137L37.648,252.746z
		 M111.068,414.094l24.61-120.03c1.659-9.265-1.481-18.741-8.346-25.182l-89.788-84.446c-3.07-2.817-4.199-7.174-2.884-11.127
		c1.235-4.044,4.731-6.984,8.926-7.509l125.124-17.536c9.05-1.266,16.919-6.856,21.094-14.984l56.397-110.242
		c1.886-3.683,5.675-6,9.813-6c4.138,0,7.927,2.317,9.813,6l56.405,110.259c4.174,8.125,12.039,13.711,21.086,14.976L468.41,165.8
		c4.195,0.525,7.691,3.466,8.926,7.509c1.299,3.948,0.159,8.291-2.91,11.093l-89.796,84.48
		c-6.908,6.501-10.036,16.069-8.303,25.395l24.559,119.586c0.752,4.044-0.892,8.16-4.224,10.573
		c-3.422,2.576-8.036,2.91-11.793,0.853l-116.48-55.347c-7.94-4.026-17.315-4.061-25.284-0.094L126.94,425.426
		c-3.732,1.95-8.254,1.567-11.605-0.981C112.048,422.097,110.391,418.077,111.068,414.094z M401.091,484.178
		c-0.049,3.763-2.067,7.224-5.316,9.122c-3.326,2.035-7.481,2.159-10.923,0.324l-116.463-55.39
		c-7.943-4.026-17.323-4.058-25.293-0.085L126.94,493.727c-3.399,1.755-7.469,1.592-10.718-0.427
		c-3.24-1.904-5.247-5.365-5.291-9.122v-42.803c7.545,3.351,16.2,3.116,23.552-0.64l116.164-55.543
		c3.23-1.619,7.043-1.581,10.24,0.102l116.48,55.347c7.399,3.775,16.097,4.053,23.723,0.759V484.178z M477.865,244.904
		c-0.003,2.954-1.24,5.773-3.413,7.774l-0.043-0.017l-74.769,70.323l-6.562-31.923c-0.633-3.594,0.589-7.265,3.251-9.762
		l81.536-76.663V244.904z"/>
	<path fill="white" d="M155.979,292.844l-14.711,70.972c-1.3,6.183,1.034,12.567,6.016,16.452c5.007,3.963,11.833,4.731,17.596,1.98
		l71.185-33.673c12.228-6.002,26.53-6.074,38.818-0.196l0.128,0.06l72.166,33.946c5.765,2.731,12.581,1.95,17.579-2.014
		c4.958-3.894,7.274-10.266,5.973-16.435l-14.694-70.827c-2.545-14.135,2.305-28.591,12.86-38.332l52.429-48.802
		c4.708-4.39,6.464-11.1,4.512-17.234c-1.952-6.134-7.264-10.594-13.643-11.456l-96.461-13.286l-44.826-86.69
		c-2.892-5.562-8.639-9.052-14.908-9.052c-6.269,0-12.016,3.49-14.908,9.052l-44.578,86.528l-96.725,13.406
		c-6.381,0.859-11.695,5.318-13.649,11.452c-1.954,6.134-0.198,12.846,4.51,17.237l52.437,48.802
		C153.592,264.413,158.451,278.774,155.979,292.844z M198.825,180.724c5.393-0.742,10.09-4.058,12.595-8.892l44.322-86.682
		l44.809,86.69c2.515,4.834,7.221,8.146,12.621,8.883l96.589,12.715l-52.471,48.802c-14.857,13.754-21.644,34.154-17.988,54.067
		l15.138,70.622l-72.107-33.92c-17.024-8.095-36.804-8.014-53.76,0.222l-70.596,34.048l14.763-71.177
		c3.586-19.849-3.211-40.154-18.022-53.845l-52.582-48.094L198.825,180.724z"/>
</g>
</svg>
